{
.appVersion = "3436";
.formatVersion = 3;
DisplayStrings = (
"THE QUICK BROWN FOX JUMPS OVER THE LAZY DOG
the quick brown fox jumps over the lazy dog
Spacing
nanbncndnenfngnhninjnknlnmnnonpnqnrnsntnunvnwnxnynzn
HAHBHCHDHEHFHGHHIHJHKHLHMHNHOHPHQHRHSHTHUHVHWHXHYHZH
0102030405060708090
lower case//lower case
aufkauf aufhalt aufbleib
verixt auflassen 
hoe auffassen
le aufit raufjagen fıne
aufnden Tiefieger
Stolos Muon Stoigel Ozier
Raband Tuhöhle Sukopp 
führen fördern fähre
wegjagen Bargfeld
kyrie afro arte axe luvwärts
Gevatter wann 
ever gewettet severe
davon gewonnen down
wichtig recken
ndnďlďhďoďnď*ď”
nlnľlľhľoľnľ*ľ”dh
fîî tíì lïïë thĩĩ nsa
Versal//Kleinbuchstaben
Farbe Fest Firn Fjord Font
Frau flor Fu Fähre Förde Füe
Rest Rohr Röhre Rymer
Test Tod Tauf Tim Tja Turm
Traum Tsara Twist Tyrol
Tüte Töten Täter TéTêTèVeste Vogel VéVêVèVater Vijf Vlut Vulkan
Vytautas Vroni Väter Vögel Vs Ws Vz Wz
Weste Wolf Wüste Wörpe Wärter Waage Wiege Wlasta
Wurst Wyhl Wrasen
Yeats Yoni auf Yqem
Yak Ybbs Yggdrasil Yps
Ysop Ytong Yuma
Versal//Versal
ATK AVI AWL AYN LTK
LVI LWL LYN V TH
RTK TVI RWL RYN
TABULA VATER WASSER
YAKUZA FABEL PAPST
UNE H",
"/D.sc",
"/d.sc",
"/f_l"
);
axes = (
{
name = Weight;
tag = wght;
}
);
customParameters = (
{
name = vendorID;
value = XXXX;
},
{
name = panose;
value = (
0,
0,
0,
0,
0,
0,
0,
0,
0,
0
);
},
{
name = unicodeRanges;
value = (
0,
1,
2,
3,
4,
5,
29,
31,
33,
60
);
},
{
name = fsType;
value = (
);
},
{
name = glyphOrder;
value = (
.notdef,
space,
exclam,
quotedbl,
numbersign,
dollar,
ampersand,
quotesingle,
parenleft,
parenright,
asterisk,
plus,
comma,
hyphen,
period,
slash,
zero,
one,
two,
three,
four,
five,
six,
seven,
eight,
nine,
colon,
semicolon,
equal,
question,
arobase,
A_cap,
B_cap,
C_cap,
D_cap,
E_cap,
F_cap,
G_cap,
H_cap,
I_cap,
J_cap,
K_cap,
L_cap,
M_cap,
N_cap,
O_cap,
P_cap,
Q_cap,
R_cap,
S_cap,
T_cap,
U_cap,
V_cap,
W_cap,
X_cap,
Y_cap,
Z_cap,
bracketleft,
backslash,
bracketright,
asciicircum,
underscore,
grave_glyph,
a,
b,
c,
d,
e,

glyphs = (
{
glyphname = space;
lastChange = "2026-03-02 14:27:18 +0000";
layers = (
{
layerId = "E059459B-5795-442B-8710-0018C46129BA";
shapes = (
{
closed = 1;
nodes = (
(0,0,l)
);
}
);
width = 238;
},
{
layerId = "261B483D-14CB-4AC5-AE3A-41E540C8643C";
shapes = (
{
closed = 1;
nodes = (
(0,0,l)
);
}
);
width = 238;
},
{
layerId = "B523A5AF-871D-4AB2-9BF1-E01A824009A4";
shapes = (
{
closed = 1;
nodes = (
(0,0,l)
);
}
);
width = 238;
},
{
layerId = "D3C24151-4D63-4841-9665-5260E3226900";
shapes = (
{
closed = 1;
nodes = (
(0,0,l)
);
}
);
width = 238;
},
{
layerId = "8EEC74F5-9CFA-47B4-A8F8-9A6461F2D63F";
shapes = (
{
closed = 1;
nodes = (
(0,0,l)
);
}
);
width = 238;
}
);
note = space;
unicode = 32;
},
{
glyphname = exclam;
lastChange = "2026-03-02 15:23:41 +0000";
layers = (
{
layerId = "E059459B-5795-442B-8710-0018C46129BA";
shapes = (
{
closed = 1;
nodes = (
(74,755,o),
(67,720,o),
(70,667,cs),
(99,210,l),
(109,210,l),
(138,667,ls),
(141,720,o),
(134,755,o),
(104,755,c),
(104,755,l)
);
},
{
closed = 1;
nodes = (
(127,-5,o),
(143,11,o),
(143,34,cs),
(143,57,o),
(127,73,o),
(104,73,cs),
(81,73,o),
(65,57,o),
(65,34,cs),
(65,11,o),
(81,-5,o),
(104,-5,cs)
);
}
);
width = 207;
},
{
layerId = "261B483D-14CB-4AC5-AE3A-41E540C8643C";
shapes = (
{
closed = 1;
nodes = (
(73,755,o),
(64,713,o),
(70,649,cs),
(114,210,l),
(131,210,l),
(175,649,ls),
(181,713,o),
(172,755,o),
(123,755,c),
(123,755,l)
);
},
{
closed = 1;
nodes = (
(159,-5,o),
(183,19,o),
(183,56,cs),
(183,92,o),
(159,116,o),
(123,116,cs),
(86,116,o),
(62,92,o),
(62,56,cs),
(62,19,o),
(86,-5,o),
(123,-5,cs)
);
}
);
width = 245;
},
{
layerId = "B523A5AF-871D-4AB2-9BF1-E01A824009A4";
shapes = (
{
closed = 1;
nodes = (
(73,755,o),
(65,717,o),
(70,659,cs),
(106,210,l),
(119,210,l),
(156,659,ls),
(161,717,o),
(152,755,o),
(113,755,c),
(113,755,l)
);
},
{
closed = 1;
nodes = (
(142,-5,o),
(162,15,o),
(162,44,cs),
(162,74,o),
(142,94,o),
(113,94,cs),
(83,94,o),
(63,74,o),
(63,44,cs),
(63,15,o),
(83,-5,o),
(113,-5,cs)
);
}
);
width = 225;
},
{
layerId = "D3C24151-4D63-4841-9665-5260E3226900";
shapes = (
{
closed = 1;
nodes = (
(73,755,o),
(62,709,o),
(70,641,cs),
(122,210,l),
(141,210,l),
(192,641,ls),
(200,709,o),
(190,755,o),
(131,755,c),
(131,755,l)
);
},
{
closed = 1;
nodes = (
(174,-5,o),
(202,23,o),
(202,66,cs),
(202,108,o),
(174,136,o),
(131,136,cs),
(89,136,o),
(61,108,o),
(61,66,cs),
(61,23,o),
(89,-5,o),
(131,-5,cs)
);
}
);
width = 262;
},
{
layerId = "8EEC74F5-9CFA-47B4-A8F8-9A6461F2D63F";
shapes = (
{
closed = 1;
nodes = (
(72,755,o),
(59,706,o),
(70,632,cs),
(130,210,l),
(151,210,l),
(211,632,ls),
(222,706,o),
(209,755,o),
(140,755,c),
(140,755,l)
);
},
{
closed = 1;
nodes = (
(188,-5,o),
(220,27,o),
(220,75,cs),
(220,123,o),
(188,155,o),
(140,155,cs),
(92,155,o),
(60,123,o),
(60,75,cs),
(60,27,o),
(92,-5,o),
(140,-5,cs)
);
}
);
width = 280;
}
);
note = exclam;
unicode = 33;
},
{
glyphname = quotedbl;
lastChange = "2026-03-02 15:18:59 +0000";
layers = (
{
layerId = "E059459B-5795-442B-8710-0018C46129BA";
shapes = (
{
closed = 1;
nodes = (
(75,755,o),
(66,735,o),
(70,704,cs),
(91,544,l),
(99,544,l),
(120,704,ls),
(124,735,o),
(115,755,o),
(97,755,cs),
(93,755,ls)
);
},
{
closed = 1;
nodes = (
(190,755,o),
(181,735,o),
(185,704,cs),
(207,544,l),
(214,544,l),
(236,704,ls),
(240,735,o),
(231,755,o),
(212,755,cs),
(209,755,ls)
);
}
);
width = 305;
},
{
layerId = "261B483D-14CB-4AC5-AE3A-41E540C8643C";
shapes = (
{
closed = 1;
nodes = (
(77,755,o),
(62,723,o),
(72,676,cs),
(105,516,l),
(118,516,l),
(151,676,ls),
(161,723,o),
(146,755,o),
(114,755,cs),
(109,755,ls)
);
},
{
closed = 1;
nodes = (
(223,755,o),
(208,723,o),
(218,676,cs),
(251,516,l),
(263,516,l),
(297,676,ls),
(307,723,o),
(292,755,o),
(260,755,cs),
(255,755,ls)
);
}
);
width = 368;
},
{
layerId = "B523A5AF-871D-4AB2-9BF1-E01A824009A4";
shapes = (
{
closed = 1;
nodes = (
(76,755,o),
(65,729,o),
(71,691,cs),
(98,531,l),
(108,531,l),
(135,691,ls),
(141,729,o),
(130,755,o),
(105,755,cs),
(101,755,ls)
);
},
{
closed = 1;
nodes = (
(206,755,o),
(195,729,o),
(201,691,cs),
(228,531,l),
(238,531,l),
(265,691,ls),
(271,729,o),
(260,755,o),
(235,755,cs),
(231,755,ls)
);
}
);
width = 335;
},
{
layerId = "D3C24151-4D63-4841-9665-5260E3226900";
shapes = (
{
closed = 1;
nodes = (
(77,755,o),
(60,718,o),
(73,663,cs),
(112,503,l),
(126,503,l),
(165,663,ls),
(178,718,o),
(161,755,o),
(122,755,cs),
(116,755,ls)
);
},
{
closed = 1;
nodes = (
(237,755,o),
(220,718,o),
(233,663,cs),
(272,503,l),
(286,503,l),
(325,663,ls),
(338,718,o),
(321,755,o),
(282,755,cs),
(276,755,ls)
);
}
);
width = 398;
},
{
layerId = "8EEC74F5-9CFA-47B4-A8F8-9A6461F2D63F";
shapes = (
{
closed = 1;
nodes = (
(77,755,o),
(56,713,o),
(74,649,cs),
(119,489,l),
(135,489,l),
(180,649,ls),
(198,713,o),
(178,755,o),
(131,755,cs),
(124,755,ls)
);
},
{
closed = 1;
nodes = (
(252,755,o),
(231,713,o),
(249,649,cs),
(294,489,l),
(310,489,l),
(355,649,ls),
(373,713,o),
(353,755,o),
(306,755,cs),
(299,755,ls)
);
}
);
width = 429;
}
);
note = quotedbl;
unicode = 34;
},
{
glyphname = numbersign;
lastChange = "2026-03-02 14:27:18 +0000";
layers = (
{
layerId = "E059459B-5795-442B-8710-0018C46129BA";
shapes = (
{
closed = 1;
nodes = (
(453,179,l),
(459,221,l),
(25,221,l),
(19,179,l)
);
},
{
closed = 1;
nodes = (
(498,439,l),
(504,481,l),
(65,481,l),
(59,439,l)
);
},
{
closed = 1;
nodes = (
(124,0,l),
(145,0,l),
(242,679,l),
(221,679,l)
);
},
{
closed = 1;
nodes = (
(285,0,l),
(306,0,l),
(403,679,l),
(382,679,l)
);
}
);
width = 523;
},
{
layerId = "261B483D-14CB-4AC5-AE3A-41E540C8643C";
shapes = (
{
closed = 1;
nodes = (
(457,167,l),
(466,233,l),
(27,233,l),
(17,167,l)
);
},
{
closed = 1;
nodes = (
(504,427,l),
(513,493,l),
(68,493,l),
(59,427,l)
);
},
{
closed = 1;
nodes = (
(118,0,l),
(151,0,l),
(250,667,l),
(217,667,l)
);
},
{
closed = 1;
nodes = (
(283,0,l),
(316,0,l),
(415,667,l),
(382,667,l)
);
}
);
width = 533;
},
{
layerId = "B523A5AF-871D-4AB2-9BF1-E01A824009A4";
shapes = (
{
closed = 1;
nodes = (
(455,173,l),
(462,227,l),
(26,227,l),
(18,173,l)
);
},
{
closed = 1;
nodes = (
(501,433,l),
(508,487,l),
(66,487,l),
(59,433,l)
);
},
{
closed = 1;
nodes = (
(121,0,l),
(148,0,l),
(246,673,l),
(219,673,l)
);
},
{
closed = 1;
nodes = (
(284,0,l),
(311,0,l),
(409,673,l),
(382,673,l)
);
}
);
width = 528;
},
{
layerId = "D3C24151-4D63-4841-9665-5260E3226900";
shapes = (
{
closed = 1;
nodes = (
(459,161,l),
(470,239,l),
(27,239,l),
(17,161,l)
);
},
{
closed = 1;
nodes = (
(506,421,l),
(517,499,l),
(69,499,l),
(59,421,l)
);
},
{
closed = 1;
nodes = (
(115,0,l),
(154,0,l),
(253,661,l),
(215,661,l)
);
},
{
closed = 1;
nodes = (
(282,0,l),
(321,0,l),
(420,661,l),
(382,661,l)
);
}
);
width = 537;
},
{
layerId = "8EEC74F5-9CFA-47B4-A8F8-9A6461F2D63F";
shapes = (
{
closed = 1;
nodes = (
(461,156,l),
(474,244,l),
(28,244,l),
(16,156,l)
);
},
{
closed = 1;
nodes = (
(510,416,l),
(522,504,l),
(71,504,l),
(59,416,l)
);
},
{
closed = 1;
nodes = (
(112,0,l),
(157,0,l),
(257,656,l),
(213,656,l)
);
},
{
closed = 1;
nodes = (
(282,0,l),
(326,0,l),
(426,656,l),
(382,656,l)
);
}
);
width = 542;
}
);
note = numbersign;
unicode = 35;
},
{
glyphname = ampersand;
lastChange = "2026-03-02 14:28:26 +0000";
layers = (
{
layerId = "E059459B-5795-442B-8710-0018C46129BA";
shapes = (
{
closed = 1;
nodes = (
(709,500,l),
(609,225,o),
(438,41,o),
(277,41,cs),
(174,41,o),
(106,112,o),
(106,218,cs),
(106,322,o),
(166,410,o),
(256,438,c),
(247,441,l),
(127,404,o),
(47,308,o),
(47,201,cs),
(47,74,o),
(126,-10,o),
(245,-10,cs),
(421,-10,o),
(613,194,o),
(725,500,c)
);
},
{
closed = 1;
nodes = (
(317,465,l),
(409,493,o),
(471,552,o),
(471,613,cs),
(471,701,o),
(409,760,o),
(315,760,cs),
(217,760,o),
(152,697,o),
(152,603,cs),
(152,562,o),
(206,497,o),
(287,402,cs),
(548,97,ls),
(603,33,o),
(664,-10,o),
(700,-10,cs),
(767,-10,o),
(820,53,o),
(831,148,c),
(822,151,l),
(813,81,o),
(773,35,o),
(723,35,cs),
(694,35,o),
(643,72,o),
(596,127,cs),
(335,432,ls),
(254,526,o),
(200,591,o),
(200,632,cs),
(200,701,o),
(246,747,o),
(315,747,cs),
(382,747,o),
(426,695,o),
(426,616,cs),
(426,551,o),
(380,493,o),
(310,472,c)
);
}
);
width = 841;
},
{
layerId = "261B483D-14CB-4AC5-AE3A-41E540C8643C";
shapes = (
{
closed = 1;
nodes = (
(710,500,l),
(616,242,o),
(450,70,o),
(295,70,cs),
(196,70,o),
(130,132,o),
(130,224,cs),
(130,327,o),
(182,412,o),
(261,436,c),
(245,441,l),
(121,403,o),
(39,306,o),
(39,199,cs),
(39,73,o),
(121,-10,o),
(245,-10,cs),
(425,-10,o),
(619,194,o),
(730,500,c)
);
},
{
closed = 1;
nodes = (
(320,462,l),
(422,494,o),
(490,554,o),
(490,611,cs),
(490,701,o),
(420,760,o),
(315,760,cs),
(213,760,o),
(145,695,o),
(145,599,cs),
(145,546,o),
(196,484,o),
(273,394,cs),
(534,89,ls),
(585,30,o),
(651,-10,o),
(700,-10,cs),
(770,-10,o),
(824,53,o),
(836,146,c),
(820,151,l),
(813,96,o),
(780,60,o),
(736,60,cs),
(698,60,o),
(648,90,o),
(610,135,cs),
(349,440,ls),
(272,529,o),
(221,591,o),
(221,644,cs),
(221,702,o),
(259,740,o),
(315,740,cs),
(377,740,o),
(419,690,o),
(419,616,cs),
(419,550,o),
(375,493,o),
(309,473,c)
);
}
);
width = 845;
},
{
layerId = "B523A5AF-871D-4AB2-9BF1-E01A824009A4";
shapes = (
{
closed = 1;
nodes = (
(711,500,l),
(614,233,o),
(444,55,o),
(286,55,cs),
(184,55,o),
(117,121,o),
(117,221,cs),
(117,325,o),
(174,411,o),
(258,437,c),
(246,441,l),
(125,404,o),
(44,307,o),
(44,200,cs),
(44,74,o),
(124,-10,o),
(245,-10,cs),
(423,-10,o),
(616,194,o),
(727,500,c)
);
},
{
closed = 1;
nodes = (
(318,464,l),
(415,493,o),
(480,553,o),
(480,612,cs),
(480,701,o),
(414,760,o),
(315,760,cs),
(215,760,o),
(149,696,o),
(149,601,cs),
(149,554,o),
(202,491,o),
(280,399,cs),
(541,94,ls),
(595,31,o),
(658,-10,o),
(700,-10,cs),
(768,-10,o),
(822,53,o),
(833,147,c),
(821,151,l),
(813,89,o),
(776,47,o),
(729,47,cs),
(696,47,o),
(645,80,o),
(603,130,cs),
(342,435,ls),
(263,528,o),
(210,591,o),
(210,638,cs),
(210,701,o),
(252,744,o),
(315,744,cs),
(380,744,o),
(423,693,o),
(423,616,cs),
(423,550,o),
(378,492,o),
(310,472,c)
);
}
);
width = 843;
},
{
layerId = "D3C24151-4D63-4841-9665-5260E3226900";
shapes = (
{
closed = 1;
nodes = (
(709,500,l),
(618,250,o),
(455,83,o),
(303,83,cs),
(206,83,o),
(141,141,o),
(141,228,cs),
(141,330,o),
(190,413,o),
(262,436,c),
(245,441,l),
(119,403,o),
(36,306,o),
(36,197,cs),
(36,73,o),
(120,-10,o),
(245,-10,cs),
(426,-10,o),
(621,194,o),
(733,500,c)
);
},
{
closed = 1;
nodes = (
(321,461,l),
(428,494,o),
(499,554,o),
(499,611,cs),
(499,700,o),
(425,760,o),
(315,760,cs),
(211,760,o),
(142,695,o),
(142,597,cs),
(142,539,o),
(192,478,o),
(267,391,cs),
(528,86,ls),
(577,28,o),
(646,-10,o),
(700,-10,cs),
(771,-10,o),
(826,52,o),
(837,146,c),
(820,151,l),
(814,104,o),
(783,72,o),
(742,72,cs),
(700,72,o),
(650,99,o),
(616,138,cs),
(355,443,ls),
(280,531,o),
(230,592,o),
(230,650,cs),
(230,701,o),
(264,736,o),
(315,736,cs),
(376,736,o),
(416,688,o),
(416,616,cs),
(416,550,o),
(373,493,o),
(309,473,c)
);
}
);
width = 847;
},
{
layerId = "8EEC74F5-9CFA-47B4-A8F8-9A6461F2D63F";
shapes = (
{
closed = 1;
nodes = (
(708,500,l),
(620,258,o),
(461,97,o),
(312,97,cs),
(216,97,o),
(153,151,o),
(153,231,cs),
(153,333,o),
(198,415,o),
(264,435,c),
(244,442,l),
(117,403,o),
(32,305,o),
(32,196,cs),
(32,73,o),
(117,-10,o),
(245,-10,cs),
(428,-10,o),
(624,194,o),
(735,500,c)
);
},
{
closed = 1;
nodes = (
(322,460,l),
(434,494,o),
(508,554,o),
(508,610,cs),
(508,700,o),
(431,760,o),
(315,760,cs),
(209,760,o),
(139,694,o),
(139,595,cs),
(139,532,o),
(188,472,o),
(261,387,cs),
(522,82,ls),
(569,27,o),
(640,-10,o),
(700,-10,cs),
(772,-10,o),
(828,52,o),
(839,145,c),
(819,152,l),
(814,111,o),
(786,84,o),
(748,84,cs),
(702,84,o),
(652,107,o),
(622,142,cs),
(361,447,ls),
(289,533,o),
(240,593,o),
(240,655,cs),
(240,702,o),
(270,733,o),
(315,733,cs),
(374,733,o),
(413,686,o),
(413,617,cs),
(413,550,o),
(371,492,o),
(309,473,c)
);
}
);
width = 849;
}
);
note = ampersand;
unicode = 38;
},
{
glyphname = quotesingle;
lastChange = "2026-03-02 14:27:18 +0000";
layers = (
{
layerId = "E059459B-5795-442B-8710-0018C46129BA";
shapes = (
{
closed = 1;
nodes = (
(75,755,o),
(66,735,o),
(70,704,cs),
(91,544,l),
(99,544,l),
(120,704,ls),
(124,735,o),
(115,755,o),
(97,755,cs),
(93,755,ls)
);
}
);
width = 190;
},
{
layerId = "261B483D-14CB-4AC5-AE3A-41E540C8643C";
shapes = (
{
closed = 1;
nodes = (
(77,755,o),
(62,723,o),
(72,676,cs),
(105,516,l),
(118,516,l),
(151,676,ls),
(161,723,o),
(146,755,o),
(114,755,cs),
(109,755,ls)
);
}
);
width = 222;
},
{
layerId = "B523A5AF-871D-4AB2-9BF1-E01A824009A4";
shapes = (
{
closed = 1;
nodes = (
(76,755,o),
(64,729,o),
(71,691,cs),
(98,531,l),
(108,531,l),
(135,691,ls),
(142,729,o),
(130,755,o),
(105,755,cs),
(101,755,ls)
);
}
);
width = 205;
},
{
layerId = "D3C24151-4D63-4841-9665-5260E3226900";
shapes = (
{
closed = 1;
nodes = (
(77,755,o),
(60,718,o),
(73,663,cs),
(112,503,l),
(126,503,l),
(165,663,ls),
(178,718,o),
(161,755,o),
(122,755,cs),
(116,755,ls)
);
}
);
width = 238;
},
{
layerId = "8EEC74F5-9CFA-47B4-A8F8-9A6461F2D63F";
shapes = (
{
closed = 1;
nodes = (
(77,755,o),
(57,713,o),
(74,649,cs),
(119,489,l),
(135,489,l),
(180,649,ls),
(197,713,o),
(178,755,o),
(131,755,cs),
(124,755,ls)
);
}
);
width = 254;
}
);
note = quotesingle;
unicode = 39;
},
{
glyphname = parenleft;
lastChange = "2026-03-02 14:27:18 +0000";
layers = (
{
layerId = "E059459B-5795-442B-8710-0018C46129BA";
shapes = (
{
closed = 1;
nodes = (
(185,644,o),
(90,449,o),
(90,273,cs),
(90,96,o),
(185,-99,o),
(328,-214,c),
(333,-208,l),
(211,-109,o),
(129,83,o),
(129,273,cs),
(129,463,o),
(211,655,o),
(333,754,c),
(328,760,l)
);
}
);
width = 313;
},
{
layerId = "261B483D-14CB-4AC5-AE3A-41E540C8643C";
shapes = (
{
closed = 1;
nodes = (
(185,644,o),
(90,449,o),
(90,273,cs),
(90,96,o),
(185,-99,o),
(328,-214,c),
(336,-205,l),
(225,-115,o),
(151,76,o),
(151,273,cs),
(151,470,o),
(225,661,o),
(336,751,c),
(328,760,l)
);
}
);
width = 316;
},
{
layerId = "B523A5AF-871D-4AB2-9BF1-E01A824009A4";
shapes = (
{
closed = 1;
nodes = (
(185,644,o),
(90,449,o),
(90,273,cs),
(90,96,o),
(185,-99,o),
(328,-214,c),
(335,-207,l),
(217,-112,o),
(139,80,o),
(139,273,cs),
(139,466,o),
(217,658,o),
(335,752,c),
(328,760,l)
);
}
);
width = 314;
},
{
layerId = "D3C24151-4D63-4841-9665-5260E3226900";
shapes = (
{
closed = 1;
nodes = (
(185,644,o),
(90,449,o),
(90,273,cs),
(90,96,o),
(185,-99,o),
(328,-214,c),
(337,-203,l),
(232,-118,o),
(161,73,o),
(161,273,cs),
(161,473,o),
(232,663,o),
(337,749,c),
(328,760,l)
);
}
);
width = 317;
},
{
layerId = "8EEC74F5-9CFA-47B4-A8F8-9A6461F2D63F";
shapes = (
{
closed = 1;
nodes = (
(185,644,o),
(90,449,o),
(90,273,cs),
(90,96,o),
(185,-99,o),
(328,-214,c),
(339,-202,l),
(238,-120,o),
(171,70,o),
(171,273,cs),
(171,476,o),
(238,666,o),
(339,747,c),
(328,760,l)
);
}
);
width = 318;
}
);
note = parenleft;
unicode = 40;
},
{
glyphname = parenright;
lastChange = "2026-03-02 14:27:18 +0000";
layers = (
{
layerId = "E059459B-5795-442B-8710-0018C46129BA";
shapes = (
{
closed = 1;
nodes = (
(94,653,o),
(174,460,o),
(174,273,cs),
(174,80,o),
(94,-115,o),
(-25,-214,c),
(-20,-220,l),
(120,-103,o),
(213,94,o),
(213,273,cs),
(213,446,o),
(120,641,o),
(-20,760,c),
(-25,754,l)
);
}
);
width = 303;
},
{
layerId = "261B483D-14CB-4AC5-AE3A-41E540C8643C";
shapes = (
{
closed = 1;
nodes = (
(84,656,o),
(158,465,o),
(158,273,cs),
(158,73,o),
(84,-122,o),
(-28,-214,c),
(-20,-224,l),
(123,-105,o),
(219,94,o),
(219,273,cs),
(219,443,o),
(123,638,o),
(-20,760,c),
(-28,751,l)
);
}
);
width = 308;
},
{
layerId = "B523A5AF-871D-4AB2-9BF1-E01A824009A4";
shapes = (
{
closed = 1;
nodes = (
(89,654,o),
(166,463,o),
(166,273,cs),
(166,77,o),
(89,-118,o),
(-26,-214,c),
(-20,-222,l),
(122,-104,o),
(216,94,o),
(216,273,cs),
(216,445,o),
(122,640,o),
(-20,760,c),
(-26,752,l)
);
}
);
width = 305;
},
{
layerId = "D3C24151-4D63-4841-9665-5260E3226900";
shapes = (
{
closed = 1;
nodes = (
(78,658,o),
(150,467,o),
(150,273,cs),
(150,70,o),
(78,-125,o),
(-29,-214,c),
(-20,-225,l),
(125,-106,o),
(221,94,o),
(221,273,cs),
(221,442,o),
(125,637,o),
(-20,760,c),
(-29,749,l)
);
}
);
width = 311;
},
{
layerId = "8EEC74F5-9CFA-47B4-A8F8-9A6461F2D63F";
shapes = (
{
closed = 1;
nodes = (
(74,660,o),
(143,470,o),
(143,273,cs),
(143,66,o),
(74,-129,o),
(-31,-214,c),
(-20,-227,l),
(126,-107,o),
(224,93,o),
(224,273,cs),
(224,441,o),
(126,636,o),
(-20,760,c),
(-31,748,l)
);
}
);
width = 313;
}
);
note = parenright;
unicode = 41;
},
{
glyphname = asterisk;
lastChange = "2026-03-02 22:18:30 +0000";
layers = (
{
layerId = "E059459B-5795-442B-8710-0018C46129BA";
shapes = (
{
closed = 1;
nodes = (
(200,750,l),
(202,763,o),
(195,772,o),
(183,772,cs),
(171,772,o),
(164,763,o),
(166,750,c)
);
},
{
closed = 1;
nodes = (
(164,497,o),
(171,488,o),
(183,488,cs),
(195,488,o),
(202,497,o),
(200,510,c),
(166,510,l)
);
},
{
closed = 1;
nodes = (
(88,705,l),
(77,713,o),
(66,711,o),
(60,701,cs),
(54,691,o),
(58,680,o),
(71,675,c)
);
},
{
closed = 1;
nodes = (
(289,547,o),
(300,549,o),
(306,559,cs),
(312,569,o),
(308,580,o),
(295,585,c),
(278,555,l)
);
},
{
closed = 1;
nodes = (
(71,585,l),
(58,580,o),
(54,569,o),
(60,559,cs),
(66,549,o),
(77,547,o),
(88,555,c)
);
},
{
closed = 1;
nodes = (
(308,680,o),
(312,691,o),
(306,701,cs),
(300,711,o),
(289,713,o),
(278,705,c),
(295,675,l)
);
},
{
closed = 1;
nodes = (
(181,630,l),
(166,510,l),
(200,510,l),
(185,630,l),
(200,750,l),
(166,750,l)
);
},
{
closed = 1;
nodes = (
(182,629,l),
(278,555,l),
(295,585,l),
(184,631,l),
(88,705,l),
(71,675,l)
);
},
{
closed = 1;
nodes = (
(184,629,l),
(295,675,l),
(278,705,l),
(182,631,l),
(71,585,l),
(88,555,l)
);
}
);
width = 366;
},
{
layerId = "261B483D-14CB-4AC5-AE3A-41E540C8643C";
shapes = (
{
closed = 1;
nodes = (
(222,750,l),
(226,770,o),
(216,783,o),
(196,783,cs),
(176,783,o),
(166,770,o),
(170,750,c)
);
},
{
closed = 1;
nodes = (
(166,490,o),
(176,477,o),
(196,477,cs),
(216,477,o),
(226,490,o),
(222,510,c),
(170,510,l)
);
},
{
closed = 1;
nodes = (
(105,713,l),
(90,726,o),
(73,724,o),
(63,707,cs),
(53,689,o),
(60,674,o),
(79,667,c)
);
},
{
closed = 1;
nodes = (
(302,534,o),
(319,536,o),
(329,553,cs),
(339,571,o),
(332,586,o),
(313,593,c),
(287,547,l)
);
},
{
closed = 1;
nodes = (
(79,593,l),
(60,586,o),
(53,571,o),
(63,553,cs),
(73,536,o),
(90,534,o),
(105,547,c)
);
},
{
closed = 1;
nodes = (
(332,674,o),
(339,689,o),
(329,707,cs),
(319,724,o),
(302,726,o),
(287,713,c),
(313,667,l)
);
},
{
closed = 1;
nodes = (
(194,630,l),
(170,510,l),
(222,510,l),
(198,630,l),
(222,750,l),
(170,750,l)
);
},
{
closed = 1;
nodes = (
(195,628,l),
(287,547,l),
(313,593,l),
(197,632,l),
(105,713,l),
(79,667,l)
);
},
{
closed = 1;
nodes = (
(197,628,l),
(313,667,l),
(287,713,l),
(195,632,l),
(79,593,l),
(105,547,l)
);
}
);
width = 392;
},
{
layerId = "B523A5AF-871D-4AB2-9BF1-E01A824009A4";
shapes = (
{
closed = 1;
nodes = (
(171,750,l),
(174,766,o),
(166,777,o),
(150,777,cs),
(134,777,o),
(126,766,o),
(129,750,c)
);
},
{
closed = 1;
nodes = (
(126,494,o),
(134,483,o),
(150,483,cs),
(166,483,o),
(174,494,o),
(171,510,c),
(129,510,l)
);
},
{
closed = 1;
nodes = (
(57,709,l),
(44,719,o),
(30,717,o),
(23,704,cs),
(15,690,o),
(20,677,o),
(35,671,c)
);
},
{
closed = 1;
nodes = (
(256,541,o),
(270,543,o),
(277,556,cs),
(285,570,o),
(280,583,o),
(265,589,c),
(243,551,l)
);
},
{
closed = 1;
nodes = (
(35,589,l),
(20,583,o),
(15,570,o),
(23,556,cs),
(30,543,o),
(44,541,o),
(57,551,c)
);
},
{
closed = 1;
nodes = (
(280,677,o),
(285,690,o),
(277,704,cs),
(270,717,o),
(256,719,o),
(243,709,c),
(265,671,l)
);
},
{
closed = 1;
nodes = (
(148,630,l),
(129,510,l),
(171,510,l),
(152,630,l),
(171,750,l),
(129,750,l)
);
},
{
closed = 1;
nodes = (
(149,628,l),
(243,551,l),
(265,589,l),
(151,632,l),
(57,709,l),
(35,671,l)
);
},
{
closed = 1;
nodes = (
(151,628,l),
(265,671,l),
(243,709,l),
(149,632,l),
(35,589,l),
(57,551,l)
);
}
);
width = 284;
},
{
layerId = "D3C24151-4D63-4841-9665-5260E3226900";
shapes = (
{
closed = 1;
nodes = (
(230,750,l),
(235,771,o),
(222,785,o),
(199,785,cs),
(176,785,o),
(163,771,o),
(168,750,c)
);
},
{
closed = 1;
nodes = (
(163,489,o),
(176,475,o),
(199,475,cs),
(222,475,o),
(235,489,o),
(230,510,c),
(168,510,l)
);
},
{
closed = 1;
nodes = (
(110,716,l),
(95,731,o),
(76,728,o),
(65,707,cs),
(53,687,o),
(59,670,o),
(80,664,c)
);
},
{
closed = 1;
nodes = (
(303,529,o),
(322,532,o),
(333,552,cs),
(345,573,o),
(339,590,o),
(318,596,c),
(288,544,l)
);
},
{
closed = 1;
nodes = (
(80,596,l),
(59,590,o),
(53,573,o),
(65,552,cs),
(76,532,o),
(95,529,o),
(110,544,c)
);
},
{
closed = 1;
nodes = (
(339,670,o),
(345,687,o),
(333,707,cs),
(322,728,o),
(303,731,o),
(288,716,c),
(318,664,l)
);
},
{
closed = 1;
nodes = (
(196,630,l),
(168,510,l),
(230,510,l),
(202,630,l),
(230,750,l),
(168,750,l)
);
},
{
closed = 1;
nodes = (
(198,628,l),
(288,544,l),
(318,596,l),
(200,632,l),
(110,716,l),
(80,664,l)
);
},
{
closed = 1;
nodes = (
(200,628,l),
(318,664,l),
(288,716,l),
(198,632,l),
(80,596,l),
(110,544,l)
);
}
);
width = 398;
},
{
layerId = "8EEC74F5-9CFA-47B4-A8F8-9A6461F2D63F";
shapes = (
{
closed = 1;
nodes = (
(185,750,l),
(190,771,o),
(176,785,o),
(150,785,cs),
(124,785,o),
(110,771,o),
(115,750,c)
);
},
{
closed = 1;
nodes = (
(110,489,o),
(124,475,o),
(150,475,cs),
(176,475,o),
(190,489,o),
(185,510,c),
(115,510,l)
);
},
{
closed = 1;
nodes = (
(64,720,l),
(48,736,o),
(29,730,o),
(16,707,cs),
(3,685,o),
(8,665,o),
(29,660,c)
);
},
{
closed = 1;
nodes = (
(252,524,o),
(271,530,o),
(284,552,cs),
(297,575,o),
(292,595,o),
(271,600,c),
(236,540,l)
);
},
{
closed = 1;
nodes = (
(29,600,l),
(8,595,o),
(3,575,o),
(16,552,cs),
(29,530,o),
(48,524,o),
(64,540,c)
);
},
{
closed = 1;
nodes = (
(292,665,o),
(297,685,o),
(284,707,cs),
(271,730,o),
(252,736,o),
(236,720,c),
(271,660,l)
);
},
{
closed = 1;
nodes = (
(147,630,l),
(115,510,l),
(185,510,l),
(153,630,l),
(185,750,l),
(115,750,l)
);
},
{
closed = 1;
nodes = (
(148,627,l),
(236,540,l),
(271,600,l),
(152,633,l),
(64,720,l),
(29,660,l)
);
},
{
closed = 1;
nodes = (
(152,627,l),
(271,660,l),
(236,720,l),
(148,633,l),
(29,600,l),
(64,540,l)
);
}
);
width = 300;
}
);
note = asterisk;
unicode = 42;
},
{
glyphname = plus;
lastChange = "2026-03-02 14:27:18 +0000";
layers = (
{
layerId = "E059459B-5795-442B-8710-0018C46129BA";
shapes = (
{
closed = 1;
nodes = (
(511,230,l),
(511,270,l),
(100,270,l),
(100,230,l)
);
},
{
closed = 1;
nodes = (
(284,45,l),
(327,45,l),
(327,455,l),
(284,455,l)
);
}
);
width = 610;
},
{
layerId = "261B483D-14CB-4AC5-AE3A-41E540C8643C";
shapes = (
{
closed = 1;
nodes = (
(511,220,l),
(511,280,l),
(100,280,l),
(100,220,l)
);
},
{
closed = 1;
nodes = (
(272,45,l),
(339,45,l),
(339,455,l),
(272,455,l)
);
}
);
width = 610;
},
{
layerId = "B523A5AF-871D-4AB2-9BF1-E01A824009A4";
shapes = (
{
closed = 1;
nodes = (
(511,225,l),
(511,275,l),
(100,275,l),
(100,225,l)
);
},
{
closed = 1;
nodes = (
(278,45,l),
(333,45,l),
(333,455,l),
(278,455,l)
);
}
);
width = 610;
},
{
layerId = "D3C24151-4D63-4841-9665-5260E3226900";
shapes = (
{
closed = 1;
nodes = (
(511,215,l),
(511,285,l),
(100,285,l),
(100,215,l)
);
},
{
closed = 1;
nodes = (
(267,45,l),
(344,45,l),
(344,455,l),
(267,455,l)
);
}
);
width = 610;
},
{
layerId = "8EEC74F5-9CFA-47B4-A8F8-9A6461F2D63F";
shapes = (
{
closed = 1;
nodes = (
(511,209,l),
(511,291,l),
(100,291,l),
(100,209,l)
);
},
{
closed = 1;
nodes = (
(261,45,l),
(350,45,l),
(350,455,l),
(261,455,l)
);
}
);
width = 610;
}
);
note = plus;
unicode = 43;
},
{
glyphname = comma;
lastChange = "2026-03-02 14:27:18 +0000";
layers = (
{
layerId = "E059459B-5795-442B-8710-0018C46129BA";
shapes = (
{
closed = 1;
nodes = (
(148,-5,o),
(164,11,o),
(164,34,cs),
(164,57,o),
(148,73,o),
(125,73,cs),
(102,73,o),
(86,57,o),
(86,34,cs),
(86,11,o),
(102,-5,o),
(125,-5,cs)
);
},
{
closed = 1;
nodes = (
(125,45,l),
(140,45,o),
(150,32,o),
(150,13,cs),
(150,-37,o),
(123,-78,o),
(83,-89,c),
(86,-100,l),
(141,-85,o),
(178,-37,o),
(178,17,cs),
(178,51,o),
(157,73,o),
(125,73,c)
);
}
);
width = 229;
},
{
layerId = "261B483D-14CB-4AC5-AE3A-41E540C8643C";
shapes = (
{
closed = 1;
nodes = (
(162,-5,o),
(186,19,o),
(186,56,cs),
(186,92,o),
(162,116,o),
(125,116,cs),
(88,116,o),
(64,92,o),
(64,56,cs),
(64,19,o),
(88,-5,o),
(125,-5,cs)
);
},
{
closed = 1;
nodes = (
(125,73,l),
(148,73,o),
(164,48,o),
(164,11,cs),
(164,-46,o),
(122,-96,o),
(59,-114,c),
(64,-131,l),
(150,-106,o),
(207,-46,o),
(207,19,cs),
(207,77,o),
(174,116,o),
(125,116,c)
);
}
);
width = 250;
},
{
layerId = "B523A5AF-871D-4AB2-9BF1-E01A824009A4";
shapes = (
{
closed = 1;
nodes = (
(154,-5,o),
(174,15,o),
(174,44,cs),
(174,74,o),
(154,94,o),
(125,94,cs),
(96,94,o),
(76,74,o),
(76,44,cs),
(76,15,o),
(96,-5,o),
(125,-5,cs)
);
},
{
closed = 1;
nodes = (
(125,58,l),
(144,58,o),
(157,40,o),
(157,12,cs),
(157,-41,o),
(123,-86,o),
(72,-101,c),
(76,-115,l),
(145,-95,o),
(192,-42,o),
(192,18,cs),
(192,64,o),
(165,94,o),
(125,94,c)
);
}
);
width = 239;
},
{
layerId = "D3C24151-4D63-4841-9665-5260E3226900";
shapes = (
{
closed = 1;
nodes = (
(168,-5,o),
(196,23,o),
(196,66,cs),
(196,108,o),
(168,136,o),
(125,136,cs),
(82,136,o),
(54,108,o),
(54,66,cs),
(54,23,o),
(82,-5,o),
(125,-5,cs)
);
},
{
closed = 1;
nodes = (
(125,86,l),
(154,86,o),
(173,56,o),
(173,11,cs),
(173,-51,o),
(124,-106,o),
(49,-128,c),
(54,-145,l),
(153,-117,o),
(218,-51,o),
(218,19,cs),
(218,89,o),
(181,136,o),
(125,136,c)
);
}
);
width = 260;
},
{
layerId = "8EEC74F5-9CFA-47B4-A8F8-9A6461F2D63F";
shapes = (
{
closed = 1;
nodes = (
(173,-5,o),
(205,27,o),
(205,75,cs),
(205,123,o),
(173,155,o),
(125,155,cs),
(77,155,o),
(45,123,o),
(45,75,cs),
(45,27,o),
(77,-5,o),
(125,-5,cs)
);
},
{
closed = 1;
nodes = (
(125,97,l),
(158,97,o),
(180,62,o),
(180,11,cs),
(180,-57,o),
(124,-118,o),
(40,-143,c),
(45,-160,l),
(156,-128,o),
(230,-56,o),
(230,19,cs),
(230,101,o),
(188,155,o),
(125,155,c)
);
}
);
width = 270;
}
);
note = comma;
unicode = 44;
},
{
glyphname = hyphen;
lastChange = "2026-03-02 14:27:18 +0000";
layers = (
{
layerId = "E059459B-5795-442B-8710-0018C46129BA";
shapes = (
{
closed = 1;
nodes = (
(341,234,l),
(341,280,l),
(80,280,l),
(80,234,l)
);
}
);
width = 420;
},
{
layerId = "261B483D-14CB-4AC5-AE3A-41E540C8643C";
shapes = (
{
closed = 1;
nodes = (
(341,222,l),
(341,292,l),
(80,292,l),
(80,222,l)
);
}
);
width = 420;
},
{
layerId = "B523A5AF-871D-4AB2-9BF1-E01A824009A4";
shapes = (
{
closed = 1;
nodes = (
(341,228,l),
(341,286,l),
(80,286,l),
(80,228,l)
);
}
);
width = 420;
},
{
layerId = "D3C24151-4D63-4841-9665-5260E3226900";
shapes = (
{
closed = 1;
nodes = (
(341,216,l),
(341,298,l),
(80,298,l),
(80,216,l)
);
}
);
width = 420;
},
{
layerId = "8EEC74F5-9CFA-47B4-A8F8-9A6461F2D63F";
shapes = (
{
closed = 1;
nodes = (
(341,210,l),
(341,304,l),
(80,304,l),
(80,210,l)
);
}
);
width = 420;
}
);
note = hyphen;
unicode = 45;
},
{
glyphname = period;
lastChange = "2026-03-02 14:27:18 +0000";
layers = (
{
layerId = "E059459B-5795-442B-8710-0018C46129BA";
shapes = (
{
closed = 1;
nodes = (
(148,-5,o),
(164,11,o),
(164,34,cs),
(164,57,o),
(148,73,o),
(125,73,cs),
(102,73,o),
(86,57,o),
(86,34,cs),
(86,11,o),
(102,-5,o),
(125,-5,cs)
);
}
);
width = 229;
},
{
layerId = "261B483D-14CB-4AC5-AE3A-41E540C8643C";
shapes = (
{
closed = 1;
nodes = (
(162,-5,o),
(186,19,o),
(186,56,cs),
(186,92,o),
(162,116,o),
(125,116,cs),
(88,116,o),
(64,92,o),
(64,56,cs),
(64,19,o),
(88,-5,o),
(125,-5,cs)
);
}
);
width = 250;
},
{
layerId = "B523A5AF-871D-4AB2-9BF1-E01A824009A4";
shapes = (
{
closed = 1;
nodes = (
(154,-5,o),
(174,15,o),
(174,44,cs),
(174,74,o),
(154,94,o),
(125,94,cs),
(96,94,o),
(76,74,o),
(76,44,cs),
(76,15,o),
(96,-5,o),
(125,-5,cs)
);
}
);
width = 239;
},
{
layerId = "D3C24151-4D63-4841-9665-5260E3226900";
shapes = (
{
closed = 1;
nodes = (
(168,-5,o),
(196,23,o),
(196,66,cs),
(196,108,o),
(168,136,o),
(125,136,cs),
(82,136,o),
(54,108,o),
(54,66,cs),
(54,23,o),
(82,-5,o),
(125,-5,cs)
);
}
);
width = 260;
},
{
layerId = "8EEC74F5-9CFA-47B4-A8F8-9A6461F2D63F";
shapes = (
{
closed = 1;
nodes = (
(173,-5,o),
(205,27,o),
(205,75,cs),
(205,123,o),
(173,155,o),
(125,155,cs),
(77,155,o),
(45,123,o),
(45,75,cs),
(45,27,o),
(77,-5,o),
(125,-5,cs)
);
}
);
width = 270;
}
);
note = period;
unicode = 46;
},
{
glyphname = slash;
lastChange = "2026-03-02 22:18:30 +0000";
layers = (
{
layerId = "E059459B-5795-442B-8710-0018C46129BA";
shapes = (
{
closed = 1;
nodes = (
(39,-80,l),
(71,-80,l),
(353,770,l),
(321,770,l)
);
}
);
width = 392;
},
{
layerId = "261B483D-14CB-4AC5-AE3A-41E540C8643C";
shapes = (
{
closed = 1;
nodes = (
(39,-80,l),
(89,-80,l),
(371,770,l),
(321,770,l)
);
}
);
width = 410;
},
{
layerId = "B523A5AF-871D-4AB2-9BF1-E01A824009A4";
shapes = (
{
closed = 1;
nodes = (
(31,-80,l),
(73,-80,l),
(355,770,l),
(313,770,l)
);
}
);
width = 384;
},
{
layerId = "D3C24151-4D63-4841-9665-5260E3226900";
shapes = (
{
closed = 1;
nodes = (
(39,-80,l),
(97,-80,l),
(379,770,l),
(321,770,l)
);
}
);
width = 418;
},
{
layerId = "8EEC74F5-9CFA-47B4-A8F8-9A6461F2D63F";
shapes = (
{
closed = 1;
nodes = (
(18,-80,l),
(86,-80,l),
(368,770,l),
(300,770,l)
);
}
);
width = 397;
}
);
note = slash;
unicode = 47;
},
{
glyphname = zero;
lastChange = "2026-03-02 22:18:30 +0000";
layers = (
{
layerId = "E059459B-5795-442B-8710-0018C46129BA";
shapes = (
{
closed = 1;
nodes = (
(55,94,o),
(173,-10,o),
(312,-10,cs),
(466,-10,o),
(569,110,o),
(569,250,cs),
(569,406,o),
(451,510,o),
(312,510,cs),
(158,510,o),
(55,390,o),
(55,250,cs)
);
},
{
closed = 1;
nodes = (
(190,17,o),
(86,111,o),
(86,250,cs),
(86,376,o),
(176,483,o),
(312,483,cs),
(434,483,o),
(538,389,o),
(538,250,cs),
(538,124,o),
(448,17,o),
(312,17,cs)
);
}
);
width = 624;
},
{
layerId = "261B483D-14CB-4AC5-AE3A-41E540C8643C";
shapes = (
{
closed = 1;
nodes = (
(55,94,o),
(175,-10,o),
(315,-10,cs),
(471,-10,o),
(575,110,o),
(575,250,cs),
(575,406,o),
(455,510,o),
(315,510,cs),
(159,510,o),
(55,390,o),
(55,250,cs)
);
},
{
closed = 1;
nodes = (
(197,27,o),
(97,116,o),
(97,250,cs),
(97,371,o),
(184,473,o),
(315,473,cs),
(433,473,o),
(533,384,o),
(533,250,cs),
(533,130,o),
(446,27,o),
(315,27,cs)
);
}
);
width = 630;
},
{
layerId = "B523A5AF-871D-4AB2-9BF1-E01A824009A4";
shapes = (
{
closed = 1;
nodes = (
(47,94,o),
(166,-10,o),
(305,-10,cs),
(460,-10,o),
(563,110,o),
(563,250,cs),
(563,406,o),
(444,510,o),
(305,510,cs),
(150,510,o),
(47,390,o),
(47,250,cs)
);
},
{
closed = 1;
nodes = (
(186,22,o),
(83,113,o),
(83,250,cs),
(83,373,o),
(172,478,o),
(305,478,cs),
(425,478,o),
(527,387,o),
(527,250,cs),
(527,127,o),
(438,22,o),
(305,22,cs)
);
}
);
width = 608;
},
{
layerId = "D3C24151-4D63-4841-9665-5260E3226900";
shapes = (
{
closed = 1;
nodes = (
(55,94,o),
(176,-10,o),
(317,-10,cs),
(474,-10,o),
(579,110,o),
(579,250,cs),
(579,406,o),
(458,510,o),
(317,510,cs),
(160,510,o),
(55,390,o),
(55,250,cs)
);
},
{
closed = 1;
nodes = (
(201,31,o),
(102,119,o),
(102,250,cs),
(102,368,o),
(188,469,o),
(317,469,cs),
(433,469,o),
(532,381,o),
(532,250,cs),
(532,132,o),
(446,31,o),
(317,31,cs)
);
}
);
width = 634;
},
{
layerId = "8EEC74F5-9CFA-47B4-A8F8-9A6461F2D63F";
shapes = (
{
closed = 1;
nodes = (
(41,94,o),
(162,-10,o),
(305,-10,cs),
(463,-10,o),
(569,110,o),
(569,250,cs),
(569,406,o),
(448,510,o),
(305,510,cs),
(147,510,o),
(41,390,o),
(41,250,cs)
);
},
{
closed = 1;
nodes = (
(192,37,o),
(96,122,o),
(96,250,cs),
(96,365,o),
(180,463,o),
(305,463,cs),
(418,463,o),
(514,378,o),
(514,250,cs),
(514,135,o),
(430,37,o),
(305,37,cs)
);
}
);
width = 613;
}
);
note = zero;
unicode = 48;
},
{
glyphname = one;
lastChange = "2026-03-02 22:18:30 +0000";
layers = (
{
layerId = "E059459B-5795-442B-8710-0018C46129BA";
shapes = (
{
closed = 1;
nodes = (
(184,38,l),
(184,462,l),
(129,462,l),
(129,38,l)
);
},
{
closed = 1;
nodes = (
(129,38,l),
(129,34,o),
(102,33,o),
(62,33,cs),
(46,33,l),
(46,33,o),
(46,26,o),
(46,16,cs),
(46,7,o),
(46,0,o),
(46,0,c),
(157,0,l),
(267,0,l),
(267,0,o),
(267,7,o),
(267,16,cs),
(267,26,o),
(267,33,o),
(267,33,c),
(251,33,ls),
(211,33,o),
(184,34,o),
(184,38,c)
);
},
{
closed = 1;
nodes = (
(184,466,o),
(211,467,o),
(251,467,cs),
(267,467,l),
(267,467,o),
(267,474,o),
(267,484,cs),
(267,493,o),
(267,500,o),
(267,500,c),
(157,500,l),
(46,500,l),
(46,500,o),
(46,493,o),
(46,484,cs),
(46,474,o),
(46,467,o),
(46,467,c),
(62,467,ls),
(102,467,o),
(129,466,o),
(129,462,c),
(184,462,l)
);
}
);
width = 313;
},
{
layerId = "261B483D-14CB-4AC5-AE3A-41E540C8643C";
shapes = (
{
closed = 1;
nodes = (
(215,38,l),
(215,462,l),
(129,462,l),
(129,38,l)
);
},
{
closed = 1;
nodes = (
(129,38,l),
(129,34,o),
(102,33,o),
(62,33,cs),
(46,33,l),
(46,33,o),
(46,26,o),
(46,16,cs),
(46,7,o),
(46,0,o),
(46,0,c),
(172,0,l),
(298,0,l),
(298,0,o),
(298,7,o),
(298,16,cs),
(298,26,o),
(298,33,o),
(298,33,c),
(282,33,ls),
(242,33,o),
(215,34,o),
(215,38,c)
);
},
{
closed = 1;
nodes = (
(215,466,o),
(242,467,o),
(282,467,cs),
(298,467,l),
(298,467,o),
(298,474,o),
(298,484,cs),
(298,493,o),
(298,500,o),
(298,500,c),
(172,500,l),
(46,500,l),
(46,500,o),
(46,493,o),
(46,484,cs),
(46,474,o),
(46,467,o),
(46,467,c),
(62,467,ls),
(102,467,o),
(129,466,o),
(129,462,c),
(215,462,l)
);
}
);
width = 344;
},
{
layerId = "B523A5AF-871D-4AB2-9BF1-E01A824009A4";
shapes = (
{
closed = 1;
nodes = (
(193,38,l),
(193,462,l),
(123,462,l),
(123,38,l)
);
},
{
closed = 1;
nodes = (
(123,38,l),
(123,34,o),
(96,33,o),
(56,33,cs),
(40,33,l),
(40,33,o),
(40,26,o),
(40,16,cs),
(40,7,o),
(40,0,o),
(40,0,c),
(158,0,l),
(276,0,l),
(276,0,o),
(276,7,o),
(276,16,cs),
(276,26,o),
(276,33,o),
(276,33,c),
(260,33,ls),
(220,33,o),
(193,34,o),
(193,38,c)
);
},
{
closed = 1;
nodes = (
(193,466,o),
(220,467,o),
(260,467,cs),
(276,467,l),
(276,467,o),
(276,474,o),
(276,484,cs),
(276,493,o),
(276,500,o),
(276,500,c),
(158,500,l),
(40,500,l),
(40,500,o),
(40,493,o),
(40,484,cs),
(40,474,o),
(40,467,o),
(40,467,c),
(56,467,ls),
(96,467,o),
(123,466,o),
(123,462,c),
(193,462,l)
);
}
);
width = 315;
},
{
layerId = "D3C24151-4D63-4841-9665-5260E3226900";
shapes = (
{
closed = 1;
nodes = (
(229,38,l),
(229,462,l),
(129,462,l),
(129,38,l)
);
},
{
closed = 1;
nodes = (
(129,38,l),
(129,34,o),
(102,33,o),
(62,33,cs),
(46,33,l),
(46,33,o),
(46,26,o),
(46,16,cs),
(46,7,o),
(46,0,o),
(46,0,c),
(179,0,l),
(312,0,l),
(312,0,o),
(312,7,o),
(312,16,cs),
(312,26,o),
(312,33,o),
(312,33,c),
(296,33,ls),
(256,33,o),
(229,34,o),
(229,38,c)
);
},
{
closed = 1;
nodes = (
(229,466,o),
(256,467,o),
(296,467,cs),
(312,467,l),
(312,467,o),
(312,474,o),
(312,484,cs),
(312,493,o),
(312,500,o),
(312,500,c),
(179,500,l),
(46,500,l),
(46,500,o),
(46,493,o),
(46,484,cs),
(46,474,o),
(46,467,o),
(46,467,c),
(62,467,ls),
(102,467,o),
(129,466,o),
(129,462,c),
(229,462,l)
);
}
);
width = 358;
},
{
layerId = "8EEC74F5-9CFA-47B4-A8F8-9A6461F2D63F";
shapes = (
{
closed = 1;
nodes = (
(238,38,l),
(238,462,l),
(123,462,l),
(123,38,l)
);
},
{
closed = 1;
nodes = (
(123,38,l),
(123,34,o),
(96,33,o),
(56,33,cs),
(40,33,l),
(40,33,o),
(40,26,o),
(40,16,cs),
(40,7,o),
(40,0,o),
(40,0,c),
(180,0,l),
(321,0,l),
(321,0,o),
(321,7,o),
(321,16,cs),
(321,26,o),
(321,33,o),
(321,33,c),
(305,33,ls),
(265,33,o),
(238,34,o),
(238,38,c)
);
},
{
closed = 1;
nodes = (
(238,466,o),
(265,467,o),
(305,467,cs),
(321,467,l),
(321,467,o),
(321,474,o),
(321,484,cs),
(321,493,o),
(321,500,o),
(321,500,c),
(180,500,l),
(40,500,l),
(40,500,o),
(40,493,o),
(40,484,cs),
(40,474,o),
(40,467,o),
(40,467,c),
(56,467,ls),
(96,467,o),
(123,466,o),
(123,462,c),
(238,462,l)
);
}
);
width = 360;
}
);
note = one;
unicode = 49;
},
{
glyphname = two;
lastChange = "2026-03-02 22:18:30 +0000";
layers = (
{
layerId = "E059459B-5795-442B-8710-0018C46129BA";
shapes = (
{
closed = 1;
nodes = (
(90,397,o),
(159,468,o),
(241,468,cs),
(323,468,o),
(378,413,o),
(378,330,cs),
(378,219,o),
(224,105,o),
(43,10,c),
(43,0,l),
(254,112,o),
(433,237,o),
(433,343,cs),
(433,443,o),
(368,510,o),
(270,510,cs),
(168,510,o),
(83,423,o),
(58,294,c),
(70,291,l)
);
},
{
closed = 1;
nodes = (
(429,0,l),
(460,49,l),
(123,49,l),
(43,0,l)
);
},
{
closed = 1;
nodes = (
(344,0,l),
(399,0,l),
(399,0,l),
(398,0,o),
(398,0,o),
(429,0,c),
(438,14,o),
(451,34,o),
(460,49,cs),
(469,63,o),
(481,83,o),
(490,98,c),
(490,98,o),
(485,99,o),
(476,100,cs),
(467,102,o),
(461,103,o),
(461,103,c),
(451,87,ls),
(437,64,o),
(421,49,o),
(388,49,c)
);
}
);
width = 531;
},
{
layerId = "261B483D-14CB-4AC5-AE3A-41E540C8643C";
shapes = (
{
closed = 1;
nodes = (
(93,383,o),
(157,445,o),
(235,445,cs),
(311,445,o),
(361,397,o),
(361,325,cs),
(361,214,o),
(215,106,o),
(44,15,c),
(44,0,l),
(262,115,o),
(447,242,o),
(447,345,cs),
(447,444,o),
(380,510,o),
(280,510,cs),
(172,510,o),
(83,424,o),
(58,294,c),
(75,290,l)
);
},
{
closed = 1;
nodes = (
(435,0,l),
(483,76,l),
(167,76,l),
(44,0,l)
);
},
{
closed = 1;
nodes = (
(333,0,l),
(387,0,l),
(387,0,l),
(387,0,o),
(387,0,o),
(435,0,c),
(447,19,o),
(462,44,o),
(474,62,cs),
(486,81,o),
(502,106,o),
(513,125,c),
(513,125,o),
(507,126,o),
(498,127,cs),
(490,129,o),
(484,130,o),
(484,130,c),
(474,114,ls),
(459,91,o),
(444,76,o),
(411,76,c)
);
}
);
width = 554;
},
{
layerId = "B523A5AF-871D-4AB2-9BF1-E01A824009A4";
shapes = (
{
closed = 1;
nodes = (
(78,390,o),
(145,457,o),
(225,457,cs),
(304,457,o),
(356,405,o),
(356,328,cs),
(356,216,o),
(206,106,o),
(30,12,c),
(30,0,l),
(244,113,o),
(426,239,o),
(426,344,cs),
(426,444,o),
(360,510,o),
(261,510,cs),
(156,510,o),
(69,424,o),
(44,294,c),
(59,291,l)
);
},
{
closed = 1;
nodes = (
(419,0,l),
(458,62,l),
(131,62,l),
(30,0,l)
);
},
{
closed = 1;
nodes = (
(326,0,l),
(380,0,l),
(380,0,l),
(380,0,o),
(380,0,o),
(419,0,c),
(429,17,o),
(443,39,o),
(453,55,cs),
(464,72,o),
(478,94,o),
(488,111,c),
(488,111,o),
(482,112,o),
(473,113,cs),
(464,115,o),
(459,116,o),
(458,116,c),
(449,100,ls),
(434,77,o),
(419,62,o),
(385,62,c)
);
}
);
width = 526;
},
{
layerId = "D3C24151-4D63-4841-9665-5260E3226900";
shapes = (
{
closed = 1;
nodes = (
(95,376,o),
(157,434,o),
(232,434,cs),
(305,434,o),
(353,389,o),
(353,323,cs),
(353,212,o),
(211,106,o),
(44,18,c),
(44,0,l),
(264,117,o),
(452,245,o),
(452,346,cs),
(452,444,o),
(385,510,o),
(284,510,cs),
(173,510,o),
(82,424,o),
(57,294,c),
(78,290,l)
);
},
{
closed = 1;
nodes = (
(437,0,l),
(493,89,l),
(188,89,l),
(44,0,l)
);
},
{
closed = 1;
nodes = (
(328,0,l),
(382,0,l),
(382,0,l),
(382,0,o),
(382,0,o),
(437,0,c),
(450,20,o),
(467,48,o),
(480,69,cs),
(493,89,o),
(510,117,o),
(523,137,c),
(523,137,o),
(517,138,o),
(508,140,cs),
(500,142,o),
(494,143,o),
(494,143,c),
(484,127,ls),
(470,104,o),
(454,89,o),
(421,89,c)
);
}
);
width = 564;
},
{
layerId = "8EEC74F5-9CFA-47B4-A8F8-9A6461F2D63F";
shapes = (
{
closed = 1;
nodes = (
(82,369,o),
(141,423,o),
(215,423,cs),
(284,423,o),
(330,382,o),
(330,320,cs),
(330,210,o),
(192,106,o),
(30,20,c),
(30,0,l),
(254,119,o),
(444,248,o),
(444,347,cs),
(444,445,o),
(376,510,o),
(274,510,cs),
(160,510,o),
(67,424,o),
(42,294,c),
(66,289,l)
);
},
{
closed = 1;
nodes = (
(426,0,l),
(489,102,l),
(195,102,l),
(30,0,l)
);
},
{
closed = 1;
nodes = (
(308,0,l),
(362,0,l),
(362,0,l),
(388,0,o),
(388,0,o),
(426,0,c),
(440,23,o),
(458,53,o),
(473,75,cs),
(487,98,o),
(505,128,o),
(520,151,c),
(520,151,o),
(514,152,o),
(505,153,cs),
(496,155,o),
(491,156,o),
(490,156,c),
(481,140,ls),
(466,117,o),
(451,102,o),
(417,102,c)
);
}
);
width = 544;
}
);
note = two;
unicode = 50;
},
{
glyphname = three;
lastChange = "2026-03-02 22:18:30 +0000";
layers = (
{
layerId = "E059459B-5795-442B-8710-0018C46129BA";
shapes = (
{
closed = 1;
nodes = (
(58,347,l),
(75,422,o),
(136,471,o),
(211,471,cs),
(283,471,o),
(330,429,o),
(330,365,cs),
(330,287,o),
(245,220,o),
(118,167,c),
(118,155,l),
(281,224,o),
(389,302,o),
(389,384,cs),
(389,460,o),
(327,510,o),
(234,510,cs),
(143,510,o),
(68,446,o),
(46,351,c)
);
},
{
closed = 1;
nodes = (
(44,-232,l),
(250,-210,o),
(388,-118,o),
(388,-1,cs),
(388,95,o),
(308,170,o),
(187,187,c),
(118,155,l),
(245,138,o),
(329,69,o),
(329,-17,cs),
(329,-121,o),
(214,-203,o),
(42,-221,c)
);
}
);
width = 443;
},
{
layerId = "261B483D-14CB-4AC5-AE3A-41E540C8643C";
shapes = (
{
closed = 1;
nodes = (
(64,346,l),
(78,408,o),
(134,450,o),
(203,450,cs),
(264,450,o),
(305,412,o),
(305,356,cs),
(305,277,o),
(233,215,o),
(124,170,c),
(124,152,l),
(287,222,o),
(396,301,o),
(396,386,cs),
(396,460,o),
(333,510,o),
(238,510,cs),
(144,510,o),
(67,447,o),
(45,351,c)
);
},
{
closed = 1;
nodes = (
(45,-232,l),
(265,-209,o),
(411,-114,o),
(411,7,cs),
(411,108,o),
(337,186,o),
(227,202,c),
(124,152,l),
(242,136,o),
(320,68,o),
(320,-17,cs),
(320,-118,o),
(209,-198,o),
(42,-215,c)
);
}
);
width = 462;
},
{
layerId = "B523A5AF-871D-4AB2-9BF1-E01A824009A4";
shapes = (
{
closed = 1;
nodes = (
(36,347,l),
(52,415,o),
(111,461,o),
(183,461,cs),
(249,461,o),
(293,421,o),
(293,361,cs),
(293,282,o),
(214,218,o),
(96,168,c),
(96,154,l),
(259,223,o),
(368,301,o),
(368,385,cs),
(368,460,o),
(305,510,o),
(211,510,cs),
(119,510,o),
(43,446,o),
(21,351,c)
);
},
{
closed = 1;
nodes = (
(20,-232,l),
(233,-210,o),
(375,-116,o),
(375,3,cs),
(375,101,o),
(298,178,o),
(182,194,c),
(96,154,l),
(219,137,o),
(301,68,o),
(301,-17,cs),
(301,-120,o),
(188,-200,o),
(18,-218,c)
);
}
);
width = 414;
},
{
layerId = "D3C24151-4D63-4841-9665-5260E3226900";
shapes = (
{
closed = 1;
nodes = (
(67,345,l),
(80,402,o),
(133,440,o),
(199,440,cs),
(256,440,o),
(294,405,o),
(294,352,cs),
(294,273,o),
(227,214,o),
(127,171,c),
(127,151,l),
(291,221,o),
(400,300,o),
(400,386,cs),
(400,461,o),
(336,510,o),
(240,510,cs),
(145,510,o),
(67,447,o),
(46,352,c)
);
},
{
closed = 1;
nodes = (
(46,-232,l),
(272,-208,o),
(423,-111,o),
(423,11,cs),
(423,114,o),
(352,193,o),
(245,208,c),
(127,151,l),
(241,135,o),
(317,67,o),
(317,-17,cs),
(317,-117,o),
(207,-195,o),
(43,-212,c)
);
}
);
width = 473;
},
{
layerId = "8EEC74F5-9CFA-47B4-A8F8-9A6461F2D63F";
shapes = (
{
closed = 1;
nodes = (
(44,345,l),
(55,395,o),
(105,429,o),
(169,429,cs),
(220,429,o),
(255,396,o),
(255,348,cs),
(255,268,o),
(194,211,o),
(104,173,c),
(104,150,l),
(268,219,o),
(377,300,o),
(377,387,cs),
(377,461,o),
(312,510,o),
(215,510,cs),
(119,510,o),
(41,447,o),
(19,352,c)
);
},
{
closed = 1;
nodes = (
(20,-232,l),
(253,-207,o),
(408,-109,o),
(408,15,cs),
(408,121,o),
(339,202,o),
(236,216,c),
(104,150,l),
(213,134,o),
(286,67,o),
(286,-18,cs),
(286,-116,o),
(178,-192,o),
(16,-209,c)
);
}
);
width = 447;
}
);
note = three;
unicode = 51;
},
{
glyphname = four;
lastChange = "2026-03-02 22:18:30 +0000";
layers = (
{
layerId = "E059459B-5795-442B-8710-0018C46129BA";
shapes = (
{
closed = 1;
nodes = (
(430,-220,l),
(430,432,l),
(430,530,l),
(423,530,l),
(374,432,l),
(374,-220,l)
);
},
{
closed = 1;
nodes = (
(602,42,l),
(89,42,l),
(39,10,l),
(39,0,l),
(58,0,l),
(602,0,l)
);
},
{
closed = 1;
nodes = (
(65,10,l),
(423,497,l),
(423,530,l),
(39,10,l)
);
},
{
closed = 1;
nodes = (
(547,0,l),
(566,0,o),
(567,-12,o),
(565,-30,cs),
(562,-46,l),
(562,-46,o),
(569,-46,o),
(579,-46,cs),
(589,-46,o),
(595,-46,o),
(595,-46,c),
(598,-24,o),
(602,4,o),
(605,25,cs),
(608,47,o),
(612,75,o),
(615,96,c),
(615,96,o),
(609,96,o),
(599,96,cs),
(589,96,o),
(582,96,o),
(582,96,c),
(580,80,ls),
(577,57,o),
(569,42,o),
(535,42,c)
);
}
);
width = 659;
},
{
layerId = "261B483D-14CB-4AC5-AE3A-41E540C8643C";
shapes = (
{
closed = 1;
nodes = (
(430,-220,l),
(430,377,l),
(430,530,l),
(419,530,l),
(344,377,l),
(344,-220,l)
);
},
{
closed = 1;
nodes = (
(602,66,l),
(116,66,l),
(39,15,l),
(39,0,l),
(68,0,l),
(602,0,l)
);
},
{
closed = 1;
nodes = (
(79,15,l),
(419,479,l),
(419,530,l),
(39,15,l)
);
},
{
closed = 1;
nodes = (
(547,0,l),
(566,0,o),
(567,-12,o),
(565,-30,cs),
(562,-46,l),
(562,-46,o),
(569,-46,o),
(579,-46,cs),
(589,-46,o),
(595,-46,o),
(595,-46,c),
(599,-21,o),
(604,12,o),
(607,37,cs),
(610,62,o),
(615,95,o),
(618,120,c),
(619,120,o),
(612,120,o),
(602,120,cs),
(592,120,o),
(586,120,o),
(586,120,c),
(583,104,ls),
(580,81,o),
(572,66,o),
(539,66,c)
);
}
);
width = 663;
},
{
layerId = "B523A5AF-871D-4AB2-9BF1-E01A824009A4";
shapes = (
{
closed = 1;
nodes = (
(406,-220,l),
(406,406,l),
(406,530,l),
(397,530,l),
(336,406,l),
(336,-220,l)
);
},
{
closed = 1;
nodes = (
(578,54,l),
(78,54,l),
(15,12,l),
(15,0,l),
(39,0,l),
(578,0,l)
);
},
{
closed = 1;
nodes = (
(48,12,l),
(397,489,l),
(397,530,l),
(15,12,l)
);
},
{
closed = 1;
nodes = (
(523,0,l),
(542,0,o),
(543,-12,o),
(541,-30,cs),
(538,-46,l),
(538,-46,o),
(545,-46,o),
(555,-46,cs),
(565,-46,o),
(571,-46,o),
(571,-46,c),
(575,-22,o),
(579,8,o),
(582,31,cs),
(585,54,o),
(590,84,o),
(593,107,c),
(593,107,o),
(586,107,o),
(576,107,cs),
(567,107,o),
(560,107,o),
(560,107,c),
(558,92,ls),
(555,69,o),
(546,54,o),
(513,54,c)
);
}
);
width = 602;
},
{
layerId = "D3C24151-4D63-4841-9665-5260E3226900";
shapes = (
{
closed = 1;
nodes = (
(431,-220,l),
(431,352,l),
(431,530,l),
(418,530,l),
(331,352,l),
(331,-220,l)
);
},
{
closed = 1;
nodes = (
(603,76,l),
(130,76,l),
(40,18,l),
(40,0,l),
(74,0,l),
(603,0,l)
);
},
{
closed = 1;
nodes = (
(87,18,l),
(418,471,l),
(418,530,l),
(40,18,l)
);
},
{
closed = 1;
nodes = (
(548,0,l),
(567,0,o),
(568,-12,o),
(566,-30,cs),
(563,-46,l),
(563,-46,o),
(570,-46,o),
(580,-46,cs),
(590,-46,o),
(596,-46,o),
(596,-46,c),
(600,-19,o),
(605,16,o),
(608,42,cs),
(612,69,o),
(617,104,o),
(621,130,c),
(621,130,o),
(615,130,o),
(605,130,cs),
(595,130,o),
(588,130,o),
(588,130,c),
(586,115,ls),
(583,91,o),
(574,76,o),
(541,76,c)
);
}
);
width = 666;
},
{
layerId = "8EEC74F5-9CFA-47B4-A8F8-9A6461F2D63F";
shapes = (
{
closed = 1;
nodes = (
(406,-220,l),
(406,325,l),
(406,530,l),
(391,530,l),
(291,325,l),
(291,-220,l)
);
},
{
closed = 1;
nodes = (
(578,88,l),
(118,88,l),
(15,20,l),
(15,0,l),
(54,0,l),
(578,0,l)
);
},
{
closed = 1;
nodes = (
(69,20,l),
(391,462,l),
(391,530,l),
(15,20,l)
);
},
{
closed = 1;
nodes = (
(523,0,l),
(542,0,o),
(543,-12,o),
(541,-30,cs),
(538,-46,l),
(538,-46,o),
(545,-46,o),
(555,-46,cs),
(565,-46,o),
(571,-46,o),
(571,-46,c),
(575,-18,o),
(581,20,o),
(584,48,cs),
(589,76,o),
(594,114,o),
(597,142,c),
(598,142,o),
(591,142,o),
(581,142,cs),
(571,142,o),
(565,142,o),
(565,142,c),
(563,126,ls),
(559,103,o),
(551,88,o),
(518,88,c)
);
}
);
width = 602;
}
);
note = four;
unicode = 52;
},
{
glyphname = five;
lastChange = "2026-03-02 22:18:30 +0000";
layers = (
{
layerId = "E059459B-5795-442B-8710-0018C46129BA";
shapes = (
{
closed = 1;
nodes = (
(251,-208,o),
(383,-96,o),
(383,48,cs),
(383,180,o),
(264,269,o),
(87,269,cs),
(62,269,l),
(46,219,l),
(56,211,l),
(80,211,ls),
(233,211,o),
(334,138,o),
(334,29,cs),
(334,-101,o),
(221,-202,o),
(52,-222,c),
(53,-233,l)
);
},
{
closed = 1;
nodes = (
(65,219,l),
(109,450,l),
(324,452,l),
(333,500,l),
(98,500,l),
(46,219,l)
);
},
{
closed = 1;
nodes = (
(333,500,l),
(340,540,l),
(307,540,l),
(306,529,l),
(302,512,o),
(294,500,o),
(264,500,c)
);
}
);
width = 430;
},
{
layerId = "261B483D-14CB-4AC5-AE3A-41E540C8643C";
shapes = (
{
closed = 1;
nodes = (
(277,-209,o),
(412,-96,o),
(412,50,cs),
(412,186,o),
(291,277,o),
(109,277,cs),
(71,277,l),
(46,200,l),
(62,187,l),
(100,187,ls),
(242,187,o),
(336,121,o),
(336,21,cs),
(336,-103,o),
(231,-199,o),
(74,-218,c),
(75,-234,l)
);
},
{
closed = 1;
nodes = (
(77,200,l),
(115,423,l),
(349,425,l),
(362,500,l),
(99,500,l),
(46,200,l)
);
},
{
closed = 1;
nodes = (
(362,500,l),
(369,540,l),
(336,540,l),
(335,529,l),
(331,512,o),
(323,500,o),
(293,500,c)
);
}
);
width = 459;
},
{
layerId = "B523A5AF-871D-4AB2-9BF1-E01A824009A4";
shapes = (
{
closed = 1;
nodes = (
(260,-209,o),
(393,-96,o),
(393,49,cs),
(393,183,o),
(273,273,o),
(94,273,cs),
(63,273,l),
(43,210,l),
(55,199,l),
(86,199,ls),
(234,199,o),
(332,130,o),
(332,25,cs),
(332,-102,o),
(223,-200,o),
(59,-220,c),
(60,-233,l)
);
},
{
closed = 1;
nodes = (
(67,210,l),
(108,437,l),
(332,439,l),
(343,500,l),
(95,500,l),
(43,210,l)
);
},
{
closed = 1;
nodes = (
(343,500,l),
(350,540,l),
(317,540,l),
(316,529,l),
(312,512,o),
(304,500,o),
(274,500,c)
);
}
);
width = 423;
},
{
layerId = "D3C24151-4D63-4841-9665-5260E3226900";
shapes = (
{
closed = 1;
nodes = (
(286,-210,o),
(422,-95,o),
(422,51,cs),
(422,189,o),
(300,281,o),
(117,281,cs),
(75,281,l),
(46,191,l),
(64,175,l),
(106,176,ls),
(243,176,o),
(334,113,o),
(334,18,cs),
(334,-104,o),
(233,-197,o),
(80,-216,c),
(83,-235,l)
);
},
{
closed = 1;
nodes = (
(81,191,l),
(117,410,l),
(356,413,l),
(372,500,l),
(98,500,l),
(46,191,l)
);
},
{
closed = 1;
nodes = (
(372,500,l),
(379,540,l),
(346,540,l),
(345,529,l),
(341,512,o),
(333,500,o),
(303,500,c)
);
}
);
width = 469;
},
{
layerId = "8EEC74F5-9CFA-47B4-A8F8-9A6461F2D63F";
shapes = (
{
closed = 1;
nodes = (
(266,-210,o),
(403,-95,o),
(403,53,cs),
(403,192,o),
(280,285,o),
(95,285,cs),
(53,285,l),
(20,182,l),
(40,164,l),
(82,164,ls),
(214,164,o),
(302,104,o),
(302,14,cs),
(302,-105,o),
(204,-196,o),
(58,-214,c),
(61,-235,l)
);
},
{
closed = 1;
nodes = (
(60,182,l),
(94,397,l),
(335,400,l),
(353,500,l),
(72,500,l),
(20,182,l)
);
},
{
closed = 1;
nodes = (
(353,500,l),
(360,540,l),
(327,540,l),
(326,529,l),
(322,512,o),
(314,500,o),
(284,500,c)
);
}
);
width = 433;
}
);
note = five;
unicode = 53;
},
{
glyphname = six;
lastChange = "2026-03-02 22:18:30 +0000";
layers = (
{
layerId = "E059459B-5795-442B-8710-0018C46129BA";
shapes = (
{
closed = 1;
nodes = (
(245,688,o),
(52,503,o),
(52,287,cs),
(52,109,o),
(145,-10,o),
(283,-10,cs),
(414,-10,o),
(501,90,o),
(501,239,cs),
(501,374,o),
(411,464,o),
(275,464,cs),
(168,464,o),
(97,388,o),
(97,274,c),
(107,258,l),
(107,372,o),
(172,448,o),
(269,448,cs),
(375,448,o),
(445,366,o),
(445,242,cs),
(445,100,o),
(379,6,o),
(280,6,cs),
(176,6,o),
(107,107,o),
(107,258,cs),
(107,493,o),
(279,687,o),
(538,742,c),
(536,750,l)
);
}
);
width = 577;
},
{
layerId = "261B483D-14CB-4AC5-AE3A-41E540C8643C";
shapes = (
{
closed = 1;
nodes = (
(247,688,o),
(51,504,o),
(51,291,cs),
(51,111,o),
(145,-10,o),
(286,-10,cs),
(419,-10,o),
(507,90,o),
(507,239,cs),
(507,375,o),
(421,466,o),
(293,466,cs),
(190,466,o),
(121,388,o),
(121,271,c),
(136,246,l),
(136,363,o),
(195,441,o),
(283,441,cs),
(366,441,o),
(421,362,o),
(421,243,cs),
(421,106,o),
(365,15,o),
(282,15,cs),
(194,15,o),
(136,107,o),
(136,246,cs),
(136,488,o),
(300,685,o),
(545,737,c),
(542,750,l)
);
}
);
width = 584;
},
{
layerId = "B523A5AF-871D-4AB2-9BF1-E01A824009A4";
shapes = (
{
closed = 1;
nodes = (
(245,688,o),
(50,503,o),
(50,289,cs),
(50,110,o),
(143,-10,o),
(283,-10,cs),
(415,-10,o),
(502,90,o),
(502,239,cs),
(502,375,o),
(414,465,o),
(282,465,cs),
(177,465,o),
(107,388,o),
(107,273,c),
(120,252,l),
(120,368,o),
(182,445,o),
(274,445,cs),
(369,445,o),
(432,364,o),
(432,243,cs),
(432,103,o),
(371,10,o),
(279,10,cs),
(184,10,o),
(120,107,o),
(120,252,cs),
(120,491,o),
(288,686,o),
(540,740,c),
(537,750,l)
);
}
);
width = 554;
},
{
layerId = "D3C24151-4D63-4841-9665-5260E3226900";
shapes = (
{
closed = 1;
nodes = (
(249,687,o),
(51,504,o),
(51,293,cs),
(51,111,o),
(146,-10,o),
(288,-10,cs),
(422,-10,o),
(511,89,o),
(511,239,cs),
(511,376,o),
(427,467,o),
(301,467,cs),
(200,467,o),
(133,388,o),
(133,269,c),
(150,240,l),
(150,359,o),
(206,438,o),
(290,438,cs),
(362,438,o),
(411,360,o),
(411,244,cs),
(411,109,o),
(360,19,o),
(283,19,cs),
(203,19,o),
(150,107,o),
(150,240,cs),
(150,486,o),
(310,684,o),
(549,735,c),
(546,750,l)
);
}
);
width = 588;
},
{
layerId = "8EEC74F5-9CFA-47B4-A8F8-9A6461F2D63F";
shapes = (
{
closed = 1;
nodes = (
(249,686,o),
(50,504,o),
(50,295,cs),
(50,112,o),
(146,-10,o),
(289,-10,cs),
(423,-10,o),
(513,89,o),
(513,238,cs),
(513,376,o),
(431,468,o),
(309,468,cs),
(210,468,o),
(144,388,o),
(144,268,c),
(164,234,l),
(164,355,o),
(217,435,o),
(296,435,cs),
(357,435,o),
(398,359,o),
(398,245,cs),
(398,112,o),
(352,23,o),
(283,23,cs),
(211,23,o),
(164,108,o),
(164,234,cs),
(164,484,o),
(319,683,o),
(553,733,c),
(548,750,l)
);
}
);
width = 567;
}
);
note = six;
unicode = 54;
},
{
glyphname = seven;
lastChange = "2026-03-02 22:18:30 +0000";
layers = (
{
layerId = "E059459B-5795-442B-8710-0018C46129BA";
shapes = (
{
closed = 1;
nodes = (
(169,-220,l),
(447,485,l),
(447,500,l),
(439,500,l),
(93,500,l),
(74,455,l),
(420,455,l),
(447,485,l),
(431,485,l),
(127,-220,l)
);
},
{
closed = 1;
nodes = (
(121,500,o),
(121,510,o),
(128,525,cs),
(133,537,l),
(133,537,o),
(127,537,o),
(117,537,cs),
(107,537,o),
(101,537,o),
(101,537,c),
(91,517,o),
(79,489,o),
(70,469,cs),
(61,449,o),
(49,421,o),
(40,401,c),
(40,401,o),
(46,401,o),
(56,401,cs),
(66,401,o),
(73,401,o),
(73,401,c),
(78,413,ls),
(89,438,o),
(99,455,o),
(108,455,c),
(142,500,l)
);
}
);
width = 488;
},
{
layerId = "261B483D-14CB-4AC5-AE3A-41E540C8643C";
shapes = (
{
closed = 1;
nodes = (
(209,-220,l),
(475,485,l),
(475,500,l),
(462,500,l),
(114,500,l),
(85,430,l),
(433,430,l),
(475,485,l),
(450,485,l),
(143,-220,l)
);
},
{
closed = 1;
nodes = (
(133,500,o),
(132,510,o),
(138,525,cs),
(144,537,l),
(144,537,o),
(137,537,o),
(128,537,cs),
(118,537,o),
(111,537,o),
(111,537,c),
(101,513,o),
(86,481,o),
(75,457,cs),
(65,433,o),
(51,401,o),
(40,376,c),
(40,376,o),
(46,376,o),
(56,376,cs),
(65,376,o),
(72,376,o),
(72,376,c),
(78,388,ls),
(89,413,o),
(98,430,o),
(108,430,c),
(163,500,l)
);
}
);
width = 516;
},
{
layerId = "B523A5AF-871D-4AB2-9BF1-E01A824009A4";
shapes = (
{
closed = 1;
nodes = (
(165,-220,l),
(437,485,l),
(437,500,l),
(427,500,l),
(80,500,l),
(56,443,l),
(403,443,l),
(437,485,l),
(417,485,l),
(112,-220,l)
);
},
{
closed = 1;
nodes = (
(104,500,o),
(103,510,o),
(110,525,cs),
(115,537,l),
(115,537,o),
(109,537,o),
(99,537,cs),
(89,537,o),
(83,537,o),
(83,537,c),
(73,515,o),
(59,485,o),
(50,463,cs),
(40,441,o),
(27,411,o),
(17,389,c),
(17,389,o),
(23,389,o),
(33,389,cs),
(43,389,o),
(50,389,o),
(49,389,c),
(55,401,ls),
(66,426,o),
(75,443,o),
(85,443,c),
(129,500,l)
);
}
);
width = 442;
},
{
layerId = "D3C24151-4D63-4841-9665-5260E3226900";
shapes = (
{
closed = 1;
nodes = (
(227,-220,l),
(488,485,l),
(488,500,l),
(473,500,l),
(124,500,l),
(90,419,l),
(439,419,l),
(488,485,l),
(459,485,l),
(150,-220,l)
);
},
{
closed = 1;
nodes = (
(139,500,o),
(137,510,o),
(144,525,cs),
(149,537,l),
(149,537,o),
(143,537,o),
(133,537,cs),
(123,537,o),
(116,537,o),
(116,537,c),
(105,511,o),
(90,477,o),
(78,451,cs),
(67,425,o),
(51,391,o),
(40,365,c),
(40,365,o),
(46,365,o),
(56,365,cs),
(66,365,o),
(73,365,o),
(72,365,c),
(78,377,ls),
(89,402,o),
(99,419,o),
(108,419,c),
(173,500,l)
);
}
);
width = 529;
},
{
layerId = "8EEC74F5-9CFA-47B4-A8F8-9A6461F2D63F";
shapes = (
{
closed = 1;
nodes = (
(192,-220,l),
(447,485,l),
(447,500,l),
(430,500,l),
(80,500,l),
(41,406,l),
(391,406,l),
(447,485,l),
(413,485,l),
(104,-220,l)
);
},
{
closed = 1;
nodes = (
(90,500,o),
(88,510,o),
(95,525,cs),
(100,537,l),
(100,537,o),
(93,537,o),
(84,537,cs),
(74,537,o),
(67,537,o),
(67,537,c),
(55,510,o),
(39,473,o),
(26,445,cs),
(14,417,o),
(-2,380,o),
(-15,353,c),
(-15,353,o),
(-8,353,o),
(1,353,cs),
(11,353,o),
(18,353,o),
(18,353,c),
(23,365,ls),
(34,390,o),
(43,406,o),
(53,406,c),
(129,500,l)
);
}
);
width = 451;
}
);
note = seven;
unicode = 55;
},
{
glyphname = eight;
lastChange = "2026-03-02 22:18:30 +0000";
layers = (
{
layerId = "E059459B-5795-442B-8710-0018C46129BA";
shapes = (
{
closed = 1;
nodes = (
(279,395,l),
(394,437,o),
(471,518,o),
(471,597,cs),
(471,695,o),
(391,760,o),
(271,760,cs),
(153,760,o),
(75,689,o),
(75,583,cs),
(75,493,o),
(147,417,o),
(255,373,cs),
(375,323,o),
(455,270,o),
(455,164,cs),
(455,67,o),
(382,3,o),
(273,3,cs),
(168,3,o),
(98,71,o),
(98,174,cs),
(98,270,o),
(159,356,o),
(251,390,c),
(251,402,l),
(130,358,o),
(50,267,o),
(50,174,cs),
(50,64,o),
(139,-10,o),
(273,-10,cs),
(407,-10,o),
(497,69,o),
(497,188,cs),
(497,309,o),
(409,369,o),
(276,424,cs),
(182,463,o),
(119,528,o),
(119,604,cs),
(119,690,o),
(180,747,o),
(271,747,cs),
(362,747,o),
(423,685,o),
(423,592,cs),
(423,512,o),
(365,438,o),
(279,407,c)
);
}
);
width = 547;
},
{
layerId = "261B483D-14CB-4AC5-AE3A-41E540C8643C";
shapes = (
{
closed = 1;
nodes = (
(283,392,l),
(400,435,o),
(478,517,o),
(478,598,cs),
(478,695,o),
(397,760,o),
(275,760,cs),
(155,760,o),
(76,688,o),
(76,580,cs),
(76,482,o),
(146,402,o),
(252,358,cs),
(364,313,o),
(438,261,o),
(438,154,cs),
(438,67,o),
(373,10,o),
(277,10,cs),
(186,10,o),
(125,76,o),
(125,174,cs),
(125,273,o),
(177,358,o),
(255,386,c),
(255,406,l),
(132,362,o),
(50,269,o),
(50,174,cs),
(50,64,o),
(141,-10,o),
(277,-10,cs),
(413,-10,o),
(504,71,o),
(504,191,cs),
(504,322,o),
(416,383,o),
(285,438,cs),
(201,473,o),
(145,535,o),
(145,612,cs),
(145,689,o),
(197,740,o),
(275,740,cs),
(353,740,o),
(405,680,o),
(405,590,cs),
(405,508,o),
(356,436,o),
(283,410,c)
);
}
);
width = 554;
},
{
layerId = "B523A5AF-871D-4AB2-9BF1-E01A824009A4";
shapes = (
{
closed = 1;
nodes = (
(273,394,l),
(390,436,o),
(467,517,o),
(467,598,cs),
(467,695,o),
(386,760,o),
(265,760,cs),
(147,760,o),
(68,689,o),
(68,581,cs),
(68,487,o),
(139,410,o),
(246,366,cs),
(362,318,o),
(439,266,o),
(439,159,cs),
(439,67,o),
(370,6,o),
(267,6,cs),
(169,6,o),
(104,73,o),
(104,174,cs),
(104,271,o),
(161,357,o),
(245,388,c),
(245,404,l),
(124,360,o),
(43,268,o),
(43,174,cs),
(43,64,o),
(133,-10,o),
(267,-10,cs),
(403,-10,o),
(493,70,o),
(493,190,cs),
(493,315,o),
(405,376,o),
(273,430,cs),
(184,467,o),
(124,531,o),
(124,608,cs),
(124,689,o),
(181,744,o),
(265,744,cs),
(350,744,o),
(407,683,o),
(407,591,cs),
(407,511,o),
(354,438,o),
(273,408,c)
);
}
);
width = 532;
},
{
layerId = "D3C24151-4D63-4841-9665-5260E3226900";
shapes = (
{
closed = 1;
nodes = (
(284,391,l),
(402,433,o),
(481,516,o),
(481,598,cs),
(481,695,o),
(399,760,o),
(276,760,cs),
(156,760,o),
(76,687,o),
(76,579,cs),
(76,477,o),
(146,395,o),
(251,352,cs),
(358,307,o),
(430,257,o),
(430,149,cs),
(430,67,o),
(369,13,o),
(278,13,cs),
(193,13,o),
(137,77,o),
(137,174,cs),
(137,274,o),
(185,358,o),
(256,384,c),
(256,408,l),
(132,363,o),
(50,269,o),
(50,174,cs),
(50,64,o),
(141,-10,o),
(278,-10,cs),
(415,-10,o),
(506,71,o),
(506,193,cs),
(506,328,o),
(419,390,o),
(289,444,cs),
(209,477,o),
(156,539,o),
(156,616,cs),
(156,689,o),
(204,737,o),
(276,737,cs),
(348,737,o),
(396,678,o),
(396,589,cs),
(396,507,o),
(351,436,o),
(284,411,c)
);
}
);
width = 557;
},
{
layerId = "8EEC74F5-9CFA-47B4-A8F8-9A6461F2D63F";
shapes = (
{
closed = 1;
nodes = (
(268,389,l),
(387,432,o),
(467,516,o),
(467,599,cs),
(467,695,o),
(384,760,o),
(260,760,cs),
(139,760,o),
(59,687,o),
(59,577,cs),
(59,471,o),
(128,387,o),
(232,345,cs),
(335,302,o),
(404,253,o),
(404,144,cs),
(404,68,o),
(347,17,o),
(262,17,cs),
(185,17,o),
(133,80,o),
(133,174,cs),
(133,276,o),
(176,359,o),
(240,383,c),
(240,409,l),
(116,364,o),
(33,270,o),
(33,174,cs),
(33,64,o),
(125,-10,o),
(262,-10,cs),
(400,-10,o),
(492,72,o),
(492,195,cs),
(492,335,o),
(406,398,o),
(276,451,cs),
(201,482,o),
(151,543,o),
(151,620,cs),
(151,688,o),
(195,733,o),
(260,733,cs),
(325,733,o),
(369,675,o),
(369,588,cs),
(369,505,o),
(329,435,o),
(268,413,c)
);
}
);
width = 531;
}
);
note = eight;
unicode = 56;
},
{
glyphname = nine;
lastChange = "2026-03-02 22:18:30 +0000";
layers = (
{
layerId = "E059459B-5795-442B-8710-0018C46129BA";
shapes = (
{
closed = 1;
nodes = (
(331,-188,o),
(525,-3,o),
(525,213,cs),
(525,391,o),
(432,510,o),
(293,510,cs),
(163,510,o),
(76,410,o),
(76,261,cs),
(76,126,o),
(166,36,o),
(301,36,cs),
(408,36,o),
(479,112,o),
(479,226,c),
(469,242,l),
(470,128,o),
(405,52,o),
(307,52,cs),
(202,52,o),
(132,134,o),
(131,258,cs),
(132,400,o),
(197,494,o),
(296,494,cs),
(400,494,o),
(470,393,o),
(469,242,cs),
(470,7,o),
(297,-187,o),
(39,-242,c),
(41,-250,l)
);
}
);
width = 577;
},
{
layerId = "261B483D-14CB-4AC5-AE3A-41E540C8643C";
shapes = (
{
closed = 1;
nodes = (
(337,-188,o),
(533,-4,o),
(533,209,cs),
(533,389,o),
(439,510,o),
(298,510,cs),
(166,510,o),
(77,410,o),
(77,261,cs),
(77,125,o),
(163,34,o),
(292,34,cs),
(395,34,o),
(463,112,o),
(463,229,c),
(448,254,l),
(448,137,o),
(390,59,o),
(301,59,cs),
(219,59,o),
(163,138,o),
(163,257,cs),
(163,394,o),
(219,485,o),
(303,485,cs),
(390,485,o),
(448,393,o),
(448,254,cs),
(448,12,o),
(285,-185,o),
(39,-237,c),
(42,-250,l)
);
}
);
width = 584;
},
{
layerId = "B523A5AF-871D-4AB2-9BF1-E01A824009A4";
shapes = (
{
closed = 1;
nodes = (
(310,-188,o),
(505,-3,o),
(505,211,cs),
(505,390,o),
(411,510,o),
(271,510,cs),
(140,510,o),
(53,410,o),
(53,261,cs),
(53,125,o),
(141,35,o),
(273,35,cs),
(378,35,o),
(448,112,o),
(447,227,c),
(435,248,l),
(435,132,o),
(373,55,o),
(281,55,cs),
(186,55,o),
(123,136,o),
(122,257,cs),
(123,397,o),
(184,490,o),
(275,490,cs),
(371,490,o),
(435,393,o),
(435,248,cs),
(435,9,o),
(267,-186,o),
(15,-240,c),
(18,-250,l)
);
}
);
width = 554;
},
{
layerId = "D3C24151-4D63-4841-9665-5260E3226900";
shapes = (
{
closed = 1;
nodes = (
(339,-187,o),
(537,-4,o),
(537,207,cs),
(537,389,o),
(442,510,o),
(300,510,cs),
(166,510,o),
(77,411,o),
(78,261,cs),
(77,124,o),
(161,33,o),
(287,33,cs),
(388,33,o),
(455,112,o),
(455,231,c),
(438,260,l),
(438,141,o),
(382,62,o),
(299,62,cs),
(226,62,o),
(177,140,o),
(178,256,cs),
(177,391,o),
(229,481,o),
(306,481,cs),
(385,481,o),
(438,393,o),
(438,260,cs),
(438,14,o),
(279,-184,o),
(39,-235,c),
(43,-250,l)
);
}
);
width = 588;
},
{
layerId = "8EEC74F5-9CFA-47B4-A8F8-9A6461F2D63F";
shapes = (
{
closed = 1;
nodes = (
(318,-186,o),
(518,-4,o),
(518,205,cs),
(518,388,o),
(422,510,o),
(279,510,cs),
(144,510,o),
(54,411,o),
(54,262,cs),
(54,124,o),
(136,32,o),
(259,32,cs),
(358,32,o),
(423,112,o),
(423,232,c),
(403,266,l),
(403,145,o),
(351,65,o),
(272,65,cs),
(210,65,o),
(169,141,o),
(169,255,cs),
(169,388,o),
(216,477,o),
(285,477,cs),
(356,477,o),
(403,392,o),
(403,266,cs),
(403,16,o),
(248,-183,o),
(15,-233,c),
(19,-250,l)
);
}
);
width = 567;
}
);
note = nine;
unicode = 57;
},
{
glyphname = colon;
lastChange = "2026-03-02 14:27:18 +0000";
layers = (
{
layerId = "E059459B-5795-442B-8710-0018C46129BA";
shapes = (
{
closed = 1;
nodes = (
(148,-5,o),
(164,11,o),
(164,34,cs),
(164,57,o),
(148,73,o),
(125,73,cs),
(102,73,o),
(86,57,o),
(86,34,cs),
(86,11,o),
(102,-5,o),
(125,-5,cs)
);
},
{
closed = 1;
nodes = (
(148,427,o),
(164,443,o),
(164,466,cs),
(164,489,o),
(148,505,o),
(125,505,cs),
(102,505,o),
(86,489,o),
(86,466,cs),
(86,443,o),
(102,427,o),
(125,427,cs)
);
}
);
width = 229;
},
{
layerId = "261B483D-14CB-4AC5-AE3A-41E540C8643C";
shapes = (
{
closed = 1;
nodes = (
(162,-5,o),
(186,19,o),
(186,56,cs),
(186,92,o),
(162,116,o),
(125,116,cs),
(88,116,o),
(64,92,o),
(64,56,cs),
(64,19,o),
(88,-5,o),
(125,-5,cs)
);
},
{
closed = 1;
nodes = (
(162,384,o),
(186,408,o),
(186,444,cs),
(186,481,o),
(162,505,o),
(125,505,cs),
(88,505,o),
(64,481,o),
(64,444,cs),
(64,408,o),
(88,384,o),
(125,384,cs)
);
}
);
width = 250;
},
{
layerId = "B523A5AF-871D-4AB2-9BF1-E01A824009A4";
shapes = (
{
closed = 1;
nodes = (
(154,-5,o),
(174,15,o),
(174,44,cs),
(174,74,o),
(154,94,o),
(125,94,cs),
(96,94,o),
(76,74,o),
(76,44,cs),
(76,15,o),
(96,-5,o),
(125,-5,cs)
);
},
{
closed = 1;
nodes = (
(154,406,o),
(174,426,o),
(174,456,cs),
(174,485,o),
(154,505,o),
(125,505,cs),
(96,505,o),
(76,485,o),
(76,456,cs),
(76,426,o),
(96,406,o),
(125,406,cs)
);
}
);
width = 239;
},
{
layerId = "D3C24151-4D63-4841-9665-5260E3226900";
shapes = (
{
closed = 1;
nodes = (
(168,-5,o),
(196,23,o),
(196,66,cs),
(196,108,o),
(168,136,o),
(125,136,cs),
(82,136,o),
(54,108,o),
(54,66,cs),
(54,23,o),
(82,-5,o),
(125,-5,cs)
);
},
{
closed = 1;
nodes = (
(168,364,o),
(196,392,o),
(196,434,cs),
(196,477,o),
(168,505,o),
(125,505,cs),
(82,505,o),
(54,477,o),
(54,434,cs),
(54,392,o),
(82,364,o),
(125,364,cs)
);
}
);
width = 260;
},
{
layerId = "8EEC74F5-9CFA-47B4-A8F8-9A6461F2D63F";
shapes = (
{
closed = 1;
nodes = (
(173,-5,o),
(205,27,o),
(205,75,cs),
(205,123,o),
(173,155,o),
(125,155,cs),
(77,155,o),
(45,123,o),
(45,75,cs),
(45,27,o),
(77,-5,o),
(125,-5,cs)
);
},
{
closed = 1;
nodes = (
(173,345,o),
(205,377,o),
(205,425,cs),
(205,473,o),
(173,505,o),
(125,505,cs),
(77,505,o),
(45,473,o),
(45,425,cs),
(45,377,o),
(77,345,o),
(125,345,cs)
);
}
);
width = 270;
}
);
note = colon;
unicode = 58;
},
{
glyphname = semicolon;
lastChange = "2026-03-02 14:27:18 +0000";
layers = (
{
layerId = "E059459B-5795-442B-8710-0018C46129BA";
shapes = (
{
closed = 1;
nodes = (
(163,-5,o),
(179,11,o),
(179,34,cs),
(179,57,o),
(163,73,o),
(140,73,cs),
(117,73,o),
(101,57,o),
(101,34,cs),
(101,11,o),
(117,-5,o),
(140,-5,cs)
);
},
{
closed = 1;
nodes = (
(140,45,l),
(155,45,o),
(165,32,o),
(165,13,cs),
(165,-37,o),
(138,-78,o),
(98,-89,c),
(101,-100,l),
(156,-85,o),
(193,-37,o),
(193,17,cs),
(193,51,o),
(172,73,o),
(140,73,c)
);
},
{
closed = 1;
nodes = (
(148,385,o),
(164,401,o),
(164,424,cs),
(164,447,o),
(148,463,o),
(125,463,cs),
(102,463,o),
(86,447,o),
(86,424,cs),
(86,401,o),
(102,385,o),
(125,385,cs)
);
}
);
width = 249;
},
{
layerId = "261B483D-14CB-4AC5-AE3A-41E540C8643C";
shapes = (
{
closed = 1;
nodes = (
(177,-5,o),
(201,19,o),
(201,56,cs),
(201,92,o),
(177,116,o),
(140,116,cs),
(103,116,o),
(79,92,o),
(79,56,cs),
(79,19,o),
(103,-5,o),
(140,-5,cs)
);
},
{
closed = 1;
nodes = (
(140,73,l),
(163,73,o),
(179,48,o),
(179,11,cs),
(179,-46,o),
(137,-96,o),
(74,-114,c),
(79,-131,l),
(165,-106,o),
(222,-46,o),
(222,19,cs),
(222,77,o),
(189,116,o),
(140,116,c)
);
},
{
closed = 1;
nodes = (
(162,385,o),
(186,409,o),
(186,446,cs),
(186,482,o),
(162,506,o),
(125,506,cs),
(88,506,o),
(64,482,o),
(64,446,cs),
(64,409,o),
(88,385,o),
(125,385,cs)
);
}
);
width = 270;
},
{
layerId = "B523A5AF-871D-4AB2-9BF1-E01A824009A4";
shapes = (
{
closed = 1;
nodes = (
(169,-5,o),
(189,15,o),
(189,44,cs),
(189,74,o),
(169,94,o),
(140,94,cs),
(111,94,o),
(91,74,o),
(91,44,cs),
(91,15,o),
(111,-5,o),
(140,-5,cs)
);
},
{
closed = 1;
nodes = (
(140,58,l),
(159,58,o),
(172,40,o),
(172,12,cs),
(172,-41,o),
(138,-86,o),
(87,-101,c),
(91,-115,l),
(160,-95,o),
(207,-42,o),
(207,18,cs),
(207,64,o),
(180,94,o),
(140,94,c)
);
},
{
closed = 1;
nodes = (
(154,385,o),
(174,405,o),
(174,434,cs),
(174,464,o),
(154,484,o),
(125,484,cs),
(96,484,o),
(76,464,o),
(76,434,cs),
(76,405,o),
(96,385,o),
(125,385,cs)
);
}
);
width = 259;
},
{
layerId = "D3C24151-4D63-4841-9665-5260E3226900";
shapes = (
{
closed = 1;
nodes = (
(183,-5,o),
(211,23,o),
(211,66,cs),
(211,108,o),
(183,136,o),
(140,136,cs),
(97,136,o),
(69,108,o),
(69,66,cs),
(69,23,o),
(97,-5,o),
(140,-5,cs)
);
},
{
closed = 1;
nodes = (
(140,86,l),
(169,86,o),
(188,56,o),
(188,11,cs),
(188,-51,o),
(139,-106,o),
(64,-128,c),
(69,-145,l),
(168,-117,o),
(233,-51,o),
(233,19,cs),
(233,89,o),
(196,136,o),
(140,136,c)
);
},
{
closed = 1;
nodes = (
(168,385,o),
(196,413,o),
(196,456,cs),
(196,498,o),
(168,526,o),
(125,526,cs),
(82,526,o),
(54,498,o),
(54,456,cs),
(54,413,o),
(82,385,o),
(125,385,cs)
);
}
);
width = 280;
},
{
layerId = "8EEC74F5-9CFA-47B4-A8F8-9A6461F2D63F";
shapes = (
{
closed = 1;
nodes = (
(188,-5,o),
(220,27,o),
(220,75,cs),
(220,123,o),
(188,155,o),
(140,155,cs),
(92,155,o),
(60,123,o),
(60,75,cs),
(60,27,o),
(92,-5,o),
(140,-5,cs)
);
},
{
closed = 1;
nodes = (
(140,97,l),
(173,97,o),
(195,62,o),
(195,11,cs),
(195,-57,o),
(139,-118,o),
(55,-143,c),
(60,-160,l),
(171,-128,o),
(245,-56,o),
(245,19,cs),
(245,101,o),
(203,155,o),
(140,155,c)
);
},
{
closed = 1;
nodes = (
(173,385,o),
(205,417,o),
(205,465,cs),
(205,513,o),
(173,545,o),
(125,545,cs),
(77,545,o),
(45,513,o),
(45,465,cs),
(45,417,o),
(77,385,o),
(125,385,cs)
);
}
);
width = 290;
}
);
note = semicolon;
unicode = 59;
},
{
glyphname = equal;
lastChange = "2026-03-02 14:27:18 +0000";
layers = (
{
layerId = "E059459B-5795-442B-8710-0018C46129BA";
shapes = (
{
closed = 1;
nodes = (
(79,288,l),
(449,288,l),
(449,312,l),
(79,312,l)
);
},
{
closed = 1;
nodes = (
(79,188,l),
(449,188,l),
(449,212,l),
(79,212,l)
);
}
);
width = 519;
},
{
layerId = "261B483D-14CB-4AC5-AE3A-41E540C8643C";
shapes = (
{
closed = 1;
nodes = (
(83,281,l),
(454,281,l),
(454,319,l),
(83,319,l)
);
},
{
closed = 1;
nodes = (
(83,181,l),
(454,181,l),
(454,219,l),
(83,219,l)
);
}
);
width = 524;
},
{
layerId = "B523A5AF-871D-4AB2-9BF1-E01A824009A4";
shapes = (
{
closed = 1;
nodes = (
(81,284,l),
(452,284,l),
(452,316,l),
(81,316,l)
);
},
{
closed = 1;
nodes = (
(81,184,l),
(452,184,l),
(452,216,l),
(81,216,l)
);
}
);
width = 521;
},
{
layerId = "D3C24151-4D63-4841-9665-5260E3226900";
shapes = (
{
closed = 1;
nodes = (
(86,278,l),
(456,278,l),
(456,322,l),
(86,322,l)
);
},
{
closed = 1;
nodes = (
(86,178,l),
(456,178,l),
(456,222,l),
(86,222,l)
);
}
);
width = 526;
},
{
layerId = "8EEC74F5-9CFA-47B4-A8F8-9A6461F2D63F";
shapes = (
{
closed = 1;
nodes = (
(88,274,l),
(459,274,l),
(459,326,l),
(88,326,l)
);
},
{
closed = 1;
nodes = (
(88,174,l),
(459,174,l),
(459,226,l),
(88,226,l)
);
}
);
width = 528;
}
);
note = equal;
unicode = 61;
},
{
glyphname = question;
lastChange = "2026-03-02 14:27:18 +0000";
layers = (
{
layerId = "E059459B-5795-442B-8710-0018C46129BA";
shapes = (
{
closed = 1;
nodes = (
(114,760,o),
(93,744,o),
(93,719,cs),
(93,703,o),
(105,692,o),
(123,692,cs),
(136,692,o),
(152,701,o),
(165,701,c),
(145,760,l)
);
},
{
closed = 1;
nodes = (
(125,360,l),
(211,360,o),
(245,396,o),
(282,451,cs),
(299,477,o),
(310,518,o),
(310,553,cs),
(310,677,o),
(244,760,o),
(145,760,c),
(165,701,l),
(242,701,o),
(294,639,o),
(294,547,cs),
(294,527,o),
(284,500,o),
(269,478,cs),
(244,441,o),
(215,416,o),
(106,416,c),
(112,180,l),
(122,180,l)
);
},
{
closed = 1;
nodes = (
(148,-5,o),
(164,11,o),
(164,34,cs),
(164,57,o),
(148,73,o),
(125,73,cs),
(102,73,o),
(86,57,o),
(86,34,cs),
(86,11,o),
(102,-5,o),
(125,-5,cs)
);
}
);
width = 303;
},
{
layerId = "261B483D-14CB-4AC5-AE3A-41E540C8643C";
shapes = (
{
closed = 1;
nodes = (
(96,760,o),
(64,735,o),
(64,696,cs),
(64,671,o),
(83,654,o),
(111,654,cs),
(131,654,o),
(156,669,o),
(176,669,c),
(145,760,l)
);
},
{
closed = 1;
nodes = (
(125,360,l),
(219,360,o),
(251,394,o),
(285,444,cs),
(303,470,o),
(315,515,o),
(315,555,cs),
(315,678,o),
(247,760,o),
(145,760,c),
(176,669,l),
(244,669,o),
(289,619,o),
(289,545,cs),
(289,530,o),
(280,506,o),
(266,485,cs),
(248,458,o),
(222,440,o),
(97,440,c),
(109,211,l),
(125,211,l)
);
},
{
closed = 1;
nodes = (
(162,-5,o),
(186,19,o),
(186,56,cs),
(186,92,o),
(162,116,o),
(125,116,cs),
(88,116,o),
(64,92,o),
(64,56,cs),
(64,19,o),
(88,-5,o),
(125,-5,cs)
);
}
);
width = 299;
},
{
layerId = "B523A5AF-871D-4AB2-9BF1-E01A824009A4";
shapes = (
{
closed = 1;
nodes = (
(105,760,o),
(79,739,o),
(79,708,cs),
(79,688,o),
(94,674,o),
(117,674,cs),
(134,674,o),
(153,686,o),
(170,686,c),
(145,760,l)
);
},
{
closed = 1;
nodes = (
(125,360,l),
(214,360,o),
(248,395,o),
(283,448,cs),
(301,474,o),
(312,516,o),
(312,554,cs),
(312,678,o),
(245,760,o),
(145,760,c),
(170,686,l),
(243,686,o),
(292,630,o),
(292,546,cs),
(292,529,o),
(282,503,o),
(268,481,cs),
(247,451,o),
(220,430,o),
(101,430,c),
(111,195,l),
(123,195,l)
);
},
{
closed = 1;
nodes = (
(154,-5,o),
(174,15,o),
(174,44,cs),
(174,74,o),
(154,94,o),
(125,94,cs),
(96,94,o),
(76,74,o),
(76,44,cs),
(76,15,o),
(96,-5,o),
(125,-5,cs)
);
}
);
width = 301;
},
{
layerId = "D3C24151-4D63-4841-9665-5260E3226900";
shapes = (
{
closed = 1;
nodes = (
(89,760,o),
(51,730,o),
(51,686,cs),
(51,657,o),
(73,637,o),
(105,637,cs),
(129,637,o),
(157,654,o),
(181,654,c),
(145,760,l)
);
},
{
closed = 1;
nodes = (
(125,360,l),
(221,360,o),
(254,392,o),
(287,441,cs),
(305,467,o),
(317,513,o),
(317,556,cs),
(317,678,o),
(248,760,o),
(145,760,c),
(181,654,l),
(245,654,o),
(287,610,o),
(287,544,cs),
(287,531,o),
(278,509,o),
(264,488,cs),
(245,459,o),
(219,440,o),
(97,440,c),
(108,225,l),
(126,225,l)
);
},
{
closed = 1;
nodes = (
(168,-5,o),
(196,23,o),
(196,66,cs),
(196,108,o),
(168,136,o),
(125,136,cs),
(82,136,o),
(54,108,o),
(54,66,cs),
(54,23,o),
(82,-5,o),
(125,-5,cs)
);
}
);
width = 297;
},
{
layerId = "8EEC74F5-9CFA-47B4-A8F8-9A6461F2D63F";
shapes = (
{
closed = 1;
nodes = (
(80,760,o),
(37,726,o),
(37,675,cs),
(37,641,o),
(62,618,o),
(99,618,cs),
(127,618,o),
(159,638,o),
(187,638,c),
(145,760,l)
);
},
{
closed = 1;
nodes = (
(125,360,l),
(225,360,o),
(257,391,o),
(288,437,cs),
(307,464,o),
(319,512,o),
(319,557,cs),
(319,679,o),
(249,760,o),
(145,760,c),
(187,638,l),
(246,638,o),
(285,600,o),
(285,543,cs),
(285,532,o),
(276,512,o),
(263,492,cs),
(242,461,o),
(215,440,o),
(97,440,c),
(107,240,l),
(127,240,l)
);
},
{
closed = 1;
nodes = (
(173,-5,o),
(205,27,o),
(205,75,cs),
(205,123,o),
(173,155,o),
(125,155,cs),
(77,155,o),
(45,123,o),
(45,75,cs),
(45,27,o),
(77,-5,o),
(125,-5,cs)
);
}
);
width = 295;
}
);
note = question;
unicode = 63;
},
{
glyphname = arobase;
lastChange = "2026-03-02 14:27:18 +0000";
layers = (
{
layerId = "E059459B-5795-442B-8710-0018C46129BA";
shapes = (
{
closed = 1;
nodes = (
(963,-143,o),
(781,-238,o),
(573,-238,cs),
(288,-238,o),
(98,-39,o),
(98,259,cs),
(98,557,o),
(285,756,o),
(565,756,cs),
(844,756,o),
(1031,591,o),
(1031,343,cs),
(1031,140,o),
(955,5,o),
(841,5,cs),
(726,5,o),
(669,83,o),
(698,200,cs),
(768,480,l),
(716,480,l),
(646,200,ls),
(613,72,o),
(687,-14,o),
(831,-14,cs),
(977,-14,o),
(1074,129,o),
(1074,343,cs),
(1074,600,o),
(870,772,o),
(565,772,cs),
(259,772,o),
(55,567,o),
(55,259,cs),
(55,-49,o),
(262,-254,o),
(573,-254,cs),
(787,-254,o),
(977,-152,o),
(1048,0,c),
(1030,0,l)
);
},
{
closed = 1;
nodes = (
(696,437,o),
(645,490,o),
(569,490,cs),
(404,490,o),
(293,372,o),
(293,196,cs),
(293,86,o),
(361,12,o),
(462,12,cs),
(554,12,o),
(632,82,o),
(658,186,c),
(646,200,l),
(622,106,o),
(560,43,o),
(491,43,cs),
(409,43,o),
(354,109,o),
(354,207,cs),
(354,368,o),
(440,475,o),
(568,475,cs),
(638,475,o),
(684,427,o),
(684,355,c),
(696,358,l)
);
}
);
width = 1128;
},
{
layerId = "261B483D-14CB-4AC5-AE3A-41E540C8643C";
shapes = (
{
closed = 1;
nodes = (
(961,-142,o),
(786,-236,o),
(589,-236,cs),
(309,-236,o),
(122,-38,o),
(122,259,cs),
(122,556,o),
(303,754,o),
(574,754,cs),
(844,754,o),
(1025,590,o),
(1025,343,cs),
(1025,141,o),
(952,7,o),
(844,7,cs),
(750,7,o),
(706,84,o),
(736,200,cs),
(806,480,l),
(724,480,l),
(654,200,ls),
(621,67,o),
(691,-22,o),
(828,-22,cs),
(986,-22,o),
(1092,124,o),
(1092,343,cs),
(1092,604,o),
(885,778,o),
(574,778,cs),
(262,778,o),
(55,570,o),
(55,259,cs),
(55,-52,o),
(269,-260,o),
(589,-260,cs),
(797,-260,o),
(983,-156,o),
(1056,0,c),
(1028,0,l)
);
},
{
closed = 1;
nodes = (
(712,438,o),
(659,490,o),
(578,490,cs),
(402,490,o),
(285,371,o),
(285,192,cs),
(285,82,o),
(355,8,o),
(459,8,cs),
(562,8,o),
(648,76,o),
(673,178,c),
(654,200,l),
(633,114,o),
(572,56,o),
(503,56,cs),
(429,56,o),
(379,117,o),
(379,208,cs),
(379,363,o),
(458,466,o),
(576,466,cs),
(646,466,o),
(693,422,o),
(693,355,c),
(712,360,l)
);
}
);
width = 1146;
},
{
layerId = "B523A5AF-871D-4AB2-9BF1-E01A824009A4";
shapes = (
{
closed = 1;
nodes = (
(962,-142,o),
(783,-237,o),
(581,-237,cs),
(298,-237,o),
(110,-39,o),
(110,259,cs),
(110,557,o),
(294,755,o),
(569,755,cs),
(844,755,o),
(1028,590,o),
(1028,343,cs),
(1028,141,o),
(954,6,o),
(842,6,cs),
(737,6,o),
(687,84,o),
(716,200,cs),
(786,480,l),
(720,480,l),
(650,200,ls),
(617,69,o),
(689,-18,o),
(829,-18,cs),
(981,-18,o),
(1082,126,o),
(1082,343,cs),
(1082,602,o),
(877,775,o),
(569,775,cs),
(261,775,o),
(55,569,o),
(55,259,cs),
(55,-51,o),
(265,-257,o),
(581,-257,cs),
(792,-257,o),
(980,-154,o),
(1052,0,c),
(1029,0,l)
);
},
{
closed = 1;
nodes = (
(704,438,o),
(652,490,o),
(574,490,cs),
(403,490,o),
(289,372,o),
(289,194,cs),
(289,84,o),
(358,10,o),
(461,10,cs),
(557,10,o),
(639,79,o),
(665,183,c),
(650,200,l),
(627,109,o),
(566,49,o),
(497,49,cs),
(418,49,o),
(366,112,o),
(366,208,cs),
(366,366,o),
(448,471,o),
(572,471,cs),
(642,471,o),
(689,425,o),
(689,355,c),
(704,359,l)
);
}
);
width = 1137;
},
{
layerId = "D3C24151-4D63-4841-9665-5260E3226900";
shapes = (
{
closed = 1;
nodes = (
(961,-141,o),
(789,-235,o),
(597,-235,cs),
(318,-235,o),
(133,-37,o),
(133,259,cs),
(133,555,o),
(311,753,o),
(578,753,cs),
(844,753,o),
(1022,589,o),
(1022,343,cs),
(1022,143,o),
(951,9,o),
(845,9,cs),
(761,9,o),
(724,85,o),
(753,200,cs),
(823,480,l),
(729,480,l),
(659,200,ls),
(625,64,o),
(692,-26,o),
(827,-26,cs),
(991,-26,o),
(1100,122,o),
(1100,343,cs),
(1100,606,o),
(891,781,o),
(578,781,cs),
(265,781,o),
(56,572,o),
(56,259,cs),
(56,-54,o),
(272,-263,o),
(597,-263,cs),
(801,-263,o),
(986,-158,o),
(1060,0,c),
(1026,0,l)
);
},
{
closed = 1;
nodes = (
(719,438,o),
(664,490,o),
(583,490,cs),
(402,490,o),
(282,370,o),
(282,190,cs),
(282,80,o),
(352,6,o),
(457,6,cs),
(566,6,o),
(655,73,o),
(680,175,c),
(659,200,l),
(638,117,o),
(578,61,o),
(509,61,cs),
(438,61,o),
(391,120,o),
(391,209,cs),
(391,361,o),
(467,462,o),
(580,462,cs),
(650,462,o),
(697,419,o),
(697,355,c),
(719,361,l)
);
}
);
width = 1155;
},
{
layerId = "8EEC74F5-9CFA-47B4-A8F8-9A6461F2D63F";
shapes = (
{
closed = 1;
nodes = (
(960,-140,o),
(791,-234,o),
(604,-234,cs),
(329,-234,o),
(145,-37,o),
(145,259,cs),
(145,555,o),
(320,752,o),
(582,752,cs),
(844,752,o),
(1019,588,o),
(1019,343,cs),
(1019,143,o),
(950,10,o),
(847,10,cs),
(773,10,o),
(743,86,o),
(772,200,cs),
(842,480,l),
(733,480,l),
(663,200,ls),
(629,62,o),
(694,-30,o),
(826,-30,cs),
(996,-30,o),
(1109,119,o),
(1109,343,cs),
(1109,608,o),
(898,784,o),
(582,784,cs),
(267,784,o),
(56,574,o),
(56,259,cs),
(56,-56,o),
(275,-266,o),
(604,-266,cs),
(806,-266,o),
(989,-160,o),
(1064,0,c),
(1025,0,l)
);
},
{
closed = 1;
nodes = (
(726,439,o),
(670,490,o),
(587,490,cs),
(402,490,o),
(278,369,o),
(278,188,cs),
(278,77,o),
(349,4,o),
(456,4,cs),
(570,4,o),
(663,71,o),
(687,170,c),
(663,200,l),
(643,121,o),
(584,68,o),
(515,68,cs),
(448,68,o),
(404,125,o),
(404,210,cs),
(404,359,o),
(476,458,o),
(584,458,cs),
(655,458,o),
(702,417,o),
(702,355,c),
(726,362,l)
);
}
);
width = 1163;
}
);
note = arobase;
unicode = 64;
},
{
glyphname = bracketleft;
lastChange = "2026-03-02 17:19:58 +0000";
layers = (
{
layerId = "E059459B-5795-442B-8710-0018C46129BA";
shapes = (
{
closed = 1;
nodes = (
(107,-195,l),
(137,-195,l),
(137,750,l),
(107,750,l)
);
},
{
closed = 1;
nodes = (
(127,734,l),
(337,734,l),
(337,750,l),
(127,750,l)
);
},
{
closed = 1;
nodes = (
(127,-195,l),
(337,-195,l),
(337,-179,l),
(127,-179,l)
);
}
);
width = 286;
},
{
layerId = "261B483D-14CB-4AC5-AE3A-41E540C8643C";
shapes = (
{
closed = 1;
nodes = (
(104,-195,l),
(145,-195,l),
(145,750,l),
(104,750,l)
);
},
{
closed = 1;
nodes = (
(135,725,l),
(345,725,l),
(345,750,l),
(135,750,l)
);
},
{
closed = 1;
nodes = (
(135,-195,l),
(345,-195,l),
(345,-170,l),
(135,-170,l)
);
}
);
width = 294;
},
{
layerId = "B523A5AF-871D-4AB2-9BF1-E01A824009A4";
shapes = (
{
closed = 1;
nodes = (
(106,-195,l),
(141,-195,l),
(141,750,l),
(106,750,l)
);
},
{
closed = 1;
nodes = (
(131,729,l),
(341,729,l),
(341,750,l),
(131,750,l)
);
},
{
closed = 1;
nodes = (
(131,-195,l),
(341,-195,l),
(341,-174,l),
(131,-174,l)
);
}
);
width = 290;
},
{
layerId = "D3C24151-4D63-4841-9665-5260E3226900";
shapes = (
{
closed = 1;
nodes = (
(103,-195,l),
(148,-195,l),
(148,750,l),
(103,750,l)
);
},
{
closed = 1;
nodes = (
(138,721,l),
(348,721,l),
(348,750,l),
(138,750,l)
);
},
{
closed = 1;
nodes = (
(138,-195,l),
(348,-195,l),
(348,-166,l),
(138,-166,l)
);
}
);
width = 298;
},
{
layerId = "8EEC74F5-9CFA-47B4-A8F8-9A6461F2D63F";
shapes = (
{
closed = 1;
nodes = (
(102,-195,l),
(152,-195,l),
(152,750,l),
(102,750,l)
);
},
{
closed = 1;
nodes = (
(142,716,l),
(352,716,l),
(352,750,l),
(142,750,l)
);
},
{
closed = 1;
nodes = (
(142,-195,l),
(352,-195,l),
(352,-161,l),
(142,-161,l)
);
}
);
width = 302;
}
);
note = bracketleft;
unicode = 91;
},
{
glyphname = backslash;
lastChange = "2026-03-02 14:27:18 +0000";
layers = (
{
layerId = "E059459B-5795-442B-8710-0018C46129BA";
shapes = (
{
closed = 1;
nodes = (
(296,-80,l),
(328,-80,l),
(68,770,l),
(36,770,l)
);
}
);
width = 338;
},
{
layerId = "261B483D-14CB-4AC5-AE3A-41E540C8643C";
shapes = (
{
closed = 1;
nodes = (
(287,-80,l),
(337,-80,l),
(77,770,l),
(27,770,l)
);
}
);
width = 347;
},
{
layerId = "B523A5AF-871D-4AB2-9BF1-E01A824009A4";
shapes = (
{
closed = 1;
nodes = (
(291,-80,l),
(333,-80,l),
(73,770,l),
(31,770,l)
);
}
);
width = 342;
},
{
layerId = "D3C24151-4D63-4841-9665-5260E3226900";
shapes = (
{
closed = 1;
nodes = (
(283,-80,l),
(341,-80,l),
(81,770,l),
(23,770,l)
);
}
);
width = 351;
},
{
layerId = "8EEC74F5-9CFA-47B4-A8F8-9A6461F2D63F";
shapes = (
{
closed = 1;
nodes = (
(278,-80,l),
(346,-80,l),
(86,770,l),
(18,770,l)
);
}
);
width = 355;
}
);
note = backslash;
unicode = 92;
},
{
glyphname = bracketright;
lastChange = "2026-03-02 17:20:24 +0000";
layers = (
{
layerId = "E059459B-5795-442B-8710-0018C46129BA";
shapes = (
{
closed = 1;
nodes = (
(150,-195,l),
(180,-195,l),
(180,750,l),
(150,750,l)
);
},
{
closed = 1;
nodes = (
(-50,750,l),
(-50,734,l),
(160,734,l),
(160,750,l)
);
},
{
closed = 1;
nodes = (
(-50,-179,l),
(-50,-195,l),
(160,-195,l),
(160,-179,l)
);
}
);
width = 289;
},
{
layerId = "261B483D-14CB-4AC5-AE3A-41E540C8643C";
shapes = (
{
closed = 1;
nodes = (
(147,-195,l),
(188,-195,l),
(188,750,l),
(147,750,l)
);
},
{
closed = 1;
nodes = (
(-53,750,l),
(-53,725,l),
(157,725,l),
(157,750,l)
);
},
{
closed = 1;
nodes = (
(-53,-170,l),
(-53,-195,l),
(157,-195,l),
(157,-170,l)
);
}
);
width = 297;
},
{
layerId = "B523A5AF-871D-4AB2-9BF1-E01A824009A4";
shapes = (
{
closed = 1;
nodes = (
(149,-195,l),
(184,-195,l),
(184,750,l),
(149,750,l)
);
},
{
closed = 1;
nodes = (
(-51,750,l),
(-51,729,l),
(159,729,l),
(159,750,l)
);
},
{
closed = 1;
nodes = (
(-51,-174,l),
(-51,-195,l),
(159,-195,l),
(159,-174,l)
);
}
);
width = 293;
},
{
layerId = "D3C24151-4D63-4841-9665-5260E3226900";
shapes = (
{
closed = 1;
nodes = (
(146,-195,l),
(191,-195,l),
(191,750,l),
(146,750,l)
);
},
{
closed = 1;
nodes = (
(-54,750,l),
(-54,721,l),
(156,721,l),
(156,750,l)
);
},
{
closed = 1;
nodes = (
(-54,-166,l),
(-54,-195,l),
(156,-195,l),
(156,-166,l)
);
}
);
width = 301;
},
{
layerId = "8EEC74F5-9CFA-47B4-A8F8-9A6461F2D63F";
shapes = (
{
closed = 1;
nodes = (
(145,-195,l),
(195,-195,l),
(195,750,l),
(145,750,l)
);
},
{
closed = 1;
nodes = (
(-55,750,l),
(-55,716,l),
(155,716,l),
(155,750,l)
);
},
{
closed = 1;
nodes = (
(-55,-161,l),
(-55,-195,l),
(155,-195,l),
(155,-161,l)
);
}
);
width = 305;
}
);
note = bracketright;
unicode = 93;
},
{
glyphname = asciicircum;
lastChange = "2026-03-02 14:27:18 +0000";
layers = (
{
layerId = "E059459B-5795-442B-8710-0018C46129BA";
shapes = (
{
closed = 1;
nodes = (
(184,743,l),
(184,763,l),
(180,769,o),
(170,783,o),
(164,783,cs),
(159,783,o),
(149,769,o),
(145,763,c),
(145,744,l)
);
},
{
closed = 1;
nodes = (
(145,763,l),
(15,563,l),
(22,557,l),
(184,743,l)
);
},
{
closed = 1;
nodes = (
(314,563,l),
(184,763,l),
(145,744,l),
(306,557,l)
);
}
);
width = 328;
},
{
layerId = "261B483D-14CB-4AC5-AE3A-41E540C8643C";
shapes = (
{
closed = 1;
nodes = (
(194,724,l),
(195,754,l),
(189,763,o),
(174,785,o),
(164,785,cs),
(155,785,o),
(140,764,o),
(134,754,c),
(134,724,l)
);
},
{
closed = 1;
nodes = (
(134,754,l),
(12,565,l),
(24,555,l),
(194,724,l)
);
},
{
closed = 1;
nodes = (
(316,565,l),
(195,754,l),
(134,724,l),
(305,555,l)
);
}
);
width = 328;
},
{
layerId = "B523A5AF-871D-4AB2-9BF1-E01A824009A4";
shapes = (
{
closed = 1;
nodes = (
(189,734,l),
(189,759,l),
(184,766,o),
(172,784,o),
(164,784,cs),
(157,784,o),
(145,766,o),
(140,759,c),
(139,734,l)
);
},
{
closed = 1;
nodes = (
(140,759,l),
(14,564,l),
(23,556,l),
(189,734,l)
);
},
{
closed = 1;
nodes = (
(315,564,l),
(189,759,l),
(139,734,l),
(305,556,l)
);
}
);
width = 328;
},
{
layerId = "D3C24151-4D63-4841-9665-5260E3226900";
shapes = (
{
closed = 1;
nodes = (
(199,714,l),
(200,750,l),
(193,761,o),
(176,786,o),
(164,786,cs),
(153,786,o),
(136,761,o),
(129,750,c),
(129,715,l)
);
},
{
closed = 1;
nodes = (
(129,750,l),
(11,566,l),
(25,555,l),
(199,714,l)
);
},
{
closed = 1;
nodes = (
(317,566,l),
(200,750,l),
(129,715,l),
(304,555,l)
);
}
);
width = 328;
},
{
layerId = "8EEC74F5-9CFA-47B4-A8F8-9A6461F2D63F";
shapes = (
{
closed = 1;
nodes = (
(205,705,l),
(205,745,l),
(197,757,o),
(178,786,o),
(164,786,cs),
(151,786,o),
(132,758,o),
(124,746,c),
(124,705,l)
);
},
{
closed = 1;
nodes = (
(124,746,l),
(10,567,l),
(25,554,l),
(205,705,l)
);
},
{
closed = 1;
nodes = (
(319,567,l),
(205,745,l),
(124,705,l),
(303,554,l)
);
}
);
width = 328;
}
);
note = asciicircum;
unicode = 94;
},
{
glyphname = underscore;
lastChange = "2026-03-02 14:27:18 +0000";
layers = (
{
layerId = "E059459B-5795-442B-8710-0018C46129BA";
shapes = (
{
closed = 1;
nodes = (
(5,-81,l),
(429,-81,l),
(429,-50,l),
(5,-50,l)
);
}
);
width = 434;
},
{
layerId = "261B483D-14CB-4AC5-AE3A-41E540C8643C";
shapes = (
{
closed = 1;
nodes = (
(5,-98,l),
(429,-98,l),
(429,-50,l),
(5,-50,l)
);
}
);
width = 434;
},
{
layerId = "B523A5AF-871D-4AB2-9BF1-E01A824009A4";
shapes = (
{
closed = 1;
nodes = (
(5,-89,l),
(429,-89,l),
(429,-50,l),
(5,-50,l)
);
}
);
width = 434;
},
{
layerId = "D3C24151-4D63-4841-9665-5260E3226900";
shapes = (
{
closed = 1;
nodes = (
(5,-106,l),
(429,-106,l),
(429,-50,l),
(5,-50,l)
);
}
);
width = 434;
},
{
layerId = "8EEC74F5-9CFA-47B4-A8F8-9A6461F2D63F";
shapes = (
{
closed = 1;
nodes = (
(5,-114,l),
(429,-114,l),
(429,-50,l),
(5,-50,l)
);
}
);
width = 434;
}
);
note = underscore;
unicode = 95;
},
{
glyphname = a;
lastChange = "2026-03-02 22:18:30 +0000";
layers = (
{
anchors = (
{
name = bottom;
pos = (252,0);
},
{
name = ogonek;
pos = (450,10);
},
{
name = top;
pos = (252,500);
}
);
layerId = "E059459B-5795-442B-8710-0018C46129BA";
shapes = (
{
closed = 1;
nodes = (
(69,335,o),
(80,319,o),
(97,319,cs),
(118,319,o),
(132,335,o),
(131,347,cs),
(131,364,o),
(112,380,o),
(111,394,c),
(69,358,l)
);
},
{
closed = 1;
nodes = (
(499,87,l),
(494,56,o),
(472,35,o),
(444,35,cs),
(410,35,o),
(387,55,o),
(387,85,cs),
(387,358,ls),
(387,463,o),
(334,510,o),
(254,510,cs),
(142,510,o),
(68,413,o),
(69,358,c),
(111,394,l),
(111,430,o),
(160,493,o),
(234,493,cs),
(293,493,o),
(332,457,o),
(332,378,cs),
(332,85,ls),
(332,31,o),
(368,-5,o),
(421,-5,cs),
(465,-5,o),
(501,29,o),
(510,81,c)
);
},
{
closed = 1;
nodes = (
(336,104,l),
(276,43,o),
(227,20,o),
(189,20,cs),
(139,20,o),
(105,47,o),
(105,87,cs),
(105,124,o),
(158,152,o),
(337,233,c),
(337,246,l),
(114,145,o),
(49,112,o),
(49,82,cs),
(49,27,o),
(93,-10,o),
(160,-10,cs),
(206,-10,o),
(265,19,o),
(340,95,c)
);
}
);
width = 552;
},
{
anchors = (
{
name = bottom;
pos = (257,0);
},
{
name = ogonek;
pos = (459,10);
},
{
name = top;
pos = (257,500);
}
);
layerId = "261B483D-14CB-4AC5-AE3A-41E540C8643C";
shapes = (
{
closed = 1;
nodes = (
(70,322,o),
(90,298,o),
(119,298,cs),
(147,298,o),
(165,323,o),
(164,341,cs),
(164,361,o),
(145,381,o),
(144,401,c),
(70,358,l)
);
},
{
closed = 1;
nodes = (
(505,110,l),
(500,77,o),
(478,56,o),
(450,56,cs),
(418,56,o),
(396,75,o),
(396,103,cs),
(396,355,ls),
(396,462,o),
(341,510,o),
(259,510,cs),
(144,510,o),
(69,413,o),
(70,358,c),
(144,401,l),
(144,431,o),
(177,484,o),
(229,484,cs),
(277,484,o),
(310,454,o),
(310,386,cs),
(310,103,ls),
(310,38,o),
(352,-5,o),
(415,-5,cs),
(467,-5,o),
(508,38,o),
(520,103,c)
);
},
{
closed = 1;
nodes = (
(316,108,l),
(269,56,o),
(232,36,o),
(205,36,cs),
(164,36,o),
(136,60,o),
(136,97,cs),
(136,142,o),
(177,166,o),
(318,230,c),
(318,250,l),
(111,156,o),
(50,124,o),
(50,88,cs),
(50,29,o),
(94,-10,o),
(159,-10,cs),
(200,-10,o),
(254,19,o),
(323,95,c)
);
}
);
width = 563;
},
{
anchors = (
{
name = bottom;
pos = (250,0);
},
{
name = ogonek;
pos = (450,10);
},
{
name = top;
pos = (250,500);
}
);
layerId = "B523A5AF-871D-4AB2-9BF1-E01A824009A4";
shapes = (
{
closed = 1;
nodes = (
(65,329,o),
(79,309,o),
(101,309,cs),
(124,309,o),
(140,329,o),
(139,344,cs),
(139,363,o),
(120,385,o),
(119,402,c),
(65,358,l)
);
},
{
closed = 1;
nodes = (
(497,98,l),
(492,66,o),
(470,45,o),
(442,45,cs),
(409,45,o),
(387,64,o),
(387,93,cs),
(387,357,ls),
(387,462,o),
(333,510,o),
(252,510,cs),
(138,510,o),
(64,413,o),
(65,358,c),
(119,402,l),
(119,433,o),
(161,489,o),
(227,489,cs),
(281,489,o),
(317,456,o),
(317,382,cs),
(317,93,ls),
(317,34,o),
(356,-5,o),
(414,-5,cs),
(461,-5,o),
(500,34,o),
(510,91,c)
);
},
{
closed = 1;
nodes = (
(322,106,l),
(268,49,o),
(225,27,o),
(192,27,cs),
(146,27,o),
(115,53,o),
(115,92,cs),
(115,133,o),
(162,159,o),
(324,232,c),
(324,248,l),
(108,150,o),
(45,117,o),
(45,85,cs),
(45,28,o),
(89,-10,o),
(155,-10,cs),
(198,-10,o),
(255,19,o),
(328,95,c)
);
}
);
width = 500;
},
{
anchors = (
{
name = bottom;
pos = (260,0);
},
{
name = ogonek;
pos = (463,10);
},
{
name = top;
pos = (260,500);
}
);
layerId = "D3C24151-4D63-4841-9665-5260E3226900";
shapes = (
{
closed = 1;
nodes = (
(71,316,o),
(96,288,o),
(133,288,cs),
(164,288,o),
(184,317,o),
(184,338,cs),
(183,357,o),
(164,374,o),
(164,394,c),
(71,358,l)
);
},
{
closed = 1;
nodes = (
(508,120,l),
(503,88,o),
(481,66,o),
(454,66,cs),
(421,66,o),
(400,84,o),
(400,111,cs),
(400,354,ls),
(400,462,o),
(345,510,o),
(262,510,cs),
(146,510,o),
(70,413,o),
(71,358,c),
(164,394,l),
(164,422,o),
(192,471,o),
(236,471,cs),
(275,471,o),
(301,446,o),
(301,390,cs),
(300,111,ls),
(300,41,o),
(345,-5,o),
(412,-5,cs),
(467,-5,o),
(512,42,o),
(524,112,c)
);
},
{
closed = 1;
nodes = (
(308,111,l),
(265,62,o),
(235,43,o),
(213,43,cs),
(176,43,o),
(151,66,o),
(151,101,cs),
(151,151,o),
(187,172,o),
(310,228,c),
(310,252,l),
(110,161,o),
(51,130,o),
(51,91,cs),
(51,30,o),
(94,-10,o),
(160,-10,cs),
(198,-10,o),
(250,19,o),
(315,95,c)
);
}
);
width = 567;
},
{
anchors = (
{
name = bottom;
pos = (256,0);
},
{
name = ogonek;
pos = (461,10);
},
{
name = top;
pos = (256,500);
}
);
layerId = "8EEC74F5-9CFA-47B4-A8F8-9A6461F2D63F";
shapes = (
{
closed = 1;
nodes = (
(65,310,o),
(94,278,o),
(137,278,cs),
(170,278,o),
(193,311,o),
(193,335,cs),
(192,356,o),
(173,373,o),
(173,398,c),
(64,358,l)
);
},
{
closed = 1;
nodes = (
(505,131,l),
(499,99,o),
(477,77,o),
(450,77,cs),
(419,77,o),
(398,94,o),
(398,120,cs),
(398,353,ls),
(398,461,o),
(342,510,o),
(258,510,cs),
(140,510,o),
(64,413,o),
(64,358,c),
(173,398,l),
(172,422,o),
(196,464,o),
(231,464,cs),
(262,464,o),
(283,442,o),
(283,394,cs),
(283,120,ls),
(283,45,o),
(331,-5,o),
(403,-5,cs),
(461,-5,o),
(509,46,o),
(522,123,c)
);
},
{
closed = 1;
nodes = (
(292,113,l),
(255,68,o),
(230,51,o),
(214,51,cs),
(182,51,o),
(160,73,o),
(160,106,cs),
(160,160,o),
(190,180,o),
(294,227,c),
(294,253,l),
(101,166,o),
(44,135,o),
(44,94,cs),
(44,32,o),
(88,-10,o),
(153,-10,cs),
(190,-10,o),
(238,19,o),
(300,95,c)
);
}
);
width = 512;
}
);
note = a;
unicode = 97;
},
{
glyphname = b;
lastChange = "2026-03-02 22:18:30 +0000";
layers = (
{
anchors = (
{
name = bottom;
pos = (248,0);
},
{
name = center;
pos = (90,780);
},
{
name = top;
pos = (248,500);
}
);
layerId = "E059459B-5795-442B-8710-0018C46129BA";
shapes = (
{
closed = 1;
nodes = (
(87,0,l),
(132,167,l),
(139,195,l),
(139,638,l),
(84,638,l),
(84,195,l),
(84,195,l),
(84,0,l)
);
},
{
closed = 1;
nodes = (
(107,195,l),
(105,65,l),
(143,20,o),
(218,-10,o),
(294,-10,cs),
(428,-10,o),
(517,95,o),
(517,252,cs),
(517,404,o),
(425,505,o),
(287,505,cs),
(228,505,o),
(167,469,o),
(133,416,c),
(133,400,l),
(164,449,o),
(217,482,o),
(264,482,cs),
(379,482,o),
(455,387,o),
(455,245,cs),
(455,99,o),
(392,2,o),
(297,2,cs),
(236,2,o),
(173,29,o),
(139,70,c),
(139,195,l)
);
},
{
closed = 1;
nodes = (
(139,732,o),
(139,750,o),
(139,750,c),
(139,750,l),
(139,750,o),
(139,750,o),
(139,750,c),
(139,750,o),
(139,750,o),
(139,750,c),
(130,750,l),
(14,717,l),
(14,717,o),
(14,710,o),
(14,700,cs),
(14,690,o),
(14,684,o),
(14,684,c),
(29,689,ls),
(62,698,o),
(84,691,o),
(84,624,c),
(139,638,l)
);
}
);
width = 575;
},
{
anchors = (
{
name = bottom;
pos = (256,0);
},
{
name = center;
pos = (98,780);
},
{
name = top;
pos = (256,500);
}
);
layerId = "261B483D-14CB-4AC5-AE3A-41E540C8643C";
shapes = (
{
closed = 1;
nodes = (
(89,0,l),
(159,152,l),
(170,195,l),
(170,638,l),
(84,638,l),
(84,195,l),
(84,195,l),
(84,0,l)
);
},
{
closed = 1;
nodes = (
(120,195,l),
(119,65,l),
(150,20,o),
(220,-10,o),
(295,-10,cs),
(434,-10,o),
(526,95,o),
(526,253,cs),
(526,404,o),
(438,505,o),
(306,505,cs),
(249,505,o),
(191,473,o),
(160,425,c),
(160,400,l),
(187,442,o),
(232,470,o),
(271,470,cs),
(367,470,o),
(430,379,o),
(430,242,cs),
(430,102,o),
(378,9,o),
(300,9,cs),
(236,9,o),
(185,33,o),
(170,70,c),
(170,195,l)
);
},
{
closed = 1;
nodes = (
(170,732,o),
(170,750,o),
(170,750,c),
(170,750,l),
(170,750,o),
(170,750,o),
(170,750,c),
(170,750,o),
(170,750,o),
(170,750,c),
(155,750,l),
(14,710,l),
(14,710,o),
(14,703,o),
(14,693,cs),
(14,683,o),
(14,677,o),
(14,677,c),
(30,681,ls),
(62,691,o),
(84,684,o),
(84,617,c),
(170,638,l)
);
}
);
width = 585;
},
{
anchors = (
{
name = bottom;
pos = (315,0);
},
{
name = center;
pos = (157,780);
},
{
name = top;
pos = (315,500);
}
);
layerId = "B523A5AF-871D-4AB2-9BF1-E01A824009A4";
shapes = (
{
closed = 1;
nodes = (
(151,0,l),
(208,160,l),
(217,195,l),
(217,638,l),
(147,638,l),
(147,195,l),
(147,85,l),
(147,0,l)
);
},
{
closed = 1;
nodes = (
(177,195,l),
(174,65,l),
(212,20,o),
(285,-10,o),
(358,-10,cs),
(493,-10,o),
(584,95,o),
(584,252,cs),
(584,404,o),
(494,505,o),
(359,505,cs),
(302,505,o),
(241,471,o),
(209,420,c),
(209,400,l),
(238,446,o),
(287,476,o),
(331,476,cs),
(436,476,o),
(506,383,o),
(506,244,cs),
(506,101,o),
(448,6,o),
(361,6,cs),
(301,6,o),
(243,32,o),
(217,70,c),
(217,195,l)
);
},
{
closed = 1;
nodes = (
(217,664,o),
(217,750,o),
(217,750,c),
(217,742,l),
(217,724,o),
(217,716,o),
(217,716,c),
(217,682,o),
(217,750,o),
(217,750,c),
(205,750,l),
(77,713,l),
(77,713,o),
(77,707,o),
(77,697,cs),
(77,687,o),
(77,680,o),
(77,681,c),
(93,685,ls),
(125,694,o),
(147,688,o),
(147,621,c),
(217,638,l)
);
}
);
width = 629;
},
{
anchors = (
{
name = bottom;
pos = (259,0);
},
{
name = center;
pos = (102,780);
},
{
name = top;
pos = (259,500);
}
);
layerId = "D3C24151-4D63-4841-9665-5260E3226900";
shapes = (
{
closed = 1;
nodes = (
(90,0,l),
(170,145,l),
(184,195,l),
(184,638,l),
(84,638,l),
(84,195,l),
(84,195,l),
(84,0,l)
);
},
{
closed = 1;
nodes = (
(126,195,l),
(126,65,l),
(147,20,o),
(214,-10,o),
(295,-10,cs),
(435,-10,o),
(529,95,o),
(529,253,cs),
(529,404,o),
(443,505,o),
(315,505,cs),
(258,505,o),
(201,475,o),
(172,429,c),
(172,400,l),
(197,438,o),
(237,464,o),
(274,464,cs),
(360,464,o),
(417,375,o),
(417,241,cs),
(417,104,o),
(370,12,o),
(300,12,cs),
(243,12,o),
(197,35,o),
(184,70,c),
(184,195,l)
);
},
{
closed = 1;
nodes = (
(184,732,o),
(184,750,o),
(184,750,c),
(184,750,l),
(184,750,o),
(184,750,o),
(184,750,c),
(184,750,o),
(184,750,o),
(184,750,c),
(166,750,l),
(13,706,l),
(13,706,o),
(13,700,o),
(13,690,cs),
(13,680,o),
(13,673,o),
(13,674,c),
(29,678,ls),
(62,687,o),
(84,681,o),
(84,614,c),
(184,638,l)
);
}
);
width = 588;
},
{
anchors = (
{
name = bottom;
pos = (315,0);
},
{
name = center;
pos = (158,780);
},
{
name = top;
pos = (315,500);
}
);
layerId = "8EEC74F5-9CFA-47B4-A8F8-9A6461F2D63F";
shapes = (
{
closed = 1;
nodes = (
(143,0,l),
(236,138,l),
(251,195,l),
(251,638,l),
(136,638,l),
(136,195,l),
(136,195,l),
(136,0,l)
);
},
{
closed = 1;
nodes = (
(184,195,l),
(187,65,l),
(203,20,o),
(267,-10,o),
(347,-10,cs),
(490,-10,o),
(586,95,o),
(586,253,cs),
(586,404,o),
(502,505,o),
(377,505,cs),
(321,505,o),
(265,476,o),
(238,434,c),
(238,400,l),
(259,435,o),
(296,458,o),
(330,458,cs),
(406,458,o),
(457,371,o),
(457,240,cs),
(457,106,o),
(416,16,o),
(354,16,cs),
(304,16,o),
(263,38,o),
(251,70,c),
(251,195,l)
);
},
{
closed = 1;
nodes = (
(251,732,o),
(251,750,o),
(251,750,c),
(251,750,l),
(251,750,o),
(251,750,o),
(251,750,c),
(251,750,o),
(251,750,o),
(251,750,c),
(231,750,l),
(66,703,l),
(66,703,o),
(66,696,o),
(66,686,cs),
(66,676,o),
(66,670,o),
(66,670,c),
(81,674,ls),
(114,684,o),
(136,677,o),
(136,610,c),
(251,638,l)
);
}
);
width = 630;
}
);
note = b;
unicode = 98;
},
{
glyphname = c;
kernLeft = o;
kernRight = o;
lastChange = "2026-03-02 22:18:29 +0000";
layers = (
{
anchors = (
{
name = bottom;
pos = (265,0);
},
{
name = top;
pos = (265,500);
}
);
layerId = "E059459B-5795-442B-8710-0018C46129BA";
shapes = (
{
closed = 1;
nodes = (
(477,135,l),
(450,68,o),
(381,24,o),
(305,24,cs),
(191,24,o),
(114,121,o),
(114,266,cs),
(114,405,o),
(193,497,o),
(312,497,cs),
(364,497,o),
(413,460,o),
(433,405,cs),
(439,388,o),
(450,377,o),
(461,377,c),
(461,377,l),
(484,377,o),
(495,388,o),
(488,405,cs),
(465,468,o),
(396,510,o),
(315,510,cs),
(161,510,o),
(58,401,o),
(58,238,cs),
(58,89,o),
(149,-10,o),
(286,-10,cs),
(370,-10,o),
(450,47,o),
(485,132,c)
);
}
);
width = 538;
},
{
anchors = (
{
name = bottom;
pos = (265,0);
},
{
name = top;
pos = (265,500);
}
);
layerId = "261B483D-14CB-4AC5-AE3A-41E540C8643C";
shapes = (
{
closed = 1;
nodes = (
(473,137,l),
(449,80,o),
(386,42,o),
(315,42,cs),
(214,42,o),
(147,135,o),
(147,273,cs),
(147,404,o),
(213,491,o),
(311,491,cs),
(348,491,o),
(385,457,o),
(404,405,cs),
(413,379,o),
(430,362,o),
(447,362,c),
(447,362,l),
(482,362,o),
(499,379,o),
(490,405,cs),
(467,468,o),
(398,510,o),
(316,510,cs),
(161,510,o),
(58,400,o),
(58,236,cs),
(58,88,o),
(149,-10,o),
(285,-10,cs),
(369,-10,o),
(449,47,o),
(485,132,c)
);
}
);
width = 540;
},
{
anchors = (
{
name = bottom;
pos = (250,0);
},
{
name = top;
pos = (250,500);
}
);
layerId = "B523A5AF-871D-4AB2-9BF1-E01A824009A4";
shapes = (
{
closed = 1;
nodes = (
(460,136,l),
(433,74,o),
(367,32,o),
(295,32,cs),
(186,32,o),
(114,127,o),
(114,270,cs),
(114,404,o),
(187,494,o),
(296,494,cs),
(341,494,o),
(384,458,o),
(404,405,cs),
(411,384,o),
(425,370,o),
(439,370,c),
(439,370,l),
(467,370,o),
(481,384,o),
(474,405,cs),
(450,468,o),
(381,510,o),
(300,510,cs),
(146,510,o),
(43,401,o),
(43,237,cs),
(43,89,o),
(134,-10,o),
(270,-10,cs),
(354,-10,o),
(434,47,o),
(470,132,c)
);
}
);
width = 499;
},
{
anchors = (
{
name = bottom;
pos = (266,0);
},
{
name = top;
pos = (266,500);
}
);
layerId = "D3C24151-4D63-4841-9665-5260E3226900";
shapes = (
{
closed = 1;
nodes = (
(471,138,l),
(449,86,o),
(389,51,o),
(320,51,cs),
(226,51,o),
(163,141,o),
(163,276,cs),
(163,402,o),
(222,487,o),
(311,487,cs),
(341,487,o),
(373,454,o),
(391,405,cs),
(402,375,o),
(422,355,o),
(441,355,c),
(441,355,l),
(482,355,o),
(502,375,o),
(491,405,cs),
(468,468,o),
(398,510,o),
(316,510,cs),
(161,510,o),
(58,400,o),
(58,235,cs),
(58,88,o),
(149,-10,o),
(285,-10,cs),
(370,-10,o),
(450,47,o),
(485,132,c)
);
}
);
width = 542;
},
{
anchors = (
{
name = bottom;
pos = (248,0);
},
{
name = top;
pos = (248,500);
}
);
layerId = "8EEC74F5-9CFA-47B4-A8F8-9A6461F2D63F";
shapes = (
{
closed = 1;
nodes = (
(451,139,l),
(431,91,o),
(374,60,o),
(308,60,cs),
(221,60,o),
(163,147,o),
(163,277,cs),
(163,401,o),
(215,484,o),
(292,484,cs),
(315,484,o),
(341,452,o),
(359,405,cs),
(371,371,o),
(394,348,o),
(416,348,c),
(416,348,l),
(463,348,o),
(486,371,o),
(474,405,cs),
(450,468,o),
(380,510,o),
(299,510,cs),
(143,510,o),
(40,400,o),
(40,234,cs),
(40,88,o),
(131,-10,o),
(267,-10,cs),
(352,-10,o),
(432,47,o),
(467,132,c)
);
}
);
width = 496;
}
);
note = c;
unicode = 99;
},
{
glyphname = d;
kernLeft = o;
kernRight = o;
lastChange = "2026-03-02 22:18:30 +0000";
layers = (
{
anchors = (
{
name = bottom;
pos = (291,0);
},
{
name = center;
pos = (434,780);
},
{
name = top;
pos = (291,500);
},
{
name = topright;
pos = (557,975);
}
);
layerId = "E059459B-5795-442B-8710-0018C46129BA";
shapes = (
{
closed = 1;
nodes = (
(509,123,l),
(509,688,l),
(453,688,l),
(453,123,l)
);
},
{
closed = 1;
nodes = (
(456,95,l),
(424,49,o),
(365,18,o),
(307,18,cs),
(192,18,o),
(115,118,o),
(115,268,cs),
(115,404,o),
(183,494,o),
(316,494,cs),
(368,494,o),
(428,444,o),
(456,385,c),
(485,404,l),
(458,461,o),
(384,510,o),
(310,510,cs),
(144,510,o),
(58,407,o),
(58,253,cs),
(58,98,o),
(149,-5,o),
(284,-5,cs),
(354,-5,o),
(423,27,o),
(456,75,c)
);
},
{
closed = 1;
nodes = (
(509,740,o),
(509,750,o),
(509,750,c),
(509,750,l),
(509,750,o),
(509,750,o),
(509,750,c),
(509,750,o),
(509,750,o),
(509,750,c),
(499,750,l),
(383,717,l),
(383,717,o),
(383,710,o),
(383,700,cs),
(383,690,o),
(383,684,o),
(383,684,c),
(398,689,ls),
(431,698,o),
(453,699,o),
(453,674,c),
(509,688,l)
);
},
{
closed = 1;
nodes = (
(453,123,l),
(453,11,o),
(453,-10,o),
(453,-10,c),
(453,-10,l),
(453,-10,o),
(453,-10,o),
(453,-10,c),
(453,-10,o),
(453,-10,o),
(453,-10,c),
(463,-10,l),
(579,19,l),
(579,19,o),
(579,25,o),
(579,35,cs),
(579,45,o),
(579,52,o),
(579,52,c),
(563,48,ls),
(531,40,o),
(509,50,o),
(509,134,c)
);
}
);
width = 621;
},
{
anchors = (
{
name = bottom;
pos = (300,0);
},
{
name = center;
pos = (443,780);
},
{
name = top;
pos = (300,500);
},
{
name = topright;
pos = (566,975);
}
);
layerId = "261B483D-14CB-4AC5-AE3A-41E540C8643C";
shapes = (
{
closed = 1;
nodes = (
(517,123,l),
(517,688,l),
(431,688,l),
(431,123,l)
);
},
{
closed = 1;
nodes = (
(436,103,l),
(406,60,o),
(355,31,o),
(308,31,cs),
(211,31,o),
(147,128,o),
(147,275,cs),
(147,401,o),
(201,485,o),
(306,485,cs),
(355,485,o),
(410,439,o),
(436,385,c),
(481,415,l),
(456,466,o),
(379,510,o),
(296,510,cs),
(140,510,o),
(59,406,o),
(59,251,cs),
(59,97,o),
(144,-5,o),
(272,-5,cs),
(338,-5,o),
(404,26,o),
(436,72,c)
);
},
{
closed = 1;
nodes = (
(517,740,o),
(517,750,o),
(517,750,c),
(517,750,l),
(517,750,o),
(517,750,o),
(517,750,c),
(517,750,o),
(517,750,o),
(517,750,c),
(502,750,l),
(361,710,l),
(361,710,o),
(361,703,o),
(361,693,cs),
(361,683,o),
(361,677,o),
(361,677,c),
(377,681,ls),
(409,690,o),
(431,692,o),
(431,667,c),
(517,688,l)
);
},
{
closed = 1;
nodes = (
(431,123,l),
(431,11,o),
(431,-10,o),
(431,-10,c),
(431,-10,l),
(431,-10,o),
(431,-10,o),
(431,-10,c),
(431,-10,o),
(431,-10,o),
(431,-10,c),
(447,-10,l),
(588,25,l),
(588,25,o),
(588,32,o),
(588,42,cs),
(588,52,o),
(588,58,o),
(588,58,c),
(572,54,ls),
(539,46,o),
(517,57,o),
(517,140,c)
);
}
);
width = 630;
},
{
anchors = (
{
name = bottom;
pos = (287,0);
},
{
name = center;
pos = (430,780);
},
{
name = top;
pos = (287,500);
},
{
name = topright;
pos = (553,975);
}
);
layerId = "B523A5AF-871D-4AB2-9BF1-E01A824009A4";
shapes = (
{
closed = 1;
nodes = (
(504,123,l),
(504,688,l),
(434,688,l),
(434,123,l)
);
},
{
closed = 1;
nodes = (
(439,99,l),
(407,54,o),
(351,24,o),
(299,24,cs),
(193,24,o),
(122,123,o),
(122,271,cs),
(122,403,o),
(184,490,o),
(303,490,cs),
(354,490,o),
(411,442,o),
(439,385,c),
(475,410,l),
(449,464,o),
(374,510,o),
(295,510,cs),
(133,510,o),
(50,407,o),
(50,252,cs),
(50,98,o),
(138,-5,o),
(270,-5,cs),
(338,-5,o),
(405,27,o),
(439,74,c)
);
},
{
closed = 1;
nodes = (
(504,740,o),
(504,750,o),
(504,750,c),
(504,750,l),
(504,750,o),
(504,750,o),
(504,750,c),
(504,750,o),
(504,750,o),
(504,750,c),
(492,750,l),
(364,713,l),
(364,713,o),
(364,707,o),
(364,697,cs),
(364,687,o),
(364,680,o),
(364,681,c),
(380,685,ls),
(412,694,o),
(434,696,o),
(434,671,c),
(504,688,l)
);
},
{
closed = 1;
nodes = (
(434,123,l),
(434,11,o),
(434,-10,o),
(434,-10,c),
(434,-10,l),
(434,-10,o),
(434,-10,o),
(434,-10,c),
(434,-10,o),
(434,-10,o),
(434,-10,c),
(447,-10,l),
(575,22,l),
(575,22,o),
(575,28,o),
(575,38,cs),
(575,48,o),
(575,55,o),
(575,55,c),
(559,51,ls),
(526,43,o),
(504,53,o),
(504,137,c)
);
}
);
width = 573;
},
{
anchors = (
{
name = bottom;
pos = (304,0);
},
{
name = center;
pos = (447,780);
},
{
name = top;
pos = (304,500);
},
{
name = topright;
pos = (570,975);
}
);
layerId = "D3C24151-4D63-4841-9665-5260E3226900";
shapes = (
{
closed = 1;
nodes = (
(521,123,l),
(521,688,l),
(421,688,l),
(421,123,l)
);
},
{
closed = 1;
nodes = (
(427,106,l),
(398,65,o),
(350,37,o),
(308,37,cs),
(220,37,o),
(162,133,o),
(162,278,cs),
(162,400,o),
(209,481,o),
(301,481,cs),
(348,481,o),
(402,437,o),
(427,385,c),
(479,420,l),
(455,469,o),
(377,510,o),
(289,510,cs),
(137,510,o),
(59,406,o),
(59,250,cs),
(59,97,o),
(142,-5,o),
(266,-5,cs),
(331,-5,o),
(395,25,o),
(427,71,c)
);
},
{
closed = 1;
nodes = (
(521,740,o),
(521,750,o),
(521,750,c),
(521,750,l),
(521,750,o),
(521,750,o),
(521,750,c),
(521,750,o),
(521,750,o),
(521,750,c),
(504,750,l),
(351,706,l),
(351,706,o),
(351,700,o),
(351,690,cs),
(351,680,o),
(351,673,o),
(351,674,c),
(367,678,ls),
(399,687,o),
(421,689,o),
(421,664,c),
(521,688,l)
);
},
{
closed = 1;
nodes = (
(421,123,l),
(421,11,o),
(421,-10,o),
(421,-10,c),
(421,-10,l),
(421,-10,o),
(421,-10,o),
(421,-10,c),
(421,-10,o),
(421,-10,o),
(421,-10,c),
(439,-10,l),
(592,28,l),
(592,28,o),
(592,35,o),
(592,44,cs),
(592,54,o),
(592,61,o),
(592,61,c),
(576,57,ls),
(543,49,o),
(521,59,o),
(521,143,c)
);
}
);
width = 634;
},
{
anchors = (
{
name = bottom;
pos = (287,0);
},
{
name = center;
pos = (430,780);
},
{
name = top;
pos = (287,500);
},
{
name = topright;
pos = (553,975);
}
);
layerId = "8EEC74F5-9CFA-47B4-A8F8-9A6461F2D63F";
shapes = (
{
closed = 1;
nodes = (
(504,123,l),
(504,688,l),
(389,688,l),
(389,123,l)
);
},
{
closed = 1;
nodes = (
(396,110,l),
(368,70,o),
(324,43,o),
(287,43,cs),
(208,43,o),
(156,138,o),
(156,281,cs),
(156,398,o),
(196,477,o),
(274,477,cs),
(320,477,o),
(372,435,o),
(396,385,c),
(456,425,l),
(434,471,o),
(353,510,o),
(261,510,cs),
(114,510,o),
(39,406,o),
(39,249,cs),
(39,97,o),
(119,-5,o),
(239,-5,cs),
(302,-5,o),
(365,25,o),
(396,70,c)
);
},
{
closed = 1;
nodes = (
(504,740,o),
(504,750,o),
(504,750,c),
(504,750,l),
(504,750,o),
(504,750,o),
(504,750,c),
(504,750,o),
(504,750,o),
(504,750,c),
(484,750,l),
(319,703,l),
(319,703,o),
(319,696,o),
(319,686,cs),
(319,676,o),
(319,670,o),
(319,670,c),
(335,674,ls),
(367,684,o),
(389,685,o),
(389,660,c),
(504,688,l)
);
},
{
closed = 1;
nodes = (
(389,123,l),
(389,11,o),
(389,-10,o),
(389,-10,c),
(389,-10,l),
(389,-10,o),
(389,-10,o),
(389,-10,c),
(389,-10,o),
(389,-10,o),
(389,-10,c),
(409,-10,l),
(575,31,l),
(575,31,o),
(575,38,o),
(575,48,cs),
(575,58,o),
(575,64,o),
(575,64,c),
(559,60,ls),
(526,52,o),
(504,63,o),
(504,146,c)
);
}
);
width = 573;
}
);
note = d;
unicode = 100;
},
{
glyphname = e;
kernLeft = o;
kernRight = o;
lastChange = "2026-03-02 22:20:07 +0000";
layers = (
{
anchors = (
{
name = bottom;
pos = (274,0);
},
{
name = ogonek;
pos = (480,10);
},
{
name = top;
pos = (274,500);
}
);
layerId = "E059459B-5795-442B-8710-0018C46129BA";
shapes = (
{
closed = 1;
nodes = (
(117,307,l),
(487,307,ls),
(496,307,o),
(502,307,o),
(502,307,c),
(487,453,o),
(411,510,o),
(306,510,cs),
(157,510,o),
(58,400,o),
(58,234,cs),
(58,88,o),
(149,-10,o),
(285,-10,cs),
(379,-10,o),
(461,49,o),
(491,137,c),
(484,140,l),
(461,71,o),
(387,26,o),
(299,26,cs),
(190,26,o),
(117,118,o),
(117,257,cs),
(117,401,o),
(191,497,o),
(302,497,cs),
(374,497,o),
(426,444,o),
(441,307,c),
(441,316,o),
(459,323,o),
(487,323,cs),
(117,319,l)
);
}
);
width = 553;
},
{
anchors = (
{
name = bottom;
pos = (278,0);
},
{
name = ogonek;
pos = (487,10);
},
{
name = top;
pos = (278,500);
}
);
layerId = "261B483D-14CB-4AC5-AE3A-41E540C8643C";
shapes = (
{
closed = 1;
nodes = (
(148,307,l),
(486,307,ls),
(500,307,o),
(510,307,o),
(510,307,c),
(508,453,o),
(428,510,o),
(309,510,cs),
(159,510,o),
(58,399,o),
(58,231,cs),
(58,87,o),
(150,-10,o),
(287,-10,cs),
(384,-10,o),
(468,49,o),
(498,136,c),
(487,140,l),
(469,84,o),
(397,46,o),
(308,46,cs),
(212,46,o),
(148,134,o),
(148,266,cs),
(148,401,o),
(211,491,o),
(305,491,cs),
(369,491,o),
(413,439,o),
(415,307,c),
(415,322,o),
(443,332,o),
(486,332,cs),
(148,327,l)
);
}
);
width = 562;
},
{
anchors = (
{
name = bottom;
pos = (260,0);
},
{
name = ogonek;
pos = (467,10);
},
{
name = top;
pos = (260,500);
}
);
layerId = "B523A5AF-871D-4AB2-9BF1-E01A824009A4";
shapes = (
{
closed = 1;
nodes = (
(115,307,l),
(470,307,ls),
(481,307,o),
(489,307,o),
(489,307,c),
(480,453,o),
(402,510,o),
(291,510,cs),
(141,510,o),
(41,399,o),
(41,233,cs),
(41,87,o),
(133,-10,o),
(270,-10,cs),
(365,-10,o),
(448,49,o),
(478,137,c),
(469,140,l),
(448,77,o),
(375,36,o),
(287,36,cs),
(184,36,o),
(115,126,o),
(115,261,cs),
(115,401,o),
(184,494,o),
(287,494,cs),
(355,494,o),
(403,442,o),
(412,307,c),
(412,319,o),
(435,327,o),
(470,327,cs),
(115,323,l)
);
}
);
width = 519;
},
{
anchors = (
{
name = bottom;
pos = (281,0);
},
{
name = ogonek;
pos = (491,10);
},
{
name = top;
pos = (281,500);
}
);
layerId = "D3C24151-4D63-4841-9665-5260E3226900";
shapes = (
{
closed = 1;
nodes = (
(163,307,l),
(486,307,ls),
(503,307,o),
(514,307,o),
(514,307,c),
(514,453,o),
(433,510,o),
(312,510,cs),
(160,510,o),
(58,398,o),
(58,230,cs),
(58,86,o),
(150,-10,o),
(289,-10,cs),
(387,-10,o),
(472,48,o),
(502,136,c),
(490,140,l),
(472,90,o),
(402,56,o),
(313,56,cs),
(223,56,o),
(163,142,o),
(163,270,cs),
(163,400,o),
(220,487,o),
(306,487,cs),
(364,487,o),
(403,436,o),
(403,307,c),
(403,324,o),
(436,336,o),
(486,336,cs),
(163,330,l)
);
}
);
width = 566;
},
{
anchors = (
{
name = bottom;
pos = (265,0);
},
{
name = ogonek;
pos = (476,10);
},
{
name = top;
pos = (265,500);
}
);
layerId = "8EEC74F5-9CFA-47B4-A8F8-9A6461F2D63F";
shapes = (
{
closed = 1;
nodes = (
(160,307,l),
(467,307,ls),
(486,307,o),
(499,307,o),
(499,307,c),
(499,453,o),
(417,510,o),
(295,510,cs),
(141,510,o),
(39,397,o),
(39,228,cs),
(39,85,o),
(132,-10,o),
(271,-10,cs),
(371,-10,o),
(458,48,o),
(487,135,c),
(473,140,l),
(457,96,o),
(388,66,o),
(299,66,cs),
(215,66,o),
(160,150,o),
(160,275,cs),
(160,400,o),
(211,484,o),
(289,484,cs),
(339,484,o),
(372,434,o),
(372,307,c),
(372,327,o),
(410,340,o),
(467,340,cs),
(160,333,l)
);
}
);
width = 529;
}
);
note = e;
unicode = 101;
},
{
glyphname = f;
lastChange = "2026-03-02 22:18:30 +0000";
layers = (
{
anchors = (
{
name = bottom;
pos = (206,0);
},
{
name = top;
pos = (206,975);
}
);
layerId = "E059459B-5795-442B-8710-0018C46129BA";
shapes = (
{
closed = 1;
nodes = (
(319,738,l),
(393,738,o),
(361,635,o),
(423,635,cs),
(450,635,o),
(468,653,o),
(468,680,cs),
(468,725,o),
(416,755,o),
(339,755,c)
);
},
{
closed = 1;
nodes = (
(210,38,l),
(210,500,ls),
(210,643,o),
(247,738,o),
(319,738,c),
(339,755,l),
(218,755,o),
(155,653,o),
(155,500,cs),
(155,38,l)
);
},
{
closed = 1;
nodes = (
(356,500,l),
(155,500,l),
(40,477,l),
(40,471,l),
(155,471,l),
(356,471,l)
);
},
{
closed = 1;
nodes = (
(155,38,l),
(155,34,o),
(133,33,o),
(100,33,cs),
(84,33,l),
(84,33,o),
(84,26,o),
(84,16,cs),
(84,7,o),
(84,0,o),
(84,0,c),
(182,0,l),
(281,0,l),
(281,0,o),
(281,7,o),
(281,16,cs),
(281,26,o),
(281,33,o),
(281,33,c),
(265,33,ls),
(232,33,o),
(210,34,o),
(210,38,c)
);
}
);
width = 396;
},
{
anchors = (
{
name = bottom;
pos = (221,0);
},
{
name = top;
pos = (221,975);
}
);
layerId = "261B483D-14CB-4AC5-AE3A-41E540C8643C";
shapes = (
{
closed = 1;
nodes = (
(339,728,l),
(407,728,o),
(396,635,o),
(453,635,cs),
(480,635,o),
(498,653,o),
(498,680,cs),
(498,725,o),
(447,755,o),
(369,755,c)
);
},
{
closed = 1;
nodes = (
(241,38,l),
(241,500,ls),
(241,637,o),
(274,728,o),
(339,728,c),
(369,755,l),
(228,755,o),
(155,653,o),
(155,500,cs),
(155,38,l)
);
},
{
closed = 1;
nodes = (
(386,500,l),
(155,500,l),
(40,465,l),
(40,455,l),
(155,455,l),
(386,455,l)
);
},
{
closed = 1;
nodes = (
(155,38,l),
(155,34,o),
(133,33,o),
(100,33,cs),
(84,33,l),
(84,33,o),
(84,26,o),
(84,16,cs),
(84,7,o),
(84,0,o),
(84,0,c),
(198,0,l),
(311,0,l),
(311,0,o),
(311,7,o),
(311,16,cs),
(311,26,o),
(311,33,o),
(311,33,c),
(295,33,ls),
(263,33,o),
(241,34,o),
(241,38,c)
);
}
);
width = 427;
},
{
anchors = (
{
name = bottom;
pos = (167,0);
},
{
name = top;
pos = (167,975);
}
);
layerId = "B523A5AF-871D-4AB2-9BF1-E01A824009A4";
shapes = (
{
closed = 1;
nodes = (
(283,733,l),
(353,733,o),
(332,635,o),
(391,635,cs),
(418,635,o),
(436,653,o),
(436,680,cs),
(436,725,o),
(385,755,o),
(307,755,c)
);
},
{
closed = 1;
nodes = (
(179,38,l),
(179,500,ls),
(179,640,o),
(214,733,o),
(283,733,c),
(307,755,l),
(176,755,o),
(109,653,o),
(109,500,cs),
(109,38,l)
);
},
{
closed = 1;
nodes = (
(324,500,l),
(109,500,l),
(-6,471,l),
(-6,463,l),
(109,463,l),
(324,463,l)
);
},
{
closed = 1;
nodes = (
(109,38,l),
(109,34,o),
(87,33,o),
(54,33,cs),
(38,33,l),
(38,33,o),
(38,26,o),
(38,16,cs),
(38,7,o),
(38,0,o),
(38,0,c),
(144,0,l),
(249,0,l),
(249,0,o),
(249,7,o),
(249,16,cs),
(249,26,o),
(249,33,o),
(249,33,c),
(233,33,ls),
(201,33,o),
(179,34,o),
(179,38,c)
);
}
);
width = 334;
},
{
anchors = (
{
name = bottom;
pos = (229,0);
},
{
name = top;
pos = (229,975);
}
);
layerId = "D3C24151-4D63-4841-9665-5260E3226900";
shapes = (
{
closed = 1;
nodes = (
(349,724,l),
(416,724,o),
(412,635,o),
(468,635,cs),
(495,635,o),
(513,653,o),
(513,680,cs),
(513,725,o),
(462,755,o),
(384,755,c)
);
},
{
closed = 1;
nodes = (
(256,38,l),
(256,500,ls),
(256,634,o),
(288,724,o),
(349,724,c),
(384,755,l),
(234,755,o),
(156,653,o),
(156,500,cs),
(156,38,l)
);
},
{
closed = 1;
nodes = (
(401,500,l),
(156,500,l),
(41,459,l),
(41,447,l),
(156,447,l),
(401,447,l)
);
},
{
closed = 1;
nodes = (
(156,38,l),
(156,34,o),
(134,33,o),
(101,33,cs),
(85,33,l),
(85,33,o),
(85,26,o),
(85,16,cs),
(85,7,o),
(85,0,o),
(85,0,c),
(206,0,l),
(326,0,l),
(326,0,o),
(326,7,o),
(326,16,cs),
(326,26,o),
(326,33,o),
(326,33,c),
(310,33,ls),
(278,33,o),
(256,34,o),
(256,38,c)
);
}
);
width = 443;
},
{
anchors = (
{
name = bottom;
pos = (190,0);
},
{
name = top;
pos = (190,975);
}
);
layerId = "8EEC74F5-9CFA-47B4-A8F8-9A6461F2D63F";
shapes = (
{
closed = 1;
nodes = (
(311,719,l),
(377,719,o),
(381,635,o),
(436,635,cs),
(463,635,o),
(481,653,o),
(481,680,cs),
(481,725,o),
(430,755,o),
(352,755,c)
);
},
{
closed = 1;
nodes = (
(224,38,l),
(224,500,ls),
(224,631,o),
(254,719,o),
(311,719,c),
(352,755,l),
(192,755,o),
(109,653,o),
(109,500,cs),
(109,38,l)
);
},
{
closed = 1;
nodes = (
(369,500,l),
(109,500,l),
(-6,453,l),
(-6,439,l),
(109,439,l),
(369,439,l)
);
},
{
closed = 1;
nodes = (
(109,38,l),
(109,34,o),
(87,33,o),
(54,33,cs),
(38,33,l),
(38,33,o),
(38,26,o),
(38,16,cs),
(38,7,o),
(38,0,o),
(38,0,c),
(166,0,l),
(294,0,l),
(294,0,o),
(294,7,o),
(294,16,cs),
(294,26,o),
(294,33,o),
(294,33,c),
(278,33,ls),
(246,33,o),
(224,34,o),
(224,38,c)
);
}
);
width = 379;
}
);
note = f;
unicode = 102;
},
{
glyphname = g;
lastChange = "2026-03-02 22:18:30 +0000";
layers = (
{
anchors = (
{
name = bottom;
pos = (252,-300);
},
{
name = top;
pos = (252,500);
}
);
layerId = "E059459B-5795-442B-8710-0018C46129BA";
shapes = (
{
closed = 1;
nodes = (
(517,433,l),
(517,422,o),
(527,414,o),
(543,414,cs),
(557,414,o),
(566,424,o),
(566,440,c)
);
},
{
closed = 1;
nodes = (
(347,188,o),
(416,253,o),
(416,350,cs),
(416,446,o),
(347,510,o),
(244,510,cs),
(141,510,o),
(72,446,o),
(72,350,cs),
(72,253,o),
(141,188,o),
(244,188,cs)
);
},
{
closed = 1;
nodes = (
(127,438,o),
(174,497,o),
(244,497,cs),
(313,497,o),
(360,438,o),
(360,350,cs),
(360,261,o),
(313,201,o),
(244,201,cs),
(174,201,o),
(127,261,o),
(127,350,cs)
);
},
{
closed = 1;
nodes = (
(127,199,o),
(52,162,o),
(52,107,cs),
(52,51,o),
(102,14,o),
(176,14,cs),
(287,14,ls),
(388,15,o),
(427,-27,o),
(427,-90,cs),
(427,-166,o),
(362,-217,o),
(264,-217,cs),
(162,-217,o),
(94,-162,o),
(94,-80,cs),
(94,-30,o),
(128,10,o),
(180,21,c),
(165,21,l),
(95,6,o),
(49,-40,o),
(49,-93,cs),
(49,-175,o),
(134,-230,o),
(261,-230,cs),
(388,-230,o),
(473,-169,o),
(473,-77,cs),
(473,11,o),
(422,69,o),
(293,70,cs),
(179,70,ls),
(122,70,o),
(84,91,o),
(84,123,cs),
(84,162,o),
(148,188,o),
(244,188,c),
(241,199,l)
);
},
{
closed = 1;
nodes = (
(566,473,o),
(545,495,o),
(514,495,cs),
(467,495,o),
(423,454,o),
(402,392,c),
(406,378,l),
(425,434,o),
(459,472,o),
(491,472,cs),
(507,472,o),
(517,456,o),
(517,433,c),
(566,440,l)
);
}
);
width = 609;
},
{
anchors = (
{
name = bottom;
pos = (253,-300);
},
{
name = top;
pos = (253,500);
}
);
layerId = "261B483D-14CB-4AC5-AE3A-41E540C8643C";
shapes = (
{
closed = 1;
nodes = (
(499,429,l),
(499,412,o),
(515,400,o),
(539,400,cs),
(560,400,o),
(574,416,o),
(574,440,c)
);
},
{
closed = 1;
nodes = (
(354,188,o),
(424,253,o),
(424,350,cs),
(424,446,o),
(354,510,o),
(248,510,cs),
(143,510,o),
(73,446,o),
(73,350,cs),
(73,253,o),
(143,188,o),
(248,188,cs)
);
},
{
closed = 1;
nodes = (
(159,434,o),
(195,490,o),
(248,490,cs),
(302,490,o),
(338,434,o),
(338,350,cs),
(338,265,o),
(302,208,o),
(248,208,cs),
(195,208,o),
(159,265,o),
(159,350,cs)
);
},
{
closed = 1;
nodes = (
(129,206,o),
(53,165,o),
(53,105,cs),
(53,41,o),
(101,-1,o),
(172,-1,cs),
(283,-1,ls),
(370,-1,o),
(403,-36,o),
(403,-88,cs),
(403,-161,o),
(347,-210,o),
(263,-210,cs),
(174,-210,o),
(114,-156,o),
(114,-75,cs),
(114,-32,o),
(140,1,o),
(178,9,c),
(155,9,l),
(88,-5,o),
(43,-46,o),
(43,-95,cs),
(43,-176,o),
(129,-230,o),
(259,-230,cs),
(388,-230,o),
(474,-165,o),
(474,-68,cs),
(474,23,o),
(423,84,o),
(292,85,cs),
(177,85,ls),
(132,85,o),
(103,103,o),
(103,130,cs),
(103,165,o),
(161,188,o),
(248,188,c),
(244,206,l)
);
},
{
closed = 1;
nodes = (
(574,473,o),
(553,495,o),
(521,495,cs),
(474,495,o),
(427,463,o),
(404,415,c),
(409,392,l),
(429,432,o),
(459,459,o),
(485,459,cs),
(493,459,o),
(499,447,o),
(499,429,c),
(574,440,l)
);
}
);
width = 618;
},
{
anchors = (
{
name = bottom;
pos = (255,-300);
},
{
name = top;
pos = (255,500);
}
);
layerId = "B523A5AF-871D-4AB2-9BF1-E01A824009A4";
shapes = (
{
closed = 1;
nodes = (
(511,431,l),
(511,417,o),
(524,407,o),
(544,407,cs),
(561,407,o),
(572,420,o),
(572,440,c)
);
},
{
closed = 1;
nodes = (
(353,188,o),
(422,253,o),
(422,350,cs),
(422,446,o),
(353,510,o),
(248,510,cs),
(144,510,o),
(75,446,o),
(75,350,cs),
(75,253,o),
(144,188,o),
(248,188,cs)
);
},
{
closed = 1;
nodes = (
(145,436,o),
(186,494,o),
(248,494,cs),
(311,494,o),
(352,436,o),
(352,350,cs),
(352,262,o),
(311,204,o),
(248,204,cs),
(186,204,o),
(145,262,o),
(145,350,cs)
);
},
{
closed = 1;
nodes = (
(131,202,o),
(55,164,o),
(55,106,cs),
(55,47,o),
(104,7,o),
(177,7,cs),
(288,7,ls),
(382,7,o),
(418,-31,o),
(418,-89,cs),
(418,-164,o),
(357,-214,o),
(266,-214,cs),
(170,-214,o),
(106,-159,o),
(106,-78,cs),
(106,-32,o),
(136,6,o),
(182,15,c),
(163,15,l),
(94,1,o),
(49,-43,o),
(49,-94,cs),
(49,-176,o),
(134,-230,o),
(262,-230,cs),
(390,-230,o),
(476,-167,o),
(476,-72,cs),
(476,17,o),
(425,77,o),
(295,77,cs),
(181,77,ls),
(130,77,o),
(96,97,o),
(96,127,cs),
(96,163,o),
(157,188,o),
(248,188,c),
(245,202,l)
);
},
{
closed = 1;
nodes = (
(572,473,o),
(551,495,o),
(520,495,cs),
(477,495,o),
(432,458,o),
(406,404,c),
(410,385,l),
(433,434,o),
(465,466,o),
(491,466,cs),
(503,466,o),
(511,452,o),
(511,431,c),
(572,440,l)
);
}
);
width = 510;
},
{
anchors = (
{
name = bottom;
pos = (255,-300);
},
{
name = top;
pos = (255,500);
}
);
layerId = "D3C24151-4D63-4841-9665-5260E3226900";
shapes = (
{
closed = 1;
nodes = (
(492,428,l),
(492,407,o),
(511,393,o),
(539,393,cs),
(563,393,o),
(580,412,o),
(580,440,c)
);
},
{
closed = 1;
nodes = (
(359,188,o),
(430,253,o),
(430,350,cs),
(430,446,o),
(359,510,o),
(252,510,cs),
(146,510,o),
(75,446,o),
(75,350,cs),
(75,253,o),
(146,188,o),
(252,188,cs)
);
},
{
closed = 1;
nodes = (
(175,432,o),
(206,486,o),
(252,486,cs),
(299,486,o),
(330,432,o),
(330,350,cs),
(330,267,o),
(299,212,o),
(252,212,cs),
(206,212,o),
(175,267,o),
(175,350,cs)
);
},
{
closed = 1;
nodes = (
(131,208,o),
(54,166,o),
(54,104,cs),
(54,37,o),
(101,-8,o),
(172,-8,cs),
(283,-8,ls),
(362,-8,o),
(393,-40,o),
(393,-87,cs),
(393,-159,o),
(342,-207,o),
(265,-207,cs),
(181,-207,o),
(125,-153,o),
(125,-72,cs),
(125,-34,o),
(146,-3,o),
(179,4,c),
(151,4,l),
(86,-10,o),
(42,-50,o),
(42,-96,cs),
(42,-176,o),
(129,-230,o),
(259,-230,cs),
(389,-230,o),
(476,-163,o),
(476,-63,cs),
(476,29,o),
(425,91,o),
(294,92,cs),
(177,92,ls),
(139,92,o),
(113,109,o),
(113,133,cs),
(113,166,o),
(169,188,o),
(252,188,c),
(247,208,l)
);
},
{
closed = 1;
nodes = (
(580,473,o),
(558,495,o),
(525,495,cs),
(477,495,o),
(429,463,o),
(406,415,c),
(412,389,l),
(431,427,o),
(460,453,o),
(484,453,cs),
(489,453,o),
(492,443,o),
(492,428,c),
(580,440,l)
);
}
);
width = 624;
},
{
anchors = (
{
name = bottom;
pos = (255,-300);
},
{
name = top;
pos = (255,500);
}
);
layerId = "8EEC74F5-9CFA-47B4-A8F8-9A6461F2D63F";
shapes = (
{
closed = 1;
nodes = (
(483,426,l),
(483,402,o),
(504,386,o),
(536,386,cs),
(564,386,o),
(583,408,o),
(583,440,c)
);
},
{
closed = 1;
nodes = (
(361,188,o),
(433,253,o),
(433,350,cs),
(433,446,o),
(361,510,o),
(254,510,cs),
(147,510,o),
(75,446,o),
(75,350,cs),
(75,253,o),
(147,188,o),
(254,188,cs)
);
},
{
closed = 1;
nodes = (
(190,430,o),
(216,483,o),
(254,483,cs),
(292,483,o),
(318,430,o),
(318,350,cs),
(318,269,o),
(292,215,o),
(254,215,cs),
(216,215,o),
(190,269,o),
(190,350,cs)
);
},
{
closed = 1;
nodes = (
(131,212,o),
(54,168,o),
(54,102,cs),
(54,31,o),
(100,-16,o),
(169,-15,cs),
(281,-15,ls),
(353,-15,o),
(381,-43,o),
(381,-86,cs),
(381,-157,o),
(334,-204,o),
(264,-204,cs),
(186,-204,o),
(134,-150,o),
(134,-70,cs),
(134,-34,o),
(151,-7,o),
(177,-2,c),
(146,-2,l),
(82,-16,o),
(39,-54,o),
(39,-97,cs),
(39,-177,o),
(126,-230,o),
(258,-230,cs),
(389,-230,o),
(476,-161,o),
(476,-59,cs),
(476,36,o),
(425,99,o),
(293,99,cs),
(175,99,ls),
(143,100,o),
(122,115,o),
(122,137,cs),
(122,168,o),
(175,188,o),
(254,188,c),
(248,212,l)
);
},
{
closed = 1;
nodes = (
(583,473,o),
(561,495,o),
(528,495,cs),
(478,495,o),
(429,463,o),
(406,415,c),
(413,385,l),
(432,422,o),
(459,447,o),
(480,447,cs),
(482,447,o),
(483,439,o),
(483,426,c),
(583,440,l)
);
}
);
width = 510;
}
);
note = g;
unicode = 103;
},
{
glyphname = h;
kernLeft = n;
kernRight = n;
lastChange = "2026-03-02 22:18:29 +0000";
layers = (
{
anchors = (
{
name = bottom;
pos = (316,0);
},
{
name = center;
pos = (157,780);
},
{
name = top;
pos = (316,975);
}
);
layerId = "E059459B-5795-442B-8710-0018C46129BA";
shapes = (
{
closed = 1;
nodes = (
(165,38,l),
(165,638,l),
(110,638,l),
(110,38,l)
);
},
{
closed = 1;
nodes = (
(163,363,l),
(206,427,o),
(273,469,o),
(331,469,cs),
(422,469,o),
(469,415,o),
(469,335,cs),
(469,38,l),
(525,38,l),
(525,335,ls),
(525,440,o),
(470,510,o),
(363,510,cs),
(295,510,o),
(215,458,o),
(163,379,c)
);
},
{
closed = 1;
nodes = (
(110,38,l),
(110,34,o),
(88,33,o),
(55,33,cs),
(40,33,l),
(40,33,o),
(40,26,o),
(40,16,cs),
(40,7,o),
(40,0,o),
(40,0,c),
(138,0,l),
(236,0,l),
(236,0,o),
(236,7,o),
(236,16,cs),
(236,26,o),
(236,33,o),
(236,33,c),
(220,33,ls),
(187,33,o),
(165,34,o),
(165,38,c)
);
},
{
closed = 1;
nodes = (
(469,38,l),
(469,34,o),
(447,33,o),
(415,33,cs),
(399,33,l),
(399,33,o),
(399,26,o),
(399,16,cs),
(399,7,o),
(399,0,o),
(399,0,c),
(497,0,l),
(595,0,l),
(595,0,o),
(595,7,o),
(595,16,cs),
(595,26,o),
(595,33,o),
(595,33,c),
(579,33,ls),
(547,33,o),
(525,34,o),
(525,38,c)
);
},
{
closed = 1;
nodes = (
(165,732,o),
(165,750,o),
(165,750,c),
(165,750,l),
(165,750,o),
(165,750,o),
(165,750,c),
(165,750,o),
(165,750,o),
(165,750,c),
(156,750,l),
(40,717,l),
(40,717,o),
(40,710,o),
(40,700,cs),
(40,690,o),
(40,684,o),
(40,684,c),
(55,689,ls),
(88,698,o),
(110,691,o),
(110,624,c),
(165,638,l)
);
}
);
width = 635;
},
{
anchors = (
{
name = bottom;
pos = (324,0);
},
{
name = center;
pos = (165,780);
},
{
name = top;
pos = (324,975);
}
);
layerId = "261B483D-14CB-4AC5-AE3A-41E540C8643C";
shapes = (
{
closed = 1;
nodes = (
(196,38,l),
(196,638,l),
(110,638,l),
(110,38,l)
);
},
{
closed = 1;
nodes = (
(192,362,l),
(224,413,o),
(279,447,o),
(331,447,cs),
(408,447,o),
(447,402,o),
(447,335,cs),
(447,38,l),
(533,38,l),
(533,335,ls),
(533,440,o),
(481,510,o),
(381,510,cs),
(314,510,o),
(238,461,o),
(192,387,c)
);
},
{
closed = 1;
nodes = (
(110,38,l),
(110,34,o),
(88,33,o),
(56,33,cs),
(40,33,l),
(40,33,o),
(40,26,o),
(40,16,cs),
(40,7,o),
(40,0,o),
(40,0,c),
(153,0,l),
(267,0,l),
(267,0,o),
(267,7,o),
(267,16,cs),
(267,26,o),
(267,33,o),
(267,33,c),
(251,33,ls),
(218,33,o),
(196,34,o),
(196,38,c)
);
},
{
closed = 1;
nodes = (
(447,38,l),
(447,34,o),
(425,33,o),
(392,33,cs),
(376,33,l),
(376,33,o),
(376,26,o),
(376,16,cs),
(376,7,o),
(376,0,o),
(376,0,c),
(490,0,l),
(603,0,l),
(603,0,o),
(603,7,o),
(603,16,cs),
(603,26,o),
(603,33,o),
(603,33,c),
(587,33,ls),
(555,33,o),
(533,34,o),
(533,38,c)
);
},
{
closed = 1;
nodes = (
(196,732,o),
(196,750,o),
(196,750,c),
(196,750,l),
(196,750,o),
(196,750,o),
(196,750,c),
(196,750,o),
(196,750,o),
(196,750,c),
(181,750,l),
(40,710,l),
(40,710,o),
(40,703,o),
(40,693,cs),
(40,683,o),
(40,677,o),
(40,677,c),
(56,681,ls),
(88,691,o),
(110,684,o),
(110,617,c),
(196,638,l)
);
}
);
width = 643;
},
{
anchors = (
{
name = bottom;
pos = (318,0);
},
{
name = center;
pos = (159,780);
},
{
name = top;
pos = (318,975);
}
);
layerId = "B523A5AF-871D-4AB2-9BF1-E01A824009A4";
shapes = (
{
closed = 1;
nodes = (
(178,38,l),
(178,638,l),
(108,638,l),
(108,38,l)
);
},
{
closed = 1;
nodes = (
(175,362,l),
(212,420,o),
(274,459,o),
(329,459,cs),
(414,459,o),
(457,409,o),
(457,335,cs),
(457,38,l),
(527,38,l),
(527,335,ls),
(527,440,o),
(474,510,o),
(370,510,cs),
(302,510,o),
(224,459,o),
(175,383,c)
);
},
{
closed = 1;
nodes = (
(108,38,l),
(108,34,o),
(86,33,o),
(54,33,cs),
(38,33,l),
(38,33,o),
(38,26,o),
(38,16,cs),
(38,7,o),
(38,0,o),
(38,0,c),
(143,0,l),
(249,0,l),
(249,0,o),
(249,7,o),
(249,16,cs),
(249,26,o),
(249,33,o),
(249,33,c),
(233,33,ls),
(200,33,o),
(178,34,o),
(178,38,c)
);
},
{
closed = 1;
nodes = (
(457,38,l),
(457,34,o),
(435,33,o),
(402,33,cs),
(386,33,l),
(386,33,o),
(386,26,o),
(386,16,cs),
(386,7,o),
(386,0,o),
(386,0,c),
(492,0,l),
(597,0,l),
(597,0,o),
(597,7,o),
(597,16,cs),
(597,26,o),
(597,33,o),
(597,33,c),
(581,33,ls),
(549,33,o),
(527,34,o),
(527,38,c)
);
},
{
closed = 1;
nodes = (
(178,732,o),
(178,750,o),
(178,750,c),
(178,750,l),
(178,750,o),
(178,750,o),
(178,750,c),
(178,750,o),
(178,750,o),
(178,750,c),
(166,750,l),
(38,713,l),
(38,713,o),
(38,707,o),
(38,697,cs),
(38,687,o),
(38,680,o),
(38,681,c),
(54,685,ls),
(86,694,o),
(108,688,o),
(108,621,c),
(178,638,l)
);
}
);
width = 635;
},
{
anchors = (
{
name = bottom;
pos = (328,0);
},
{
name = center;
pos = (169,780);
},
{
name = top;
pos = (328,975);
}
);
layerId = "D3C24151-4D63-4841-9665-5260E3226900";
shapes = (
{
closed = 1;
nodes = (
(211,38,l),
(211,638,l),
(111,638,l),
(111,38,l)
);
},
{
closed = 1;
nodes = (
(206,361,l),
(234,407,o),
(284,437,o),
(332,437,cs),
(401,437,o),
(437,396,o),
(437,335,cs),
(437,38,l),
(537,38,l),
(537,335,ls),
(537,440,o),
(487,510,o),
(390,510,cs),
(323,510,o),
(249,462,o),
(206,390,c)
);
},
{
closed = 1;
nodes = (
(111,38,l),
(111,34,o),
(89,33,o),
(56,33,cs),
(40,33,l),
(40,33,o),
(40,26,o),
(40,16,cs),
(40,7,o),
(40,0,o),
(40,0,c),
(161,0,l),
(281,0,l),
(281,0,o),
(281,7,o),
(281,16,cs),
(281,26,o),
(281,33,o),
(281,33,c),
(265,33,ls),
(233,33,o),
(211,34,o),
(211,38,c)
);
},
{
closed = 1;
nodes = (
(437,38,l),
(437,34,o),
(415,33,o),
(382,33,cs),
(366,33,l),
(366,33,o),
(366,26,o),
(366,16,cs),
(366,7,o),
(366,0,o),
(366,0,c),
(487,0,l),
(607,0,l),
(607,0,o),
(607,7,o),
(607,16,cs),
(607,26,o),
(607,33,o),
(607,33,c),
(591,33,ls),
(559,33,o),
(537,34,o),
(537,38,c)
);
},
{
closed = 1;
nodes = (
(211,732,o),
(211,750,o),
(211,750,c),
(211,750,l),
(211,750,o),
(211,750,o),
(211,750,c),
(211,750,o),
(211,750,o),
(211,750,c),
(193,750,l),
(40,706,l),
(40,706,o),
(40,700,o),
(40,690,cs),
(40,680,o),
(40,673,o),
(40,674,c),
(56,678,ls),
(89,687,o),
(111,681,o),
(111,614,c),
(211,638,l)
);
}
);
width = 647;
},
{
anchors = (
{
name = bottom;
pos = (318,0);
},
{
name = center;
pos = (159,780);
},
{
name = top;
pos = (318,975);
}
);
layerId = "8EEC74F5-9CFA-47B4-A8F8-9A6461F2D63F";
shapes = (
{
closed = 1;
nodes = (
(212,38,l),
(212,638,l),
(97,638,l),
(97,38,l)
);
},
{
closed = 1;
nodes = (
(207,360,l),
(229,400,o),
(274,426,o),
(318,426,cs),
(380,426,o),
(412,390,o),
(412,335,cs),
(412,38,l),
(527,38,l),
(527,335,ls),
(527,440,o),
(479,510,o),
(385,510,cs),
(318,510,o),
(247,464,o),
(207,394,c)
);
},
{
closed = 1;
nodes = (
(97,38,l),
(97,34,o),
(75,33,o),
(42,33,cs),
(27,33,l),
(27,33,o),
(27,26,o),
(27,16,cs),
(27,7,o),
(27,0,o),
(27,0,c),
(155,0,l),
(283,0,l),
(283,0,o),
(283,7,o),
(283,16,cs),
(283,26,o),
(283,33,o),
(283,33,c),
(267,33,ls),
(234,33,o),
(212,34,o),
(212,38,c)
);
},
{
closed = 1;
nodes = (
(412,38,l),
(412,34,o),
(390,33,o),
(357,33,cs),
(341,33,l),
(341,33,o),
(341,26,o),
(341,16,cs),
(341,7,o),
(341,0,o),
(341,0,c),
(469,0,l),
(597,0,l),
(597,0,o),
(597,7,o),
(597,16,cs),
(597,26,o),
(597,33,o),
(597,33,c),
(581,33,ls),
(549,33,o),
(527,34,o),
(527,38,c)
);
},
{
closed = 1;
nodes = (
(212,732,o),
(212,750,o),
(212,750,c),
(212,750,l),
(212,750,o),
(212,750,o),
(212,750,c),
(212,750,o),
(212,750,o),
(212,750,c),
(192,750,l),
(27,703,l),
(27,703,o),
(27,696,o),
(27,686,cs),
(27,676,o),
(27,670,o),
(27,670,c),
(42,674,ls),
(75,684,o),
(97,677,o),
(97,610,c),
(212,638,l)
);
}
);
width = 635;
}
);
note = h;
unicode = 104;
},
{
glyphname = i;
kernLeft = n;
kernRight = n;
lastChange = "2026-03-02 22:47:25 +0000";
layers = (
{
anchors = (
{
name = bottom;
pos = (138,0);
}
);
layerId = "E059459B-5795-442B-8710-0018C46129BA";
shapes = (
{
closed = 1;
nodes = (
(170,614,o),
(185,629,o),
(185,650,cs),
(185,672,o),
(170,686,o),
(149,686,cs),
(127,686,o),
(113,672,o),
(113,650,cs),
(113,629,o),
(127,614,o),
(149,614,cs)
);
},
{
ref = idotless;
}
);
width = 274;
},
{
anchors = (
{
name = bottom;
pos = (149,0);
}
);
layerId = "261B483D-14CB-4AC5-AE3A-41E540C8643C";
shapes = (
{
closed = 1;
nodes = (
(190,614,o),
(212,636,o),
(212,670,cs),
(212,704,o),
(190,726,o),
(156,726,cs),
(123,726,o),
(101,704,o),
(101,670,cs),
(101,636,o),
(123,614,o),
(156,614,cs)
);
},
{
ref = idotless;
}
);
width = 305;
},
{
anchors = (
{
name = bottom;
pos = (143,0);
}
);
layerId = "B523A5AF-871D-4AB2-9BF1-E01A824009A4";
shapes = (
{
closed = 1;
nodes = (
(180,614,o),
(198,632,o),
(198,660,cs),
(198,687,o),
(180,705,o),
(152,705,cs),
(125,705,o),
(107,687,o),
(107,660,cs),
(107,632,o),
(125,614,o),
(152,614,cs)
);
},
{
ref = idotless;
}
);
width = 286;
},
{
anchors = (
{
name = bottom;
pos = (162,0);
}
);
layerId = "D3C24151-4D63-4841-9665-5260E3226900";
shapes = (
{
closed = 1;
nodes = (
(207,614,o),
(233,640,o),
(233,679,cs),
(233,718,o),
(207,744,o),
(168,744,cs),
(129,744,o),
(103,718,o),
(103,679,cs),
(103,640,o),
(129,614,o),
(168,614,cs)
);
},
{
ref = idotless;
}
);
width = 320;
},
{
anchors = (
{
name = bottom;
pos = (160,0);
}
);
background = {
shapes = (
{
ref = idotless;
}
);
};
layerId = "8EEC74F5-9CFA-47B4-A8F8-9A6461F2D63F";
shapes = (
{
closed = 1;
nodes = (
(208,614,o),
(238,644,o),
(238,689,cs),
(238,733,o),
(208,763,o),
(164,763,cs),
(119,763,o),
(89,733,o),
(89,689,cs),
(89,644,o),
(119,614,o),
(164,614,cs)
);
},
{
ref = idotless;
}
);
width = 319;
}
);
note = i;
unicode = 105;
},
{
glyphname = j;
lastChange = "2026-03-02 22:18:30 +0000";
layers = (
{
layerId = "E059459B-5795-442B-8710-0018C46129BA";
shapes = (
{
closed = 1;
nodes = (
(66,-123,l),
(32,-123,o),
(-9,-100,o),
(-43,-100,cs),
(-70,-100,o),
(-88,-116,o),
(-88,-140,cs),
(-88,-169,o),
(-64,-187,o),
(-28,-185,cs),
(-21,-184,o),
(21,-162,o),
(77,-130,c)
);
},
{
closed = 1;
nodes = (
(112,33,ls),
(112,-45,o),
(94,-107,o),
(66,-123,c),
(77,-130,l),
(131,-99,o),
(167,-34,o),
(167,33,cs),
(167,388,l),
(112,388,l)
);
},
{
closed = 1;
nodes = (
(167,482,o),
(167,500,o),
(167,500,c),
(167,500,l),
(167,500,o),
(167,500,o),
(167,500,c),
(167,500,o),
(167,500,o),
(167,500,c),
(158,500,l),
(42,467,l),
(42,467,o),
(42,460,o),
(42,450,cs),
(42,440,o),
(42,434,o),
(42,434,c),
(57,439,ls),
(90,448,o),
(112,441,o),
(112,374,c),
(167,388,l)
);
},
{
closed = 1;
nodes = (
(161,614,o),
(176,629,o),
(176,650,cs),
(176,672,o),
(161,686,o),
(140,686,cs),
(118,686,o),
(104,672,o),
(104,650,cs),
(104,629,o),
(118,614,o),
(140,614,cs)
);
}
);
width = 251;
},
{
layerId = "261B483D-14CB-4AC5-AE3A-41E540C8643C";
shapes = (
{
closed = 1;
nodes = (
(61,-119,l),
(28,-119,o),
(-10,-100,o),
(-43,-100,cs),
(-70,-100,o),
(-88,-116,o),
(-88,-140,cs),
(-88,-169,o),
(-64,-187,o),
(-28,-185,cs),
(-21,-184,o),
(21,-162,o),
(77,-130,c)
);
},
{
closed = 1;
nodes = (
(112,51,ls),
(112,-33,o),
(91,-101,o),
(61,-119,c),
(77,-130,l),
(150,-88,o),
(198,-16,o),
(198,51,cs),
(198,388,l),
(112,388,l)
);
},
{
closed = 1;
nodes = (
(198,482,o),
(198,500,o),
(198,500,c),
(198,500,l),
(198,500,o),
(198,500,o),
(198,500,c),
(198,500,o),
(198,500,o),
(198,500,c),
(183,500,l),
(42,460,l),
(42,460,o),
(42,453,o),
(42,443,cs),
(42,433,o),
(42,427,o),
(42,427,c),
(58,431,ls),
(90,441,o),
(112,434,o),
(112,367,c),
(198,388,l)
);
},
{
closed = 1;
nodes = (
(189,614,o),
(211,636,o),
(211,670,cs),
(211,704,o),
(189,726,o),
(155,726,cs),
(122,726,o),
(100,704,o),
(100,670,cs),
(100,636,o),
(122,614,o),
(155,614,cs)
);
}
);
width = 282;
},
{
layerId = "B523A5AF-871D-4AB2-9BF1-E01A824009A4";
shapes = (
{
closed = 1;
nodes = (
(59,-121,l),
(25,-121,o),
(-14,-100,o),
(-48,-100,cs),
(-75,-100,o),
(-93,-116,o),
(-93,-140,cs),
(-93,-169,o),
(-69,-187,o),
(-33,-185,cs),
(-26,-184,o),
(16,-162,o),
(72,-130,c)
);
},
{
closed = 1;
nodes = (
(107,41,ls),
(107,-39,o),
(88,-104,o),
(59,-121,c),
(72,-130,l),
(135,-93,o),
(177,-25,o),
(177,41,cs),
(177,388,l),
(107,388,l)
);
},
{
closed = 1;
nodes = (
(177,482,o),
(177,500,o),
(177,500,c),
(177,500,l),
(177,500,o),
(177,500,o),
(177,500,c),
(177,500,o),
(177,500,o),
(177,500,c),
(165,500,l),
(37,463,l),
(37,463,o),
(37,457,o),
(37,447,cs),
(37,437,o),
(37,430,o),
(37,431,c),
(53,435,ls),
(85,444,o),
(107,438,o),
(107,371,c),
(177,388,l)
);
},
{
closed = 1;
nodes = (
(170,614,o),
(188,632,o),
(188,660,cs),
(188,687,o),
(170,705,o),
(142,705,cs),
(115,705,o),
(97,687,o),
(97,660,cs),
(97,632,o),
(115,614,o),
(142,614,cs)
);
}
);
width = 267;
},
{
layerId = "D3C24151-4D63-4841-9665-5260E3226900";
shapes = (
{
closed = 1;
nodes = (
(58,-117,l),
(28,-117,o),
(-11,-100,o),
(-42,-100,cs),
(-69,-100,o),
(-87,-116,o),
(-87,-140,cs),
(-87,-169,o),
(-63,-187,o),
(-27,-185,cs),
(-20,-184,o),
(22,-162,o),
(78,-130,c)
);
},
{
closed = 1;
nodes = (
(113,59,ls),
(113,-27,o),
(91,-98,o),
(58,-117,c),
(78,-130,l),
(159,-83,o),
(213,-8,o),
(213,59,cs),
(213,388,l),
(113,388,l)
);
},
{
closed = 1;
nodes = (
(213,482,o),
(213,500,o),
(213,500,c),
(213,500,l),
(213,500,o),
(213,500,o),
(213,500,c),
(213,500,o),
(213,500,o),
(213,500,c),
(195,500,l),
(42,456,l),
(42,456,o),
(42,450,o),
(42,440,cs),
(42,430,o),
(42,423,o),
(42,424,c),
(58,428,ls),
(91,437,o),
(113,431,o),
(113,364,c),
(213,388,l)
);
},
{
closed = 1;
nodes = (
(202,614,o),
(228,640,o),
(228,679,cs),
(228,718,o),
(202,744,o),
(163,744,cs),
(124,744,o),
(98,718,o),
(98,679,cs),
(98,640,o),
(124,614,o),
(163,614,cs)
);
}
);
width = 297;
},
{
layerId = "8EEC74F5-9CFA-47B4-A8F8-9A6461F2D63F";
shapes = (
{
closed = 1;
nodes = (
(39,-115,l),
(9,-115,o),
(-29,-100,o),
(-59,-100,cs),
(-86,-100,o),
(-104,-116,o),
(-104,-140,cs),
(-104,-169,o),
(-80,-187,o),
(-44,-185,cs),
(-37,-184,o),
(5,-162,o),
(61,-130,c)
);
},
{
closed = 1;
nodes = (
(96,68,ls),
(96,-22,o),
(73,-95,o),
(39,-115,c),
(61,-130,l),
(151,-78,o),
(211,1,o),
(211,68,cs),
(211,388,l),
(96,388,l)
);
},
{
closed = 1;
nodes = (
(211,482,o),
(211,500,o),
(211,500,c),
(211,500,l),
(211,500,o),
(211,500,o),
(211,500,c),
(211,500,o),
(211,500,o),
(211,500,c),
(191,500,l),
(26,453,l),
(26,453,o),
(26,446,o),
(26,436,cs),
(26,426,o),
(26,420,o),
(26,420,c),
(41,424,ls),
(74,434,o),
(96,427,o),
(96,360,c),
(211,388,l)
);
},
{
closed = 1;
nodes = (
(198,614,o),
(228,644,o),
(228,689,cs),
(228,733,o),
(198,763,o),
(154,763,cs),
(109,763,o),
(79,733,o),
(79,689,cs),
(79,644,o),
(109,614,o),
(154,614,cs)
);
}
);
width = 301;
}
);
note = j;
unicode = 106;
},
{
glyphname = k;
lastChange = "2026-03-02 22:18:29 +0000";
layers = (
{
anchors = (
{
name = bottom;
pos = (239,0);
},
{
name = top;
pos = (239,975);
}
);
layerId = "E059459B-5795-442B-8710-0018C46129BA";
shapes = (
{
closed = 1;
nodes = (
(157,38,l),
(157,638,l),
(102,638,l),
(102,38,l)
);
},
{
closed = 1;
nodes = (
(180,280,l),
(425,500,l),
(403,500,l),
(157,280,l)
);
},
{
closed = 1;
nodes = (
(443,0,l),
(200,316,l),
(157,280,l),
(371,0,l)
);
},
{
closed = 1;
nodes = (
(102,38,l),
(102,34,o),
(83,33,o),
(56,33,cs),
(40,33,l),
(40,33,o),
(40,26,o),
(40,16,cs),
(40,7,o),
(40,0,o),
(40,0,c),
(130,0,l),
(220,0,l),
(220,0,o),
(220,7,o),
(220,16,cs),
(220,26,o),
(220,33,o),
(220,33,c),
(204,33,ls),
(176,33,o),
(157,34,o),
(157,38,c)
);
},
{
closed = 1;
nodes = (
(157,732,o),
(157,750,o),
(157,750,c),
(157,750,l),
(157,750,o),
(157,750,o),
(157,750,c),
(157,750,o),
(157,750,o),
(157,750,c),
(148,750,l),
(32,717,l),
(32,717,o),
(32,710,o),
(32,700,cs),
(32,690,o),
(32,684,o),
(32,684,c),
(47,689,ls),
(80,698,o),
(102,691,o),
(102,624,c),
(157,638,l)
);
},
{
closed = 1;
nodes = (
(342,38,l),
(346,34,o),
(335,33,o),
(318,33,cs),
(301,33,l),
(301,33,o),
(301,26,o),
(301,16,cs),
(301,7,o),
(301,0,o),
(301,0,c),
(382,0,l),
(463,0,l),
(463,0,o),
(463,7,o),
(463,16,cs),
(463,26,o),
(463,33,o),
(463,33,c),
(432,33,ls),
(424,33,o),
(417,34,o),
(413,38,c)
);
},
{
closed = 1;
nodes = (
(388,466,o),
(399,467,o),
(414,467,cs),
(443,467,l),
(443,467,o),
(443,474,o),
(443,484,cs),
(443,493,o),
(443,500,o),
(443,500,c),
(346,500,l),
(250,500,l),
(250,500,o),
(250,493,o),
(250,484,cs),
(250,474,o),
(250,467,o),
(250,467,c),
(267,467,ls),
(326,467,o),
(356,458,o),
(306,413,c),
(383,462,l)
);
}
);
width = 506;
},
{
anchors = (
{
name = bottom;
pos = (284,0);
},
{
name = top;
pos = (284,975);
}
);
layerId = "261B483D-14CB-4AC5-AE3A-41E540C8643C";
shapes = (
{
closed = 1;
nodes = (
(188,38,l),
(188,638,l),
(102,638,l),
(102,38,l)
);
},
{
closed = 1;
nodes = (
(223,280,l),
(497,500,l),
(462,500,l),
(188,280,l)
);
},
{
closed = 1;
nodes = (
(524,0,l),
(257,332,l),
(188,280,l),
(413,0,l)
);
},
{
closed = 1;
nodes = (
(102,38,l),
(102,34,o),
(84,33,o),
(56,33,cs),
(40,33,l),
(40,33,o),
(40,26,o),
(40,16,cs),
(40,7,o),
(40,0,o),
(40,0,c),
(145,0,l),
(250,0,l),
(250,0,o),
(250,7,o),
(250,16,cs),
(250,26,o),
(250,33,o),
(250,33,c),
(235,33,ls),
(207,33,o),
(188,34,o),
(188,38,c)
);
},
{
closed = 1;
nodes = (
(188,732,o),
(188,750,o),
(188,750,c),
(188,750,l),
(188,750,o),
(188,750,o),
(188,750,c),
(188,750,o),
(188,750,o),
(188,750,c),
(173,750,l),
(32,710,l),
(32,710,o),
(32,703,o),
(32,693,cs),
(32,683,o),
(32,677,o),
(32,677,c),
(48,681,ls),
(80,691,o),
(102,684,o),
(102,617,c),
(188,638,l)
);
},
{
closed = 1;
nodes = (
(383,38,l),
(386,34,o),
(376,33,o),
(359,33,cs),
(343,33,l),
(343,33,o),
(343,26,o),
(343,16,cs),
(343,7,o),
(343,0,o),
(343,0,c),
(443,0,l),
(543,0,l),
(543,0,o),
(543,7,o),
(543,16,cs),
(543,26,o),
(543,33,o),
(543,33,c),
(512,33,ls),
(503,33,o),
(496,34,o),
(493,38,c)
);
},
{
closed = 1;
nodes = (
(455,466,o),
(466,467,o),
(482,467,cs),
(510,467,l),
(510,467,o),
(510,474,o),
(510,484,cs),
(510,493,o),
(510,500,o),
(510,500,c),
(409,500,l),
(309,500,l),
(309,500,o),
(309,493,o),
(309,484,cs),
(309,474,o),
(309,467,o),
(309,467,c),
(325,467,ls),
(383,467,o),
(410,458,o),
(354,413,c),
(449,462,l)
);
}
);
width = 584;
},
{
anchors = (
{
name = bottom;
pos = (276,0);
},
{
name = top;
pos = (276,975);
}
);
layerId = "B523A5AF-871D-4AB2-9BF1-E01A824009A4";
shapes = (
{
closed = 1;
nodes = (
(187,38,l),
(187,638,l),
(117,638,l),
(117,38,l)
);
},
{
closed = 1;
nodes = (
(216,280,l),
(475,500,l),
(446,500,l),
(187,280,l)
);
},
{
closed = 1;
nodes = (
(496,0,l),
(242,324,l),
(187,280,l),
(407,0,l)
);
},
{
closed = 1;
nodes = (
(117,38,l),
(117,34,o),
(99,33,o),
(71,33,cs),
(55,33,l),
(55,33,o),
(55,26,o),
(55,16,cs),
(55,7,o),
(55,0,o),
(55,0,c),
(152,0,l),
(249,0,l),
(249,0,o),
(249,7,o),
(249,16,cs),
(249,26,o),
(249,33,o),
(249,33,c),
(234,33,ls),
(206,33,o),
(187,34,o),
(187,38,c)
);
},
{
closed = 1;
nodes = (
(187,732,o),
(187,750,o),
(187,750,c),
(187,750,l),
(187,750,o),
(187,750,o),
(187,750,c),
(187,750,o),
(187,750,o),
(187,750,c),
(175,750,l),
(47,713,l),
(47,713,o),
(47,707,o),
(47,697,cs),
(47,687,o),
(47,680,o),
(47,681,c),
(63,685,ls),
(95,694,o),
(117,688,o),
(117,621,c),
(187,638,l)
);
},
{
closed = 1;
nodes = (
(377,38,l),
(380,34,o),
(370,33,o),
(353,33,cs),
(336,33,l),
(336,33,o),
(336,26,o),
(336,16,cs),
(336,7,o),
(336,0,o),
(336,0,c),
(426,0,l),
(516,0,l),
(516,0,o),
(516,7,o),
(516,16,cs),
(516,26,o),
(516,33,o),
(516,33,c),
(486,33,ls),
(477,33,o),
(470,34,o),
(467,38,c)
);
},
{
closed = 1;
nodes = (
(435,466,o),
(446,467,o),
(462,467,cs),
(490,467,l),
(490,467,o),
(490,474,o),
(490,484,cs),
(490,493,o),
(490,500,o),
(490,500,c),
(392,500,l),
(293,500,l),
(293,500,o),
(293,493,o),
(293,484,cs),
(293,474,o),
(293,467,o),
(293,467,c),
(310,467,ls),
(369,467,o),
(398,458,o),
(344,413,c),
(430,462,l)
);
}
);
width = 551;
},
{
anchors = (
{
name = bottom;
pos = (304,0);
},
{
name = top;
pos = (304,975);
}
);
layerId = "D3C24151-4D63-4841-9665-5260E3226900";
shapes = (
{
closed = 1;
nodes = (
(202,38,l),
(202,638,l),
(102,638,l),
(102,38,l)
);
},
{
closed = 1;
nodes = (
(242,280,l),
(529,500,l),
(489,500,l),
(202,280,l)
);
},
{
closed = 1;
nodes = (
(560,0,l),
(283,338,l),
(202,280,l),
(432,0,l)
);
},
{
closed = 1;
nodes = (
(102,38,l),
(102,34,o),
(83,33,o),
(55,33,cs),
(40,33,l),
(40,33,o),
(40,26,o),
(40,16,cs),
(40,7,o),
(40,0,o),
(40,0,c),
(152,0,l),
(264,0,l),
(264,0,o),
(264,7,o),
(264,16,cs),
(264,26,o),
(264,33,o),
(264,33,c),
(248,33,ls),
(220,33,o),
(202,34,o),
(202,38,c)
);
},
{
closed = 1;
nodes = (
(202,732,o),
(202,750,o),
(202,750,c),
(202,750,l),
(202,750,o),
(202,750,o),
(202,750,c),
(202,750,o),
(202,750,o),
(202,750,c),
(184,750,l),
(31,706,l),
(31,706,o),
(31,700,o),
(31,690,cs),
(31,680,o),
(31,673,o),
(31,674,c),
(47,678,ls),
(80,687,o),
(102,681,o),
(102,614,c),
(202,638,l)
);
},
{
closed = 1;
nodes = (
(401,38,l),
(404,34,o),
(394,33,o),
(377,33,cs),
(361,33,l),
(361,33,o),
(361,26,o),
(361,16,cs),
(361,7,o),
(361,0,o),
(361,0,c),
(470,0,l),
(579,0,l),
(579,0,o),
(579,7,o),
(579,16,cs),
(579,26,o),
(579,33,o),
(579,33,c),
(548,33,ls),
(539,33,o),
(532,34,o),
(529,38,c)
);
},
{
closed = 1;
nodes = (
(485,466,o),
(496,467,o),
(512,467,cs),
(540,467,l),
(540,467,o),
(540,474,o),
(540,484,cs),
(540,493,o),
(540,500,o),
(540,500,c),
(438,500,l),
(335,500,l),
(335,500,o),
(335,493,o),
(335,484,cs),
(335,474,o),
(335,467,o),
(335,467,c),
(352,467,ls),
(408,467,o),
(435,458,o),
(376,413,c),
(479,462,l)
);
}
);
width = 620;
},
{
anchors = (
{
name = bottom;
pos = (329,0);
},
{
name = top;
pos = (329,975);
}
);
layerId = "8EEC74F5-9CFA-47B4-A8F8-9A6461F2D63F";
shapes = (
{
closed = 1;
nodes = (
(221,38,l),
(221,638,l),
(106,638,l),
(106,38,l)
);
},
{
closed = 1;
nodes = (
(268,280,l),
(568,500,l),
(522,500,l),
(221,280,l)
);
},
{
closed = 1;
nodes = (
(604,0,l),
(316,345,l),
(221,280,l),
(457,0,l)
);
},
{
closed = 1;
nodes = (
(106,38,l),
(106,34,o),
(87,33,o),
(60,33,cs),
(44,33,l),
(44,33,o),
(44,26,o),
(44,16,cs),
(44,7,o),
(44,0,o),
(44,0,c),
(164,0,l),
(283,0,l),
(283,0,o),
(283,7,o),
(283,16,cs),
(283,26,o),
(283,33,o),
(283,33,c),
(267,33,ls),
(240,33,o),
(221,34,o),
(221,38,c)
);
},
{
closed = 1;
nodes = (
(221,732,o),
(221,750,o),
(221,750,c),
(221,750,l),
(221,750,o),
(221,750,o),
(221,750,c),
(221,750,o),
(221,750,o),
(221,750,c),
(201,750,l),
(36,703,l),
(36,703,o),
(36,696,o),
(36,686,cs),
(36,676,o),
(36,670,o),
(36,670,c),
(51,674,ls),
(84,684,o),
(106,677,o),
(106,610,c),
(221,638,l)
);
},
{
closed = 1;
nodes = (
(424,38,l),
(428,34,o),
(418,33,o),
(402,33,cs),
(386,33,l),
(386,33,o),
(386,26,o),
(386,16,cs),
(386,7,o),
(386,0,o),
(386,0,c),
(504,0,l),
(622,0,l),
(622,0,o),
(622,7,o),
(622,16,cs),
(622,26,o),
(622,33,o),
(622,33,c),
(592,33,ls),
(583,33,o),
(576,34,o),
(572,38,c)
);
},
{
closed = 1;
nodes = (
(523,466,o),
(534,467,o),
(549,467,cs),
(577,467,l),
(577,467,o),
(577,474,o),
(577,484,cs),
(577,493,o),
(577,500,o),
(577,500,c),
(473,500,l),
(369,500,l),
(369,500,o),
(369,493,o),
(369,484,cs),
(369,474,o),
(369,467,o),
(369,467,c),
(384,467,ls),
(440,467,o),
(465,458,o),
(404,413,c),
(516,462,l)
);
}
);
width = 658;
}
);
note = k;
unicode = 107;
},
{
glyphname = l;
kernLeft = n;
kernRight = n;
lastChange = "2026-03-02 22:18:30 +0000";
layers = (
{
anchors = (
{
name = bottom;
pos = (128,0);
},
{
name = center;
pos = (128,250);
},
{
name = top;
pos = (128,975);
},
{
name = topright;
pos = (240,975);
}
);
layerId = "E059459B-5795-442B-8710-0018C46129BA";
shapes = (
{
closed = 1;
nodes = (
(161,38,l),
(161,638,l),
(106,638,l),
(106,38,l)
);
},
{
closed = 1;
nodes = (
(106,38,l),
(106,34,o),
(86,33,o),
(55,33,cs),
(40,33,l),
(40,33,o),
(40,26,o),
(40,16,cs),
(40,7,o),
(40,0,o),
(40,0,c),
(134,0,l),
(228,0,l),
(228,0,o),
(228,7,o),
(228,16,cs),
(228,26,o),
(228,33,o),
(228,33,c),
(212,33,ls),
(181,33,o),
(161,34,o),
(161,38,c)
);
},
{
closed = 1;
nodes = (
(161,732,o),
(161,750,o),
(161,750,c),
(161,750,l),
(161,750,o),
(161,750,o),
(161,750,c),
(161,750,o),
(161,750,o),
(161,750,c),
(152,750,l),
(36,717,l),
(36,717,o),
(36,710,o),
(36,700,cs),
(36,690,o),
(36,684,o),
(36,684,c),
(51,689,ls),
(84,698,o),
(106,691,o),
(106,624,c),
(161,638,l)
);
}
);
width = 268;
},
{
anchors = (
{
name = bottom;
pos = (147,0);
},
{
name = center;
pos = (147,250);
},
{
name = top;
pos = (147,975);
},
{
name = topright;
pos = (271,975);
}
);
layerId = "261B483D-14CB-4AC5-AE3A-41E540C8643C";
shapes = (
{
closed = 1;
nodes = (
(192,38,l),
(192,638,l),
(106,638,l),
(106,38,l)
);
},
{
closed = 1;
nodes = (
(106,38,l),
(106,34,o),
(86,33,o),
(56,33,cs),
(40,33,l),
(40,33,o),
(40,26,o),
(40,16,cs),
(40,7,o),
(40,0,o),
(40,0,c),
(149,0,l),
(259,0,l),
(259,0,o),
(259,7,o),
(259,16,cs),
(259,26,o),
(259,33,o),
(259,33,c),
(243,33,ls),
(212,33,o),
(192,34,o),
(192,38,c)
);
},
{
closed = 1;
nodes = (
(192,732,o),
(192,750,o),
(192,750,c),
(192,750,l),
(192,750,o),
(192,750,o),
(192,750,c),
(192,750,o),
(192,750,o),
(192,750,c),
(177,750,l),
(36,710,l),
(36,710,o),
(36,703,o),
(36,693,cs),
(36,683,o),
(36,677,o),
(36,677,c),
(52,681,ls),
(84,691,o),
(106,684,o),
(106,617,c),
(192,638,l)
);
}
);
width = 299;
},
{
anchors = (
{
name = bottom;
pos = (138,0);
},
{
name = center;
pos = (138,250);
},
{
name = top;
pos = (138,975);
},
{
name = topright;
pos = (200,975);
}
);
layerId = "B523A5AF-871D-4AB2-9BF1-E01A824009A4";
shapes = (
{
closed = 1;
nodes = (
(177,38,l),
(177,638,l),
(107,638,l),
(107,38,l)
);
},
{
closed = 1;
nodes = (
(107,38,l),
(107,34,o),
(87,33,o),
(57,33,cs),
(41,33,l),
(41,33,o),
(41,26,o),
(41,16,cs),
(41,7,o),
(41,0,o),
(41,0,c),
(142,0,l),
(244,0,l),
(244,0,o),
(244,7,o),
(244,16,cs),
(244,26,o),
(244,33,o),
(244,33,c),
(228,33,ls),
(197,33,o),
(177,34,o),
(177,38,c)
);
},
{
closed = 1;
nodes = (
(177,732,o),
(177,750,o),
(177,750,c),
(177,750,l),
(177,750,o),
(177,750,o),
(177,750,c),
(177,750,o),
(177,750,o),
(177,750,c),
(165,750,l),
(37,713,l),
(37,713,o),
(37,707,o),
(37,697,cs),
(37,687,o),
(37,680,o),
(37,681,c),
(53,685,ls),
(85,694,o),
(107,688,o),
(107,621,c),
(177,638,l)
);
}
);
width = 276;
},
{
anchors = (
{
name = bottom;
pos = (155,0);
},
{
name = center;
pos = (155,250);
},
{
name = top;
pos = (155,975);
},
{
name = topright;
pos = (284,975);
}
);
layerId = "D3C24151-4D63-4841-9665-5260E3226900";
shapes = (
{
closed = 1;
nodes = (
(206,38,l),
(206,638,l),
(106,638,l),
(106,38,l)
);
},
{
closed = 1;
nodes = (
(106,38,l),
(106,34,o),
(86,33,o),
(55,33,cs),
(40,33,l),
(40,33,o),
(40,26,o),
(40,16,cs),
(40,7,o),
(40,0,o),
(40,0,c),
(156,0,l),
(272,0,l),
(272,0,o),
(272,7,o),
(272,16,cs),
(272,26,o),
(272,33,o),
(272,33,c),
(256,33,ls),
(226,33,o),
(206,34,o),
(206,38,c)
);
},
{
closed = 1;
nodes = (
(206,732,o),
(206,750,o),
(206,750,c),
(206,750,l),
(206,750,o),
(206,750,o),
(206,750,c),
(206,750,o),
(206,750,o),
(206,750,c),
(188,750,l),
(35,706,l),
(35,706,o),
(35,700,o),
(35,690,cs),
(35,680,o),
(35,673,o),
(35,674,c),
(51,678,ls),
(84,687,o),
(106,681,o),
(106,614,c),
(206,638,l)
);
}
);
width = 312;
},
{
anchors = (
{
name = bottom;
pos = (155,0);
},
{
name = center;
pos = (155,250);
},
{
name = top;
pos = (145,975);
},
{
name = topright;
pos = (261,975);
}
);
layerId = "8EEC74F5-9CFA-47B4-A8F8-9A6461F2D63F";
shapes = (
{
closed = 1;
nodes = (
(211,38,l),
(211,638,l),
(96,638,l),
(96,38,l)
);
},
{
closed = 1;
nodes = (
(96,38,l),
(96,34,o),
(76,33,o),
(46,33,cs),
(30,33,l),
(30,33,o),
(30,26,o),
(30,16,cs),
(30,7,o),
(30,0,o),
(30,0,c),
(154,0,l),
(277,0,l),
(277,0,o),
(277,7,o),
(277,16,cs),
(277,26,o),
(277,33,o),
(277,33,c),
(262,33,ls),
(231,33,o),
(211,34,o),
(211,38,c)
);
},
{
closed = 1;
nodes = (
(211,732,o),
(211,750,o),
(211,750,c),
(211,750,l),
(211,750,o),
(211,750,o),
(211,750,c),
(211,750,o),
(211,750,o),
(211,750,c),
(191,750,l),
(26,703,l),
(26,703,o),
(26,696,o),
(26,686,cs),
(26,676,o),
(26,670,o),
(26,670,c),
(41,674,ls),
(74,684,o),
(96,677,o),
(96,610,c),
(211,638,l)
);
}
);
width = 309;
}
);
note = l;
unicode = 108;
},
{
glyphname = m;
kernLeft = n;
kernRight = n;
lastChange = "2026-03-02 22:18:30 +0000";
layers = (
{
anchors = (
{
name = bottom;
pos = (482,0);
},
{
name = top;
pos = (482,500);
}
);
layerId = "E059459B-5795-442B-8710-0018C46129BA";
shapes = (
{
closed = 1;
nodes = (
(173,38,l),
(173,388,l),
(118,388,l),
(118,38,l)
);
},
{
closed = 1;
nodes = (
(171,363,l),
(211,427,o),
(274,469,o),
(328,469,cs),
(413,469,o),
(457,415,o),
(457,335,cs),
(457,38,l),
(513,38,l),
(513,335,ls),
(513,440,o),
(461,510,o),
(360,510,cs),
(296,510,o),
(220,458,o),
(171,379,c)
);
},
{
closed = 1;
nodes = (
(510,363,l),
(550,427,o),
(612,469,o),
(666,469,cs),
(752,469,o),
(796,415,o),
(796,335,cs),
(796,38,l),
(852,38,l),
(852,335,ls),
(852,440,o),
(800,510,o),
(698,510,cs),
(634,510,o),
(559,458,o),
(510,379,c)
);
},
{
closed = 1;
nodes = (
(118,45,l),
(118,35,o),
(96,33,o),
(63,33,cs),
(48,33,l),
(48,33,o),
(48,26,o),
(48,16,cs),
(48,7,o),
(48,0,o),
(48,0,c),
(139,0,l),
(231,0,l),
(231,0,o),
(231,7,o),
(231,16,cs),
(231,26,o),
(231,33,o),
(231,33,c),
(216,33,ls),
(190,33,o),
(173,35,o),
(173,45,c)
);
},
{
closed = 1;
nodes = (
(457,45,l),
(457,35,o),
(439,33,o),
(411,33,cs),
(395,33,l),
(395,33,o),
(395,26,o),
(395,16,cs),
(395,7,o),
(395,0,o),
(395,0,c),
(481,0,l),
(567,0,l),
(567,0,o),
(567,7,o),
(567,16,cs),
(567,26,o),
(567,33,o),
(567,33,c),
(551,33,ls),
(528,33,o),
(513,35,o),
(513,45,c)
);
},
{
closed = 1;
nodes = (
(173,482,o),
(173,500,o),
(173,500,c),
(173,500,l),
(173,500,o),
(173,500,o),
(173,500,c),
(173,500,o),
(173,500,o),
(173,500,c),
(164,500,l),
(48,458,l),
(48,458,o),
(48,451,o),
(48,441,cs),
(48,432,o),
(48,425,o),
(48,425,c),
(63,431,ls),
(96,443,o),
(118,438,o),
(118,371,c),
(173,388,l)
);
},
{
closed = 1;
nodes = (
(796,45,l),
(796,35,o),
(778,33,o),
(750,33,cs),
(734,33,l),
(734,33,o),
(734,26,o),
(734,16,cs),
(734,7,o),
(734,0,o),
(734,0,c),
(828,0,l),
(922,0,l),
(922,0,o),
(922,7,o),
(922,16,cs),
(922,26,o),
(922,33,o),
(922,33,c),
(907,33,ls),
(874,33,o),
(852,35,o),
(852,45,c)
);
}
);
width = 962;
},
{
anchors = (
{
name = bottom;
pos = (478,0);
},
{
name = top;
pos = (478,500);
}
);
layerId = "261B483D-14CB-4AC5-AE3A-41E540C8643C";
shapes = (
{
closed = 1;
nodes = (
(204,38,l),
(204,388,l),
(118,388,l),
(118,38,l)
);
},
{
closed = 1;
nodes = (
(200,362,l),
(230,413,o),
(281,447,o),
(328,447,cs),
(399,447,o),
(435,402,o),
(435,335,cs),
(435,38,l),
(521,38,l),
(521,335,ls),
(521,440,o),
(472,510,o),
(378,510,cs),
(315,510,o),
(243,461,o),
(200,387,c)
);
},
{
closed = 1;
nodes = (
(517,362,l),
(546,413,o),
(597,447,o),
(643,447,cs),
(714,447,o),
(751,402,o),
(751,335,cs),
(751,38,l),
(837,38,l),
(837,335,ls),
(837,440,o),
(788,510,o),
(693,510,cs),
(630,510,o),
(559,461,o),
(517,387,c)
);
},
{
closed = 1;
nodes = (
(118,45,l),
(118,35,o),
(96,33,o),
(64,33,cs),
(48,33,l),
(48,33,o),
(48,26,o),
(48,16,cs),
(48,7,o),
(48,0,o),
(48,0,c),
(155,0,l),
(262,0,l),
(262,0,o),
(262,7,o),
(262,16,cs),
(262,26,o),
(262,33,o),
(262,33,c),
(246,33,ls),
(221,33,o),
(204,35,o),
(204,45,c)
);
},
{
closed = 1;
nodes = (
(435,45,l),
(435,35,o),
(416,33,o),
(388,33,cs),
(373,33,l),
(373,33,o),
(373,26,o),
(373,16,cs),
(373,7,o),
(373,0,o),
(373,0,c),
(474,0,l),
(575,0,l),
(575,0,o),
(575,7,o),
(575,16,cs),
(575,26,o),
(575,33,o),
(575,33,c),
(559,33,ls),
(536,33,o),
(521,35,o),
(521,45,c)
);
},
{
closed = 1;
nodes = (
(204,482,o),
(204,500,o),
(204,500,c),
(204,500,l),
(204,500,o),
(204,500,o),
(204,500,c),
(204,500,o),
(204,500,o),
(204,500,c),
(189,500,l),
(48,449,l),
(48,449,o),
(48,442,o),
(48,432,cs),
(48,422,o),
(48,416,o),
(48,416,c),
(64,422,ls),
(96,433,o),
(118,428,o),
(118,362,c),
(204,388,l)
);
},
{
closed = 1;
nodes = (
(751,45,l),
(751,35,o),
(733,33,o),
(705,33,cs),
(689,33,l),
(689,33,o),
(689,26,o),
(689,16,cs),
(689,7,o),
(689,0,o),
(689,0,c),
(798,0,l),
(907,0,l),
(907,0,o),
(907,7,o),
(907,16,cs),
(907,26,o),
(907,33,o),
(907,33,c),
(892,33,ls),
(859,33,o),
(837,35,o),
(837,45,c)
);
}
);
width = 947;
},
{
anchors = (
{
name = bottom;
pos = (463,0);
},
{
name = top;
pos = (463,500);
}
);
layerId = "B523A5AF-871D-4AB2-9BF1-E01A824009A4";
shapes = (
{
closed = 1;
nodes = (
(171,38,l),
(171,388,l),
(101,388,l),
(101,38,l)
);
},
{
closed = 1;
nodes = (
(168,362,l),
(203,420,o),
(260,459,o),
(311,459,cs),
(390,459,o),
(430,409,o),
(430,335,cs),
(430,38,l),
(500,38,l),
(500,335,ls),
(500,440,o),
(450,510,o),
(352,510,cs),
(288,510,o),
(214,459,o),
(168,383,c)
);
},
{
closed = 1;
nodes = (
(496,362,l),
(531,420,o),
(588,459,o),
(638,459,cs),
(717,459,o),
(758,409,o),
(758,335,cs),
(758,38,l),
(828,38,l),
(828,335,ls),
(828,440,o),
(777,510,o),
(679,510,cs),
(615,510,o),
(542,459,o),
(496,383,c)
);
},
{
closed = 1;
nodes = (
(101,45,l),
(101,35,o),
(79,33,o),
(47,33,cs),
(31,33,l),
(31,33,o),
(31,26,o),
(31,16,cs),
(31,7,o),
(31,0,o),
(31,0,c),
(130,0,l),
(229,0,l),
(229,0,o),
(229,7,o),
(229,16,cs),
(229,26,o),
(229,33,o),
(229,33,c),
(214,33,ls),
(188,33,o),
(171,35,o),
(171,45,c)
);
},
{
closed = 1;
nodes = (
(430,45,l),
(430,35,o),
(411,33,o),
(383,33,cs),
(368,33,l),
(368,33,o),
(368,26,o),
(368,16,cs),
(368,7,o),
(368,0,o),
(368,0,c),
(461,0,l),
(554,0,l),
(554,0,o),
(554,7,o),
(554,16,cs),
(554,26,o),
(554,33,o),
(554,33,c),
(538,33,ls),
(515,33,o),
(500,35,o),
(500,45,c)
);
},
{
closed = 1;
nodes = (
(171,482,o),
(171,500,o),
(171,500,c),
(171,500,l),
(171,500,o),
(171,500,o),
(171,500,c),
(171,500,o),
(171,500,o),
(171,500,c),
(159,500,l),
(31,453,l),
(31,453,o),
(31,447,o),
(31,437,cs),
(31,427,o),
(31,421,o),
(31,421,c),
(47,426,ls),
(79,438,o),
(101,433,o),
(101,367,c),
(171,388,l)
);
},
{
closed = 1;
nodes = (
(758,45,l),
(758,35,o),
(739,33,o),
(712,33,cs),
(696,33,l),
(696,33,o),
(696,26,o),
(696,16,cs),
(696,7,o),
(696,0,o),
(696,0,c),
(797,0,l),
(898,0,l),
(898,0,o),
(898,7,o),
(898,16,cs),
(898,26,o),
(898,33,o),
(898,33,c),
(883,33,ls),
(850,33,o),
(828,35,o),
(828,45,c)
);
}
);
width = 926;
},
{
anchors = (
{
name = bottom;
pos = (477,0);
},
{
name = top;
pos = (477,500);
}
);
layerId = "D3C24151-4D63-4841-9665-5260E3226900";
shapes = (
{
closed = 1;
nodes = (
(219,38,l),
(219,388,l),
(119,388,l),
(119,38,l)
);
},
{
closed = 1;
nodes = (
(214,361,l),
(240,407,o),
(286,437,o),
(329,437,cs),
(392,437,o),
(425,396,o),
(425,335,cs),
(425,38,l),
(525,38,l),
(525,335,ls),
(525,440,o),
(478,510,o),
(387,510,cs),
(323,510,o),
(254,462,o),
(214,390,c)
);
},
{
closed = 1;
nodes = (
(520,361,l),
(545,407,o),
(590,437,o),
(632,437,cs),
(697,437,o),
(730,396,o),
(730,335,cs),
(730,38,l),
(830,38,l),
(830,335,ls),
(830,440,o),
(783,510,o),
(691,510,cs),
(628,510,o),
(560,462,o),
(520,390,c)
);
},
{
closed = 1;
nodes = (
(119,45,l),
(119,35,o),
(97,33,o),
(64,33,cs),
(48,33,l),
(48,33,o),
(48,26,o),
(48,16,cs),
(48,7,o),
(48,0,o),
(48,0,c),
(163,0,l),
(277,0,l),
(277,0,o),
(277,7,o),
(277,16,cs),
(277,26,o),
(277,33,o),
(277,33,c),
(261,33,ls),
(236,33,o),
(219,35,o),
(219,45,c)
);
},
{
closed = 1;
nodes = (
(425,45,l),
(425,35,o),
(406,33,o),
(378,33,cs),
(363,33,l),
(363,33,o),
(363,26,o),
(363,16,cs),
(363,7,o),
(363,0,o),
(363,0,c),
(471,0,l),
(579,0,l),
(579,0,o),
(579,7,o),
(579,16,cs),
(579,26,o),
(579,33,o),
(579,33,c),
(563,33,ls),
(540,33,o),
(525,35,o),
(525,45,c)
);
},
{
closed = 1;
nodes = (
(219,482,o),
(219,500,o),
(219,500,c),
(219,500,l),
(219,500,o),
(219,500,o),
(219,500,c),
(219,500,o),
(219,500,o),
(219,500,c),
(201,500,l),
(48,444,l),
(48,444,o),
(48,438,o),
(48,428,cs),
(48,418,o),
(48,411,o),
(48,412,c),
(64,417,ls),
(97,429,o),
(119,424,o),
(119,358,c),
(219,388,l)
);
},
{
closed = 1;
nodes = (
(730,45,l),
(730,35,o),
(712,33,o),
(684,33,cs),
(668,33,l),
(668,33,o),
(668,26,o),
(668,16,cs),
(668,7,o),
(668,0,o),
(668,0,c),
(785,0,l),
(901,0,l),
(901,0,o),
(901,7,o),
(901,16,cs),
(901,26,o),
(901,33,o),
(901,33,c),
(885,33,ls),
(852,33,o),
(830,35,o),
(830,45,c)
);
}
);
width = 941;
},
{
anchors = (
{
name = bottom;
pos = (447,0);
},
{
name = top;
pos = (447,500);
}
);
layerId = "8EEC74F5-9CFA-47B4-A8F8-9A6461F2D63F";
shapes = (
{
closed = 1;
nodes = (
(205,38,l),
(205,388,l),
(90,388,l),
(90,38,l)
);
},
{
closed = 1;
nodes = (
(200,360,l),
(221,400,o),
(261,426,o),
(300,426,cs),
(356,426,o),
(385,390,o),
(385,335,cs),
(385,38,l),
(500,38,l),
(500,335,ls),
(500,440,o),
(455,510,o),
(367,510,cs),
(304,510,o),
(237,464,o),
(200,394,c)
);
},
{
closed = 1;
nodes = (
(494,360,l),
(515,400,o),
(554,426,o),
(592,426,cs),
(650,426,o),
(679,390,o),
(679,335,cs),
(679,38,l),
(794,38,l),
(794,335,ls),
(794,440,o),
(748,510,o),
(659,510,cs),
(597,510,o),
(531,464,o),
(494,394,c)
);
},
{
closed = 1;
nodes = (
(90,45,l),
(90,35,o),
(68,33,o),
(35,33,cs),
(20,33,l),
(20,33,o),
(20,26,o),
(20,16,cs),
(20,7,o),
(20,0,o),
(20,0,c),
(141,0,l),
(263,0,l),
(263,0,o),
(263,7,o),
(263,16,cs),
(263,26,o),
(263,33,o),
(263,33,c),
(247,33,ls),
(222,33,o),
(205,35,o),
(205,45,c)
);
},
{
closed = 1;
nodes = (
(385,45,l),
(385,35,o),
(366,33,o),
(338,33,cs),
(323,33,l),
(323,33,o),
(323,26,o),
(323,16,cs),
(323,7,o),
(323,0,o),
(323,0,c),
(438,0,l),
(554,0,l),
(554,0,o),
(554,7,o),
(554,16,cs),
(554,26,o),
(554,33,o),
(554,33,c),
(538,33,ls),
(515,33,o),
(500,35,o),
(500,45,c)
);
},
{
closed = 1;
nodes = (
(205,482,o),
(205,500,o),
(205,500,c),
(205,500,l),
(205,500,o),
(205,500,o),
(205,500,c),
(205,500,o),
(205,500,o),
(205,500,c),
(185,500,l),
(20,440,l),
(20,440,o),
(20,433,o),
(20,424,cs),
(20,414,o),
(20,407,o),
(20,407,c),
(35,413,ls),
(68,425,o),
(90,420,o),
(90,353,c),
(205,388,l)
);
},
{
closed = 1;
nodes = (
(679,45,l),
(679,35,o),
(661,33,o),
(633,33,cs),
(617,33,l),
(617,33,o),
(617,26,o),
(617,16,cs),
(617,7,o),
(617,0,o),
(617,0,c),
(741,0,l),
(865,0,l),
(865,0,o),
(865,7,o),
(865,16,cs),
(865,26,o),
(865,33,o),
(865,33,c),
(849,33,ls),
(816,33,o),
(794,35,o),
(794,45,c)
);
}
);
width = 893;
}
);
note = m;
unicode = 109;
},
{
glyphname = n;
kernLeft = n;
kernRight = n;
lastChange = "2026-03-02 22:18:29 +0000";
layers = (
{
anchors = (
{
name = bottom;
pos = (321,0);
},
{
name = top;
pos = (321,500);
}
);
layerId = "E059459B-5795-442B-8710-0018C46129BA";
shapes = (
{
closed = 1;
nodes = (
(172,38,l),
(172,388,l),
(117,388,l),
(117,38,l)
);
},
{
closed = 1;
nodes = (
(170,363,l),
(213,427,o),
(280,469,o),
(338,469,cs),
(429,469,o),
(476,415,o),
(476,335,cs),
(476,38,l),
(532,38,l),
(532,335,ls),
(532,440,o),
(477,510,o),
(370,510,cs),
(302,510,o),
(222,458,o),
(170,379,c)
);
},
{
closed = 1;
nodes = (
(117,38,l),
(117,34,o),
(97,33,o),
(66,33,cs),
(51,33,l),
(51,33,o),
(51,26,o),
(51,16,cs),
(51,7,o),
(51,0,o),
(51,0,c),
(145,0,l),
(239,0,l),
(239,0,o),
(239,7,o),
(239,16,cs),
(239,26,o),
(239,33,o),
(239,33,c),
(223,33,ls),
(192,33,o),
(172,34,o),
(172,38,c)
);
},
{
closed = 1;
nodes = (
(476,38,l),
(476,34,o),
(456,33,o),
(426,33,cs),
(410,33,l),
(410,33,o),
(410,26,o),
(410,16,cs),
(410,7,o),
(410,0,o),
(410,0,c),
(504,0,l),
(598,0,l),
(598,0,o),
(598,7,o),
(598,16,cs),
(598,26,o),
(598,33,o),
(598,33,c),
(582,33,ls),
(552,33,o),
(532,34,o),
(532,38,c)
);
},
{
closed = 1;
nodes = (
(172,482,o),
(172,500,o),
(172,500,c),
(172,500,l),
(172,500,o),
(172,500,o),
(172,500,c),
(172,500,o),
(172,500,o),
(172,500,c),
(163,500,l),
(47,458,l),
(47,458,o),
(47,451,o),
(47,441,cs),
(47,432,o),
(47,425,o),
(47,425,c),
(62,431,ls),
(95,443,o),
(117,438,o),
(117,371,c),
(172,388,l)
);
}
);
width = 638;
},
{
anchors = (
{
name = bottom;
pos = (330,0);
},
{
name = top;
pos = (330,500);
}
);
layerId = "261B483D-14CB-4AC5-AE3A-41E540C8643C";
shapes = (
{
closed = 1;
nodes = (
(204,38,l),
(204,388,l),
(118,388,l),
(118,38,l)
);
},
{
closed = 1;
nodes = (
(200,362,l),
(232,413,o),
(287,447,o),
(339,447,cs),
(416,447,o),
(455,402,o),
(455,335,cs),
(455,38,l),
(541,38,l),
(541,335,ls),
(541,440,o),
(489,510,o),
(389,510,cs),
(322,510,o),
(246,461,o),
(200,387,c)
);
},
{
closed = 1;
nodes = (
(118,38,l),
(118,34,o),
(98,33,o),
(68,33,cs),
(52,33,l),
(52,33,o),
(52,26,o),
(52,16,cs),
(52,7,o),
(52,0,o),
(52,0,c),
(161,0,l),
(271,0,l),
(271,0,o),
(271,7,o),
(271,16,cs),
(271,26,o),
(271,33,o),
(271,33,c),
(255,33,ls),
(224,33,o),
(204,34,o),
(204,38,c)
);
},
{
closed = 1;
nodes = (
(455,38,l),
(455,34,o),
(435,33,o),
(404,33,cs),
(388,33,l),
(388,33,o),
(388,26,o),
(388,16,cs),
(388,7,o),
(388,0,o),
(388,0,c),
(498,0,l),
(607,0,l),
(607,0,o),
(607,7,o),
(607,16,cs),
(607,26,o),
(607,33,o),
(607,33,c),
(591,33,ls),
(561,33,o),
(541,34,o),
(541,38,c)
);
},
{
closed = 1;
nodes = (
(204,482,o),
(204,500,o),
(204,500,c),
(204,500,l),
(204,500,o),
(204,500,o),
(204,500,c),
(204,500,o),
(204,500,o),
(204,500,c),
(189,500,l),
(48,449,l),
(48,449,o),
(48,442,o),
(48,432,cs),
(48,422,o),
(48,416,o),
(48,416,c),
(64,422,ls),
(96,433,o),
(118,428,o),
(118,362,c),
(204,388,l)
);
}
);
width = 647;
},
{
anchors = (
{
name = bottom;
pos = (309,0);
},
{
name = top;
pos = (309,500);
}
);
layerId = "B523A5AF-871D-4AB2-9BF1-E01A824009A4";
shapes = (
{
closed = 1;
nodes = (
(171,38,l),
(171,388,l),
(101,388,l),
(101,38,l)
);
},
{
closed = 1;
nodes = (
(168,362,l),
(205,420,o),
(267,459,o),
(322,459,cs),
(407,459,o),
(450,409,o),
(450,335,cs),
(450,38,l),
(520,38,l),
(520,335,ls),
(520,440,o),
(467,510,o),
(363,510,cs),
(295,510,o),
(217,459,o),
(168,383,c)
);
},
{
closed = 1;
nodes = (
(101,38,l),
(101,34,o),
(81,33,o),
(51,33,cs),
(35,33,l),
(35,33,o),
(35,26,o),
(35,16,cs),
(35,7,o),
(35,0,o),
(35,0,c),
(136,0,l),
(238,0,l),
(238,0,o),
(238,7,o),
(238,16,cs),
(238,26,o),
(238,33,o),
(238,33,c),
(222,33,ls),
(191,33,o),
(171,34,o),
(171,38,c)
);
},
{
closed = 1;
nodes = (
(450,38,l),
(450,34,o),
(430,33,o),
(399,33,cs),
(383,33,l),
(383,33,o),
(383,26,o),
(383,16,cs),
(383,7,o),
(383,0,o),
(383,0,c),
(485,0,l),
(586,0,l),
(586,0,o),
(586,7,o),
(586,16,cs),
(586,26,o),
(586,33,o),
(586,33,c),
(570,33,ls),
(540,33,o),
(520,34,o),
(520,38,c)
);
},
{
closed = 1;
nodes = (
(171,482,o),
(171,500,o),
(171,500,c),
(171,500,l),
(171,500,o),
(171,500,o),
(171,500,c),
(171,500,o),
(171,500,o),
(171,500,c),
(159,500,l),
(31,453,l),
(31,453,o),
(31,447,o),
(31,437,cs),
(31,427,o),
(31,421,o),
(31,421,c),
(47,426,ls),
(79,438,o),
(101,433,o),
(101,367,c),
(171,388,l)
);
}
);
width = 618;
},
{
anchors = (
{
name = bottom;
pos = (334,0);
},
{
name = top;
pos = (334,500);
}
);
layerId = "D3C24151-4D63-4841-9665-5260E3226900";
shapes = (
{
closed = 1;
nodes = (
(219,38,l),
(219,388,l),
(119,388,l),
(119,38,l)
);
},
{
closed = 1;
nodes = (
(214,361,l),
(242,407,o),
(292,437,o),
(340,437,cs),
(409,437,o),
(445,396,o),
(445,335,cs),
(445,38,l),
(545,38,l),
(545,335,ls),
(545,440,o),
(495,510,o),
(398,510,cs),
(331,510,o),
(257,462,o),
(214,390,c)
);
},
{
closed = 1;
nodes = (
(119,38,l),
(119,34,o),
(99,33,o),
(68,33,cs),
(53,33,l),
(53,33,o),
(53,26,o),
(53,16,cs),
(53,7,o),
(53,0,o),
(53,0,c),
(169,0,l),
(285,0,l),
(285,0,o),
(285,7,o),
(285,16,cs),
(285,26,o),
(285,33,o),
(285,33,c),
(269,33,ls),
(239,33,o),
(219,34,o),
(219,38,c)
);
},
{
closed = 1;
nodes = (
(445,38,l),
(445,34,o),
(425,33,o),
(394,33,cs),
(378,33,l),
(378,33,o),
(378,26,o),
(378,16,cs),
(378,7,o),
(378,0,o),
(378,0,c),
(495,0,l),
(611,0,l),
(611,0,o),
(611,7,o),
(611,16,cs),
(611,26,o),
(611,33,o),
(611,33,c),
(595,33,ls),
(565,33,o),
(545,34,o),
(545,38,c)
);
},
{
closed = 1;
nodes = (
(219,482,o),
(219,500,o),
(219,500,c),
(219,500,l),
(219,500,o),
(219,500,o),
(219,500,c),
(219,500,o),
(219,500,o),
(219,500,c),
(201,500,l),
(48,444,l),
(48,444,o),
(48,438,o),
(48,428,cs),
(48,418,o),
(48,411,o),
(48,412,c),
(64,417,ls),
(97,429,o),
(119,424,o),
(119,358,c),
(219,388,l)
);
}
);
width = 651;
},
{
anchors = (
{
name = bottom;
pos = (309,0);
},
{
name = top;
pos = (309,500);
}
);
layerId = "8EEC74F5-9CFA-47B4-A8F8-9A6461F2D63F";
shapes = (
{
closed = 1;
nodes = (
(205,38,l),
(205,388,l),
(90,388,l),
(90,38,l)
);
},
{
closed = 1;
nodes = (
(200,360,l),
(222,400,o),
(267,426,o),
(311,426,cs),
(373,426,o),
(405,390,o),
(405,335,cs),
(405,38,l),
(520,38,l),
(520,335,ls),
(520,440,o),
(472,510,o),
(378,510,cs),
(311,510,o),
(240,464,o),
(200,394,c)
);
},
{
closed = 1;
nodes = (
(90,38,l),
(90,34,o),
(70,33,o),
(40,33,cs),
(24,33,l),
(24,33,o),
(24,26,o),
(24,16,cs),
(24,7,o),
(24,0,o),
(24,0,c),
(148,0,l),
(271,0,l),
(271,0,o),
(271,7,o),
(271,16,cs),
(271,26,o),
(271,33,o),
(271,33,c),
(256,33,ls),
(225,33,o),
(205,34,o),
(205,38,c)
);
},
{
closed = 1;
nodes = (
(405,38,l),
(405,34,o),
(385,33,o),
(354,33,cs),
(338,33,l),
(338,33,o),
(338,26,o),
(338,16,cs),
(338,7,o),
(338,0,o),
(338,0,c),
(462,0,l),
(586,0,l),
(586,0,o),
(586,7,o),
(586,16,cs),
(586,26,o),
(586,33,o),
(586,33,c),
(570,33,ls),
(540,33,o),
(520,34,o),
(520,38,c)
);
},
{
closed = 1;
nodes = (
(205,482,o),
(205,500,o),
(205,500,c),
(205,500,l),
(205,500,o),
(205,500,o),
(205,500,c),
(205,500,o),
(205,500,o),
(205,500,c),
(185,500,l),
(20,440,l),
(20,440,o),
(20,433,o),
(20,424,cs),
(20,414,o),
(20,407,o),
(20,407,c),
(35,413,ls),
(68,425,o),
(90,420,o),
(90,353,c),
(205,388,l)
);
}
);
width = 618;
}
);
note = n;
unicode = 110;
},
{
glyphname = o;
kernLeft = "0";
kernRight = "0";
lastChange = "2026-03-02 22:22:45 +0000";
layers = (
{
anchors = (
{
name = bottom;
pos = (301,0);
},
{
name = center;
pos = (301,250);
},
{
name = ogonek;
pos = (529,10);
},
{
name = top;
pos = (301,500);
},
{
name = topright;
pos = (566,500);
}
);
layerId = "E059459B-5795-442B-8710-0018C46129BA";
shapes = (
{
closed = 1;
nodes = (
(58,94,o),
(155,-10,o),
(300,-10,cs),
(444,-10,o),
(541,94,o),
(541,250,cs),
(541,406,o),
(444,510,o),
(300,510,cs),
(155,510,o),
(58,406,o),
(58,250,cs)
);
},
{
closed = 1;
nodes = (
(191,7,o),
(119,104,o),
(119,250,cs),
(119,396,o),
(191,493,o),
(300,493,cs),
(408,493,o),
(480,396,o),
(480,250,cs),
(480,104,o),
(408,7,o),
(300,7,cs)
);
}
);
width = 599;
},
{
anchors = (
{
name = bottom;
pos = (307,0);
},
{
name = center;
pos = (307,250);
},
{
name = ogonek;
pos = (537,10);
},
{
name = top;
pos = (307,500);
},
{
name = topright;
pos = (575,500);
}
);
layerId = "261B483D-14CB-4AC5-AE3A-41E540C8643C";
shapes = (
{
closed = 1;
nodes = (
(58,94,o),
(156,-10,o),
(304,-10,cs),
(452,-10,o),
(550,94,o),
(550,250,cs),
(550,406,o),
(452,510,o),
(304,510,cs),
(156,510,o),
(58,406,o),
(58,250,cs)
);
},
{
closed = 1;
nodes = (
(213,16,o),
(153,110,o),
(153,250,cs),
(153,390,o),
(213,484,o),
(304,484,cs),
(395,484,o),
(455,390,o),
(455,250,cs),
(455,110,o),
(395,16,o),
(304,16,cs)
);
}
);
width = 608;
},
{
anchors = (
{
name = bottom;
pos = (287,0);
},
{
name = center;
pos = (287,250);
},
{
name = ogonek;
pos = (516,10);
},
{
name = top;
pos = (287,500);
},
{
name = topright;
pos = (553,500);
}
);
layerId = "B523A5AF-871D-4AB2-9BF1-E01A824009A4";
shapes = (
{
closed = 1;
nodes = (
(41,94,o),
(139,-10,o),
(285,-10,cs),
(431,-10,o),
(528,94,o),
(528,250,cs),
(528,406,o),
(431,510,o),
(285,510,cs),
(139,510,o),
(41,406,o),
(41,250,cs)
);
},
{
closed = 1;
nodes = (
(185,11,o),
(119,107,o),
(119,250,cs),
(119,393,o),
(185,489,o),
(285,489,cs),
(385,489,o),
(451,393,o),
(451,250,cs),
(451,107,o),
(385,11,o),
(285,11,cs)
);
}
);
width = 573;
},
{
anchors = (
{
name = bottom;
pos = (308,0);
},
{
name = center;
pos = (308,250);
},
{
name = ogonek;
pos = (540,10);
},
{
name = top;
pos = (308,500);
},
{
name = topright;
pos = (578,500);
}
);
layerId = "D3C24151-4D63-4841-9665-5260E3226900";
shapes = (
{
closed = 1;
nodes = (
(58,94,o),
(157,-10,o),
(305,-10,cs),
(454,-10,o),
(553,94,o),
(553,250,cs),
(553,406,o),
(454,510,o),
(305,510,cs),
(157,510,o),
(58,406,o),
(58,250,cs)
);
},
{
closed = 1;
nodes = (
(223,20,o),
(168,112,o),
(168,250,cs),
(168,388,o),
(223,480,o),
(305,480,cs),
(388,480,o),
(443,388,o),
(443,250,cs),
(443,112,o),
(388,20,o),
(305,20,cs)
);
}
);
width = 611;
},
{
anchors = (
{
name = bottom;
pos = (292,0);
},
{
name = center;
pos = (292,250);
},
{
name = ogonek;
pos = (525,10);
},
{
name = top;
pos = (292,500);
},
{
name = topright;
pos = (563,500);
}
);
layerId = "8EEC74F5-9CFA-47B4-A8F8-9A6461F2D63F";
shapes = (
{
closed = 1;
nodes = (
(39,94,o),
(139,-10,o),
(289,-10,cs),
(439,-10,o),
(539,94,o),
(539,250,cs),
(539,406,o),
(439,510,o),
(289,510,cs),
(139,510,o),
(39,406,o),
(39,250,cs)
);
},
{
closed = 1;
nodes = (
(215,24,o),
(166,114,o),
(166,250,cs),
(166,386,o),
(215,476,o),
(289,476,cs),
(362,476,o),
(411,386,o),
(411,250,cs),
(411,114,o),
(362,24,o),
(289,24,cs)
);
}
);
width = 583;
}
);
note = o;
unicode = 111;
},
{
glyphname = p;
lastChange = "2026-03-02 22:18:30 +0000";
layers = (
{
anchors = (
{
name = bottom;
pos = (305,0);
},
{
name = top;
pos = (305,500);
}
);
layerId = "E059459B-5795-442B-8710-0018C46129BA";
shapes = (
{
closed = 1;
nodes = (
(112,-182,l),
(168,-182,l),
(168,388,l),
(112,388,l)
);
},
{
closed = 1;
nodes = (
(189,452,o),
(249,487,o),
(313,487,cs),
(420,487,o),
(492,387,o),
(492,237,cs),
(492,113,o),
(413,8,o),
(294,8,cs),
(242,8,o),
(189,54,o),
(161,123,c),
(145,108,l),
(173,40,o),
(234,-5,o),
(299,-5,cs),
(451,-5,o),
(552,114,o),
(552,254,cs),
(552,408,o),
(467,510,o),
(338,510,cs),
(260,510,o),
(189,475,o),
(161,422,c),
(161,399,l)
);
},
{
closed = 1;
nodes = (
(112,-144,l),
(112,-180,o),
(90,-187,o),
(58,-187,cs),
(42,-187,l),
(42,-187,o),
(42,-194,o),
(42,-204,cs),
(42,-213,o),
(42,-220,o),
(42,-220,c),
(140,-220,l),
(238,-220,l),
(238,-220,o),
(238,-213,o),
(238,-204,cs),
(238,-194,o),
(238,-187,o),
(238,-187,c),
(223,-187,ls),
(190,-187,o),
(168,-180,o),
(168,-144,c)
);
},
{
closed = 1;
nodes = (
(168,482,o),
(168,500,o),
(168,500,c),
(168,500,l),
(168,500,o),
(168,500,o),
(168,500,c),
(168,500,o),
(168,500,o),
(168,500,c),
(158,500,l),
(42,458,l),
(42,458,o),
(42,451,o),
(42,441,cs),
(42,431,o),
(42,425,o),
(42,425,c),
(58,431,ls),
(90,442,o),
(112,438,o),
(112,371,c),
(168,388,l)
);
}
);
width = 609;
},
{
anchors = (
{
name = bottom;
pos = (311,0);
},
{
name = top;
pos = (311,500);
}
);
layerId = "261B483D-14CB-4AC5-AE3A-41E540C8643C";
shapes = (
{
closed = 1;
nodes = (
(114,-182,l),
(199,-182,l),
(199,388,l),
(114,388,l)
);
},
{
closed = 1;
nodes = (
(217,439,o),
(266,474,o),
(312,474,cs),
(406,474,o),
(468,376,o),
(468,230,cs),
(468,114,o),
(402,15,o),
(303,15,cs),
(262,15,o),
(216,58,o),
(189,123,c),
(164,99,l),
(189,37,o),
(248,-5,o),
(311,-5,cs),
(462,-5,o),
(562,115,o),
(562,257,cs),
(562,409,o),
(478,510,o),
(352,510,cs),
(282,510,o),
(217,475,o),
(189,422,c),
(189,386,l)
);
},
{
closed = 1;
nodes = (
(114,-144,l),
(114,-180,o),
(92,-187,o),
(59,-187,cs),
(43,-187,l),
(43,-187,o),
(43,-194,o),
(43,-204,cs),
(43,-213,o),
(43,-220,o),
(43,-220,c),
(156,-220,l),
(270,-220,l),
(270,-220,o),
(270,-213,o),
(270,-204,cs),
(270,-194,o),
(270,-187,o),
(270,-187,c),
(254,-187,ls),
(221,-187,o),
(199,-180,o),
(199,-144,c)
);
},
{
closed = 1;
nodes = (
(199,482,o),
(199,500,o),
(199,500,c),
(199,500,l),
(199,500,o),
(199,500,o),
(199,500,c),
(199,500,o),
(199,500,o),
(199,500,c),
(184,500,l),
(43,449,l),
(43,449,o),
(43,442,o),
(43,432,cs),
(43,422,o),
(43,416,o),
(43,416,c),
(59,422,ls),
(92,434,o),
(114,429,o),
(114,362,c),
(199,388,l)
);
}
);
width = 620;
},
{
anchors = (
{
name = bottom;
pos = (294,0);
},
{
name = top;
pos = (294,500);
}
);
layerId = "B523A5AF-871D-4AB2-9BF1-E01A824009A4";
shapes = (
{
closed = 1;
nodes = (
(100,-182,l),
(170,-182,l),
(170,388,l),
(100,388,l)
);
},
{
closed = 1;
nodes = (
(189,446,o),
(244,481,o),
(299,481,cs),
(400,481,o),
(467,382,o),
(467,233,cs),
(467,114,o),
(394,12,o),
(285,12,cs),
(238,12,o),
(189,57,o),
(161,123,c),
(140,104,l),
(167,39,o),
(228,-5,o),
(292,-5,cs),
(443,-5,o),
(544,115,o),
(544,256,cs),
(544,408,o),
(459,510,o),
(332,510,cs),
(257,510,o),
(189,475,o),
(161,422,c),
(161,393,l)
);
},
{
closed = 1;
nodes = (
(100,-144,l),
(100,-180,o),
(78,-187,o),
(45,-187,cs),
(29,-187,l),
(29,-187,o),
(29,-194,o),
(29,-204,cs),
(29,-213,o),
(29,-220,o),
(29,-220,c),
(135,-220,l),
(240,-220,l),
(240,-220,o),
(240,-213,o),
(240,-204,cs),
(240,-194,o),
(240,-187,o),
(240,-187,c),
(224,-187,ls),
(192,-187,o),
(170,-180,o),
(170,-144,c)
);
},
{
closed = 1;
nodes = (
(170,482,o),
(170,500,o),
(170,500,c),
(170,500,l),
(170,500,o),
(170,500,o),
(170,500,c),
(170,500,o),
(170,500,o),
(170,500,c),
(157,500,l),
(29,453,l),
(29,453,o),
(29,447,o),
(29,437,cs),
(29,427,o),
(29,420,o),
(29,421,c),
(45,426,ls),
(78,438,o),
(100,433,o),
(100,367,c),
(170,388,l)
);
}
);
width = 588;
},
{
anchors = (
{
name = bottom;
pos = (313,0);
},
{
name = top;
pos = (313,500);
}
);
layerId = "D3C24151-4D63-4841-9665-5260E3226900";
shapes = (
{
closed = 1;
nodes = (
(114,-182,l),
(214,-182,l),
(214,388,l),
(114,388,l)
);
},
{
closed = 1;
nodes = (
(229,433,o),
(273,468,o),
(312,468,cs),
(398,468,o),
(456,371,o),
(456,226,cs),
(456,114,o),
(397,19,o),
(307,19,cs),
(270,19,o),
(228,61,o),
(202,123,c),
(172,96,l),
(197,35,o),
(255,-5,o),
(317,-5,cs),
(466,-5,o),
(566,116,o),
(566,258,cs),
(566,409,o),
(483,510,o),
(358,510,cs),
(292,510,o),
(230,475,o),
(202,422,c),
(202,381,l)
);
},
{
closed = 1;
nodes = (
(114,-144,l),
(114,-180,o),
(92,-187,o),
(59,-187,cs),
(43,-187,l),
(43,-187,o),
(43,-194,o),
(43,-204,cs),
(43,-213,o),
(43,-220,o),
(43,-220,c),
(164,-220,l),
(284,-220,l),
(284,-220,o),
(284,-213,o),
(284,-204,cs),
(284,-194,o),
(284,-187,o),
(284,-187,c),
(268,-187,ls),
(236,-187,o),
(214,-180,o),
(214,-144,c)
);
},
{
closed = 1;
nodes = (
(214,482,o),
(214,500,o),
(214,500,c),
(214,500,l),
(214,500,o),
(214,500,o),
(214,500,c),
(214,500,o),
(214,500,o),
(214,500,c),
(196,500,l),
(43,444,l),
(43,444,o),
(43,438,o),
(43,428,cs),
(43,418,o),
(43,411,o),
(43,412,c),
(59,417,ls),
(92,429,o),
(114,424,o),
(114,358,c),
(214,388,l)
);
}
);
width = 624;
},
{
anchors = (
{
name = bottom;
pos = (299,0);
},
{
name = top;
pos = (299,500);
}
);
layerId = "8EEC74F5-9CFA-47B4-A8F8-9A6461F2D63F";
shapes = (
{
closed = 1;
nodes = (
(97,-182,l),
(212,-182,l),
(212,388,l),
(97,388,l)
);
},
{
closed = 1;
nodes = (
(226,427,o),
(264,462,o),
(294,462,cs),
(374,462,o),
(427,366,o),
(427,223,cs),
(427,114,o),
(374,22,o),
(295,22,cs),
(262,22,o),
(223,63,o),
(198,123,c),
(164,91,l),
(187,34,o),
(244,-5,o),
(306,-5,cs),
(454,-5,o),
(553,116,o),
(553,259,cs),
(553,410,o),
(471,510,o),
(348,510,cs),
(285,510,o),
(226,475,o),
(198,422,c),
(198,374,l)
);
},
{
closed = 1;
nodes = (
(97,-144,l),
(97,-180,o),
(75,-187,o),
(42,-187,cs),
(26,-187,l),
(26,-187,o),
(26,-194,o),
(26,-204,cs),
(26,-213,o),
(26,-220,o),
(26,-220,c),
(154,-220,l),
(282,-220,l),
(282,-220,o),
(282,-213,o),
(282,-204,cs),
(282,-194,o),
(282,-187,o),
(282,-187,c),
(266,-187,ls),
(234,-187,o),
(212,-180,o),
(212,-144,c)
);
},
{
closed = 1;
nodes = (
(212,482,o),
(212,500,o),
(212,500,c),
(212,500,l),
(212,500,o),
(212,500,o),
(212,500,c),
(212,500,o),
(212,500,o),
(212,500,c),
(191,500,l),
(26,440,l),
(26,440,o),
(26,433,o),
(26,424,cs),
(26,413,o),
(26,407,o),
(26,407,c),
(42,413,ls),
(75,425,o),
(97,420,o),
(97,353,c),
(212,388,l)
);
}
);
width = 598;
}
);
note = p;
unicode = 112;
},
{
glyphname = q;
kernLeft = o;
kernRight = o;
lastChange = "2026-03-02 22:18:29 +0000";
layers = (
{
anchors = (
{
name = bottom;
pos = (313,0);
},
{
name = top;
pos = (313,500);
}
);
layerId = "E059459B-5795-442B-8710-0018C46129BA";
shapes = (
{
closed = 1;
nodes = (
(493,-182,l),
(493,407,l),
(493,440,l),
(493,500,l),
(490,500,l),
(472,440,l),
(438,407,l),
(438,-182,l)
);
},
{
closed = 1;
nodes = (
(444,95,l),
(404,49,o),
(349,18,o),
(305,18,cs),
(192,18,o),
(116,118,o),
(116,269,cs),
(116,406,o),
(180,497,o),
(303,497,cs),
(355,497,o),
(409,461,o),
(438,407,c),
(472,440,l),
(431,482,o),
(365,510,o),
(306,510,cs),
(142,510,o),
(58,407,o),
(58,253,cs),
(58,98,o),
(148,-5,o),
(282,-5,cs),
(338,-5,o),
(403,27,o),
(444,75,c)
);
},
{
closed = 1;
nodes = (
(438,-182,l),
(438,-186,o),
(416,-187,o),
(383,-187,cs),
(367,-187,l),
(367,-187,o),
(367,-194,o),
(367,-204,cs),
(367,-213,o),
(367,-220,o),
(367,-220,c),
(465,-220,l),
(563,-220,l),
(563,-220,o),
(563,-213,o),
(563,-204,cs),
(563,-194,o),
(563,-187,o),
(563,-187,c),
(548,-187,ls),
(515,-187,o),
(493,-186,o),
(493,-182,c)
);
}
);
width = 577;
},
{
anchors = (
{
name = bottom;
pos = (318,0);
},
{
name = top;
pos = (318,500);
}
);
layerId = "261B483D-14CB-4AC5-AE3A-41E540C8643C";
shapes = (
{
closed = 1;
nodes = (
(501,-182,l),
(501,390,l),
(501,440,l),
(501,500,l),
(496,500,l),
(468,440,l),
(415,390,l),
(415,-182,l)
);
},
{
closed = 1;
nodes = (
(425,105,l),
(387,61,o),
(340,31,o),
(307,31,cs),
(212,31,o),
(148,129,o),
(148,275,cs),
(148,404,o),
(200,490,o),
(299,490,cs),
(337,490,o),
(383,450,o),
(415,390,c),
(468,440,l),
(428,482,o),
(362,510,o),
(304,510,cs),
(142,510,o),
(59,406,o),
(59,251,cs),
(59,97,o),
(144,-5,o),
(272,-5,cs),
(323,-5,o),
(384,27,o),
(425,75,c)
);
},
{
closed = 1;
nodes = (
(415,-182,l),
(415,-186,o),
(393,-187,o),
(361,-187,cs),
(345,-187,l),
(345,-187,o),
(345,-194,o),
(345,-204,cs),
(345,-213,o),
(345,-220,o),
(345,-220,c),
(458,-220,l),
(572,-220,l),
(572,-220,o),
(572,-213,o),
(572,-204,cs),
(572,-194,o),
(572,-187,o),
(572,-187,c),
(556,-187,ls),
(523,-187,o),
(501,-186,o),
(501,-182,c)
);
}
);
width = 585;
},
{
anchors = (
{
name = bottom;
pos = (301,0);
},
{
name = top;
pos = (301,500);
}
);
layerId = "B523A5AF-871D-4AB2-9BF1-E01A824009A4";
shapes = (
{
closed = 1;
nodes = (
(483,-182,l),
(483,399,l),
(483,440,l),
(483,500,l),
(478,500,l),
(455,440,l),
(413,399,l),
(413,-182,l)
);
},
{
closed = 1;
nodes = (
(421,100,l),
(382,54,o),
(330,24,o),
(292,24,cs),
(187,24,o),
(117,123,o),
(117,272,cs),
(117,405,o),
(175,494,o),
(287,494,cs),
(332,494,o),
(382,456,o),
(413,399,c),
(455,440,l),
(415,482,o),
(349,510,o),
(291,510,cs),
(128,510,o),
(44,407,o),
(44,252,cs),
(44,98,o),
(131,-5,o),
(263,-5,cs),
(316,-5,o),
(379,27,o),
(421,75,c)
);
},
{
closed = 1;
nodes = (
(413,-182,l),
(413,-186,o),
(391,-187,o),
(358,-187,cs),
(342,-187,l),
(342,-187,o),
(342,-194,o),
(342,-204,cs),
(342,-213,o),
(342,-220,o),
(342,-220,c),
(448,-220,l),
(553,-220,l),
(553,-220,o),
(553,-213,o),
(553,-204,cs),
(553,-194,o),
(553,-187,o),
(553,-187,c),
(537,-187,ls),
(505,-187,o),
(483,-186,o),
(483,-182,c)
);
}
);
width = 602;
},
{
anchors = (
{
name = bottom;
pos = (320,0);
},
{
name = top;
pos = (320,500);
}
);
layerId = "D3C24151-4D63-4841-9665-5260E3226900";
shapes = (
{
closed = 1;
nodes = (
(505,-182,l),
(505,390,l),
(505,440,l),
(505,500,l),
(499,500,l),
(466,440,l),
(405,390,l),
(405,-182,l)
);
},
{
closed = 1;
nodes = (
(416,110,l),
(378,66,o),
(335,37,o),
(308,37,cs),
(220,37,o),
(162,133,o),
(162,278,cs),
(162,403,o),
(208,487,o),
(297,487,cs),
(331,487,o),
(374,448,o),
(405,390,c),
(466,440,l),
(432,482,o),
(367,510,o),
(303,510,cs),
(142,510,o),
(59,406,o),
(59,250,cs),
(59,97,o),
(142,-5,o),
(266,-5,cs),
(315,-5,o),
(375,27,o),
(416,75,c)
);
},
{
closed = 1;
nodes = (
(405,-182,l),
(405,-186,o),
(383,-187,o),
(350,-187,cs),
(334,-187,l),
(334,-187,o),
(334,-194,o),
(334,-204,cs),
(334,-213,o),
(334,-220,o),
(334,-220,c),
(455,-220,l),
(575,-220,l),
(575,-220,o),
(575,-213,o),
(575,-204,cs),
(575,-194,o),
(575,-187,o),
(575,-187,c),
(559,-187,ls),
(527,-187,o),
(505,-186,o),
(505,-182,c)
);
}
);
width = 589;
},
{
anchors = (
{
name = bottom;
pos = (307,0);
},
{
name = top;
pos = (307,500);
}
);
layerId = "8EEC74F5-9CFA-47B4-A8F8-9A6461F2D63F";
shapes = (
{
closed = 1;
nodes = (
(493,-182,l),
(493,390,l),
(493,440,l),
(493,500,l),
(486,500,l),
(449,440,l),
(378,390,l),
(378,-182,l)
);
},
{
closed = 1;
nodes = (
(392,116,l),
(354,72,o),
(315,43,o),
(293,43,cs),
(215,43,o),
(163,138,o),
(163,281,cs),
(163,403,o),
(203,484,o),
(280,484,cs),
(309,484,o),
(348,446,o),
(378,390,c),
(449,440,l),
(419,482,o),
(354,510,o),
(287,510,cs),
(126,510,o),
(44,406,o),
(44,249,cs),
(44,97,o),
(125,-5,o),
(246,-5,cs),
(292,-5,o),
(351,27,o),
(392,75,c)
);
},
{
closed = 1;
nodes = (
(378,-182,l),
(378,-186,o),
(356,-187,o),
(324,-187,cs),
(308,-187,l),
(308,-187,o),
(308,-194,o),
(308,-204,cs),
(308,-213,o),
(308,-220,o),
(308,-220,c),
(436,-220,l),
(564,-220,l),
(564,-220,o),
(564,-213,o),
(564,-204,cs),
(564,-194,o),
(564,-187,o),
(564,-187,c),
(548,-187,ls),
(515,-187,o),
(493,-186,o),
(493,-182,c)
);
}
);
width = 613;
}
);
note = q;
unicode = 113;
},
{
glyphname = r;
kernLeft = n;
lastChange = "2026-03-02 22:18:30 +0000";
layers = (
{
anchors = (
{
name = bottom;
pos = (196,0);
},
{
name = top;
pos = (196,500);
}
);
layerId = "E059459B-5795-442B-8710-0018C46129BA";
shapes = (
{
closed = 1;
nodes = (
(310,444,l),
(310,424,o),
(323,411,o),
(343,411,cs),
(362,411,o),
(375,424,o),
(375,444,c)
);
},
{
closed = 1;
nodes = (
(172,38,l),
(172,388,l),
(117,388,l),
(117,38,l)
);
},
{
closed = 1;
nodes = (
(169,353,l),
(186,432,o),
(233,484,o),
(285,484,cs),
(301,484,o),
(311,468,o),
(310,444,c),
(375,444,l),
(376,484,o),
(350,510,o),
(311,510,cs),
(243,510,o),
(186,459,o),
(169,382,c)
);
},
{
closed = 1;
nodes = (
(117,38,l),
(117,34,o),
(98,33,o),
(71,33,cs),
(55,33,l),
(55,33,o),
(55,26,o),
(55,16,cs),
(55,7,o),
(55,0,o),
(55,0,c),
(149,0,l),
(243,0,l),
(243,0,o),
(243,7,o),
(243,16,cs),
(243,26,o),
(243,33,o),
(243,33,c),
(227,33,ls),
(194,33,o),
(172,34,o),
(172,38,c)
);
},
{
closed = 1;
nodes = (
(172,482,o),
(172,500,o),
(172,500,c),
(172,500,l),
(172,500,o),
(172,500,o),
(172,500,c),
(172,500,o),
(172,500,o),
(172,500,c),
(163,500,l),
(47,458,l),
(47,458,o),
(47,451,o),
(47,441,cs),
(47,432,o),
(47,425,o),
(47,425,c),
(62,431,ls),
(95,443,o),
(117,438,o),
(117,371,c),
(172,388,l)
);
}
);
width = 418;
},
{
anchors = (
{
name = bottom;
pos = (229,0);
},
{
name = top;
pos = (229,500);
}
);
layerId = "261B483D-14CB-4AC5-AE3A-41E540C8643C";
shapes = (
{
closed = 1;
nodes = (
(332,430,l),
(331,399,o),
(352,379,o),
(383,379,cs),
(412,379,o),
(432,399,o),
(433,430,c)
);
},
{
closed = 1;
nodes = (
(203,38,l),
(203,388,l),
(117,388,l),
(117,38,l)
);
},
{
closed = 1;
nodes = (
(198,341,l),
(215,418,o),
(257,470,o),
(302,470,cs),
(320,470,o),
(333,454,o),
(332,430,c),
(433,430,l),
(434,478,o),
(397,510,o),
(342,510,cs),
(272,510,o),
(215,461,o),
(198,386,c)
);
},
{
closed = 1;
nodes = (
(117,38,l),
(117,34,o),
(99,33,o),
(71,33,cs),
(55,33,l),
(55,33,o),
(55,26,o),
(55,16,cs),
(55,7,o),
(55,0,o),
(55,0,c),
(164,0,l),
(274,0,l),
(274,0,o),
(274,7,o),
(274,16,cs),
(274,26,o),
(274,33,o),
(274,33,c),
(258,33,ls),
(225,33,o),
(203,34,o),
(203,38,c)
);
},
{
closed = 1;
nodes = (
(203,482,o),
(203,500,o),
(203,500,c),
(203,500,l),
(203,500,o),
(203,500,o),
(203,500,c),
(203,500,o),
(203,500,o),
(203,500,c),
(188,500,l),
(47,449,l),
(47,449,o),
(47,442,o),
(47,432,cs),
(47,422,o),
(47,416,o),
(47,416,c),
(63,422,ls),
(95,433,o),
(117,428,o),
(117,362,c),
(203,388,l)
);
}
);
width = 477;
},
{
anchors = (
{
name = bottom;
pos = (202,0);
},
{
name = top;
pos = (202,500);
}
);
layerId = "B523A5AF-871D-4AB2-9BF1-E01A824009A4";
shapes = (
{
closed = 1;
nodes = (
(311,437,l),
(310,412,o),
(327,396,o),
(352,396,cs),
(376,396,o),
(392,412,o),
(393,437,c)
);
},
{
closed = 1;
nodes = (
(177,38,l),
(177,388,l),
(107,388,l),
(107,38,l)
);
},
{
closed = 1;
nodes = (
(173,347,l),
(190,425,o),
(234,477,o),
(283,477,cs),
(300,477,o),
(311,461,o),
(311,437,c),
(393,437,l),
(394,481,o),
(363,510,o),
(316,510,cs),
(247,510,o),
(190,460,o),
(173,384,c)
);
},
{
closed = 1;
nodes = (
(107,38,l),
(107,34,o),
(89,33,o),
(61,33,cs),
(45,33,l),
(45,33,o),
(45,26,o),
(45,16,cs),
(45,7,o),
(45,0,o),
(45,0,c),
(146,0,l),
(248,0,l),
(248,0,o),
(248,7,o),
(248,16,cs),
(248,26,o),
(248,33,o),
(248,33,c),
(232,33,ls),
(199,33,o),
(177,34,o),
(177,38,c)
);
},
{
closed = 1;
nodes = (
(177,482,o),
(177,500,o),
(177,500,c),
(177,500,l),
(177,500,o),
(177,500,o),
(177,500,c),
(177,500,o),
(177,500,o),
(177,500,c),
(165,500,l),
(37,453,l),
(37,453,o),
(37,447,o),
(37,437,cs),
(37,427,o),
(37,421,o),
(37,421,c),
(53,426,ls),
(85,438,o),
(107,433,o),
(107,367,c),
(177,388,l)
);
}
);
width = 403;
},
{
anchors = (
{
name = bottom;
pos = (244,0);
},
{
name = top;
pos = (244,500);
}
);
layerId = "D3C24151-4D63-4841-9665-5260E3226900";
shapes = (
{
closed = 1;
nodes = (
(342,423,l),
(342,388,o),
(366,364,o),
(401,364,cs),
(436,364,o),
(459,388,o),
(460,423,c)
);
},
{
closed = 1;
nodes = (
(218,38,l),
(218,388,l),
(118,388,l),
(118,38,l)
);
},
{
closed = 1;
nodes = (
(212,336,l),
(229,412,o),
(268,463,o),
(310,463,cs),
(330,463,o),
(343,447,o),
(342,423,c),
(460,423,l),
(461,475,o),
(419,510,o),
(356,510,cs),
(286,510,o),
(228,461,o),
(212,388,c)
);
},
{
closed = 1;
nodes = (
(118,38,l),
(118,34,o),
(99,33,o),
(71,33,cs),
(56,33,l),
(56,33,o),
(56,26,o),
(56,16,cs),
(56,7,o),
(56,0,o),
(56,0,c),
(172,0,l),
(288,0,l),
(288,0,o),
(288,7,o),
(288,16,cs),
(288,26,o),
(288,33,o),
(288,33,c),
(272,33,ls),
(240,33,o),
(218,34,o),
(218,38,c)
);
},
{
closed = 1;
nodes = (
(218,482,o),
(218,500,o),
(218,500,c),
(218,500,l),
(218,500,o),
(218,500,o),
(218,500,c),
(218,500,o),
(218,500,o),
(218,500,c),
(200,500,l),
(47,444,l),
(47,444,o),
(47,438,o),
(47,428,cs),
(47,418,o),
(47,411,o),
(47,412,c),
(63,417,ls),
(96,429,o),
(118,424,o),
(118,358,c),
(218,388,l)
);
}
);
width = 505;
},
{
anchors = (
{
name = bottom;
pos = (238,0);
},
{
name = top;
pos = (238,500);
}
);
layerId = "8EEC74F5-9CFA-47B4-A8F8-9A6461F2D63F";
shapes = (
{
closed = 1;
nodes = (
(331,416,l),
(330,375,o),
(358,348,o),
(399,348,cs),
(439,348,o),
(466,375,o),
(467,416,c)
);
},
{
closed = 1;
nodes = (
(211,38,l),
(211,388,l),
(96,388,l),
(96,38,l)
);
},
{
closed = 1;
nodes = (
(204,330,l),
(222,406,o),
(258,456,o),
(296,456,cs),
(318,456,o),
(332,440,o),
(331,416,c),
(467,416,l),
(467,472,o),
(421,510,o),
(349,510,cs),
(278,510,o),
(220,462,o),
(204,390,c)
);
},
{
closed = 1;
nodes = (
(96,38,l),
(96,34,o),
(77,33,o),
(50,33,cs),
(34,33,l),
(34,33,o),
(34,26,o),
(34,16,cs),
(34,7,o),
(34,0,o),
(34,0,c),
(158,0,l),
(282,0,l),
(282,0,o),
(282,7,o),
(282,16,cs),
(282,26,o),
(282,33,o),
(282,33,c),
(266,33,ls),
(233,33,o),
(211,34,o),
(211,38,c)
);
},
{
closed = 1;
nodes = (
(211,482,o),
(211,500,o),
(211,500,c),
(211,500,l),
(211,500,o),
(211,500,o),
(211,500,c),
(211,500,o),
(211,500,o),
(211,500,c),
(191,500,l),
(26,440,l),
(26,440,o),
(26,433,o),
(26,424,cs),
(26,414,o),
(26,407,o),
(26,407,c),
(41,413,ls),
(74,425,o),
(96,420,o),
(96,353,c),
(211,388,l)
);
}
);
width = 476;
}
);
note = r;
unicode = 114;
},
{
glyphname = s;
lastChange = "2026-03-02 22:30:50 +0000";
layers = (
{
anchors = (
{
name = bottom;
pos = (205,0);
},
{
name = top;
pos = (205,500);
}
);
layerId = "E059459B-5795-442B-8710-0018C46129BA";
shapes = (
{
closed = 1;
nodes = (
(318,476,o),
(259,510,o),
(196,510,cs),
(118,510,o),
(67,461,o),
(67,387,cs),
(67,324,o),
(116,264,o),
(212,229,cs),
(287,201,o),
(326,155,o),
(326,107,cs),
(326,45,o),
(285,3,o),
(224,3,cs),
(165,3,o),
(108,42,o),
(80,101,c),
(65,94,l),
(95,32,o),
(158,-10,o),
(224,-10,cs),
(311,-10,o),
(369,43,o),
(369,123,cs),
(369,183,o),
(324,239,o),
(237,271,cs),
(150,302,o),
(106,353,o),
(106,406,cs),
(106,461,o),
(142,497,o),
(196,497,cs),
(252,497,o),
(305,465,o),
(327,418,c),
(342,425,l)
);
},
{
closed = 1;
nodes = (
(114,49,o),
(98,105,o),
(98,142,cs),
(98,145,o),
(98,151,o),
(98,155,c),
(98,155,o),
(91,155,o),
(82,155,cs),
(72,155,o),
(65,155,o),
(65,155,c),
(65,116,o),
(65,90,o),
(65,90,c),
(65,70,o),
(65,44,o),
(65,24,c),
(65,24,o),
(72,24,o),
(82,24,cs),
(91,24,o),
(98,24,o),
(98,24,c),
(98,29,o),
(98,36,o),
(98,42,cs),
(98,43,o),
(104,40,o),
(112,33,c),
(137,32,l)
);
},
{
closed = 1;
nodes = (
(258,484,l),
(289,470,o),
(309,415,o),
(309,378,cs),
(309,374,o),
(309,368,o),
(309,364,c),
(309,364,o),
(315,364,o),
(325,364,cs),
(335,364,o),
(342,364,o),
(342,364,c),
(342,386,o),
(342,415,o),
(342,437,c),
(342,437,o),
(342,466,o),
(342,510,c),
(325,510,l),
(309,510,l),
(309,503,o),
(309,493,o),
(309,486,cs),
(309,478,o),
(306,471,o),
(302,474,c)
);
}
);
width = 425;
},
{
anchors = (
{
name = bottom;
pos = (212,0);
},
{
name = top;
pos = (212,500);
}
);
layerId = "261B483D-14CB-4AC5-AE3A-41E540C8643C";
shapes = (
{
closed = 1;
nodes = (
(329,476,o),
(272,510,o),
(209,510,cs),
(124,510,o),
(67,458,o),
(67,379,cs),
(67,304,o),
(113,241,o),
(201,217,cs),
(274,198,o),
(311,155,o),
(311,106,cs),
(311,48,o),
(275,10,o),
(220,10,cs),
(169,10,o),
(117,48,o),
(91,104,c),
(68,93,l),
(98,31,o),
(158,-10,o),
(220,-10,cs),
(315,-10,o),
(378,46,o),
(378,130,cs),
(378,200,o),
(331,259,o),
(239,283,cs),
(166,303,o),
(128,351,o),
(128,409,cs),
(128,458,o),
(161,490,o),
(209,490,cs),
(261,490,o),
(309,460,o),
(330,415,c),
(352,426,l)
);
},
{
closed = 1;
nodes = (
(120,54,o),
(101,110,o),
(101,145,cs),
(101,148,o),
(101,154,o),
(101,158,c),
(101,158,o),
(94,158,o),
(85,158,cs),
(75,158,o),
(68,158,o),
(68,158,c),
(68,118,o),
(68,91,o),
(68,91,c),
(68,70,o),
(68,43,o),
(68,23,c),
(68,23,o),
(75,23,o),
(85,23,cs),
(94,23,o),
(101,23,o),
(101,23,c),
(101,28,o),
(101,35,o),
(101,41,cs),
(101,42,o),
(107,39,o),
(116,31,c),
(149,34,l)
);
},
{
closed = 1;
nodes = (
(260,480,l),
(296,466,o),
(320,411,o),
(320,375,cs),
(320,371,o),
(320,365,o),
(320,361,c),
(320,361,o),
(326,361,o),
(336,361,cs),
(346,361,o),
(352,361,o),
(352,361,c),
(352,383,o),
(352,413,o),
(352,436,c),
(352,436,o),
(352,466,o),
(352,510,c),
(336,510,l),
(320,510,l),
(320,503,o),
(320,493,o),
(320,486,cs),
(320,478,o),
(317,471,o),
(313,475,c)
);
}
);
width = 435;
},
{
anchors = (
{
name = bottom;
pos = (214,0);
},
{
name = top;
pos = (214,500);
}
);
layerId = "B523A5AF-871D-4AB2-9BF1-E01A824009A4";
shapes = (
{
closed = 1;
nodes = (
(329,476,o),
(271,510,o),
(208,510,cs),
(127,510,o),
(73,459,o),
(73,383,cs),
(73,314,o),
(120,252,o),
(213,223,cs),
(287,200,o),
(325,155,o),
(325,107,cs),
(325,46,o),
(286,6,o),
(228,6,cs),
(173,6,o),
(118,45,o),
(91,103,c),
(72,94,l),
(102,32,o),
(164,-10,o),
(228,-10,cs),
(319,-10,o),
(379,45,o),
(379,126,cs),
(379,191,o),
(333,249,o),
(244,277,cs),
(163,302,o),
(122,352,o),
(122,408,cs),
(122,459,o),
(156,494,o),
(208,494,cs),
(262,494,o),
(312,463,o),
(334,417,c),
(352,425,l)
);
},
{
closed = 1;
nodes = (
(122,52,o),
(105,107,o),
(105,143,cs),
(105,147,o),
(105,153,o),
(105,157,c),
(105,157,o),
(98,157,o),
(89,157,cs),
(79,157,o),
(72,157,o),
(72,157,c),
(72,117,o),
(72,90,o),
(72,90,c),
(72,70,o),
(72,44,o),
(72,24,c),
(72,24,o),
(79,24,o),
(89,24,cs),
(98,24,o),
(105,24,o),
(105,24,c),
(105,29,o),
(105,36,o),
(105,41,cs),
(105,42,o),
(111,39,o),
(120,32,c),
(148,33,l)
);
},
{
closed = 1;
nodes = (
(265,482,l),
(298,468,o),
(320,413,o),
(320,376,cs),
(320,372,o),
(320,366,o),
(320,363,c),
(320,363,o),
(326,363,o),
(336,363,cs),
(346,363,o),
(352,363,o),
(352,363,c),
(352,385,o),
(352,415,o),
(352,436,c),
(352,436,o),
(352,466,o),
(352,510,c),
(336,510,l),
(320,510,l),
(320,503,o),
(320,493,o),
(320,486,cs),
(320,478,o),
(317,471,o),
(313,474,c)
);
}
);
width = 428;
},
{
anchors = (
{
name = bottom;
pos = (216,0);
},
{
name = top;
pos = (216,500);
}
);
layerId = "D3C24151-4D63-4841-9665-5260E3226900";
shapes = (
{
closed = 1;
nodes = (
(335,476,o),
(278,510,o),
(216,510,cs),
(127,510,o),
(67,456,o),
(67,376,cs),
(67,298,o),
(111,235,o),
(197,212,cs),
(268,193,o),
(305,152,o),
(305,106,cs),
(305,50,o),
(271,13,o),
(219,13,cs),
(172,13,o),
(123,50,o),
(97,105,c),
(70,93,l),
(99,31,o),
(158,-10,o),
(219,-10,cs),
(317,-10,o),
(382,48,o),
(382,134,cs),
(382,204,o),
(334,263,o),
(241,288,cs),
(173,307,o),
(138,354,o),
(138,410,cs),
(138,456,o),
(169,487,o),
(216,487,cs),
(265,487,o),
(311,458,o),
(331,414,c),
(358,426,l)
);
},
{
closed = 1;
nodes = (
(124,56,o),
(103,112,o),
(103,146,cs),
(103,150,o),
(103,156,o),
(103,159,c),
(103,159,o),
(96,159,o),
(87,159,cs),
(77,159,o),
(70,159,o),
(70,159,c),
(70,118,o),
(70,91,o),
(70,91,c),
(70,71,o),
(70,43,o),
(70,23,c),
(70,23,o),
(77,23,o),
(87,23,cs),
(96,23,o),
(103,23,o),
(103,23,c),
(103,28,o),
(103,35,o),
(103,40,cs),
(103,41,o),
(109,38,o),
(118,30,c),
(156,34,l)
);
},
{
closed = 1;
nodes = (
(260,479,l),
(299,464,o),
(325,410,o),
(325,373,cs),
(325,370,o),
(325,364,o),
(325,360,c),
(325,360,o),
(332,360,o),
(342,360,cs),
(352,360,o),
(358,360,o),
(358,360,c),
(358,382,o),
(358,412,o),
(358,435,c),
(358,435,o),
(358,465,o),
(358,510,c),
(342,510,l),
(325,510,l),
(325,503,o),
(325,493,o),
(325,486,cs),
(325,479,o),
(322,472,o),
(319,475,c)
);
}
);
width = 440;
},
{
anchors = (
{
name = bottom;
pos = (217,0);
},
{
name = top;
pos = (217,500);
}
);
layerId = "8EEC74F5-9CFA-47B4-A8F8-9A6461F2D63F";
shapes = (
{
closed = 1;
nodes = (
(338,477,o),
(281,510,o),
(221,510,cs),
(127,510,o),
(65,455,o),
(65,372,cs),
(65,292,o),
(107,228,o),
(189,206,cs),
(259,188,o),
(295,149,o),
(295,105,cs),
(295,52,o),
(263,17,o),
(215,17,cs),
(171,17,o),
(125,53,o),
(100,107,c),
(69,93,l),
(98,31,o),
(156,-10,o),
(215,-10,cs),
(316,-10,o),
(384,49,o),
(384,138,cs),
(384,208,o),
(335,268,o),
(240,294,cs),
(178,310,o),
(146,356,o),
(146,412,cs),
(146,454,o),
(176,483,o),
(221,483,cs),
(266,483,o),
(310,455,o),
(330,412,c),
(361,427,l)
);
},
{
closed = 1;
nodes = (
(125,58,o),
(102,114,o),
(102,147,cs),
(102,151,o),
(102,157,o),
(102,161,c),
(102,161,o),
(95,161,o),
(86,161,cs),
(76,161,o),
(69,161,o),
(69,161,c),
(69,119,o),
(69,91,o),
(69,91,c),
(69,71,o),
(69,43,o),
(69,22,c),
(69,22,o),
(76,22,o),
(86,22,cs),
(95,22,o),
(102,22,o),
(102,22,c),
(102,27,o),
(102,35,o),
(102,40,cs),
(102,41,o),
(108,37,o),
(117,29,c),
(159,35,l)
);
},
{
closed = 1;
nodes = (
(259,477,l),
(300,462,o),
(328,408,o),
(328,372,cs),
(328,368,o),
(328,362,o),
(328,359,c),
(328,359,o),
(335,359,o),
(345,359,cs),
(354,359,o),
(361,359,o),
(361,359,c),
(361,381,o),
(361,411,o),
(361,434,c),
(361,434,o),
(361,464,o),
(361,510,c),
(345,510,l),
(328,510,l),
(328,503,o),
(328,493,o),
(328,486,cs),
(328,479,o),
(325,472,o),
(321,476,c)
);
}
);
width = 434;
}
);
note = s;
unicode = 115;
},
{
glyphname = t;
lastChange = "2026-03-02 22:18:29 +0000";
layers = (
{
anchors = (
{
name = bottom;
pos = (179,0);
},
{
name = center;
pos = (179,250);
},
{
name = top;
pos = (179,620);
},
{
name = topright;
pos = (328,975);
}
);
layerId = "E059459B-5795-442B-8710-0018C46129BA";
shapes = (
{
closed = 1;
nodes = (
(311,40,o),
(273,16,o),
(238,16,cs),
(189,16,o),
(156,46,o),
(157,121,cs),
(158,486,l),
(158,486,l),
(158,496,l),
(158,620,l),
(154,620,l),
(38,496,l),
(38,486,l),
(103,486,l),
(103,134,ls),
(103,30,o),
(150,-10,o),
(221,-10,cs),
(262,-10,o),
(309,23,o),
(338,72,c),
(332,76,l)
);
},
{
closed = 1;
nodes = (
(155,500,l),
(155,471,l),
(307,471,l),
(307,500,l)
);
}
);
width = 380;
},
{
anchors = (
{
name = bottom;
pos = (198,0);
},
{
name = center;
pos = (198,250);
},
{
name = top;
pos = (198,620);
},
{
name = topright;
pos = (364,975);
}
);
layerId = "261B483D-14CB-4AC5-AE3A-41E540C8643C";
shapes = (
{
closed = 1;
nodes = (
(349,59,o),
(310,31,o),
(266,31,cs),
(219,31,o),
(188,62,o),
(189,141,cs),
(191,455,l),
(191,455,l),
(191,465,l),
(191,620,l),
(185,620,l),
(40,465,l),
(40,455,l),
(105,455,l),
(105,161,ls),
(105,38,o),
(159,-10,o),
(240,-10,cs),
(297,-10,o),
(351,33,o),
(374,97,c),
(364,101,l)
);
},
{
closed = 1;
nodes = (
(186,500,l),
(186,455,l),
(339,455,l),
(339,500,l)
);
}
);
width = 417;
},
{
anchors = (
{
name = bottom;
pos = (178,0);
},
{
name = center;
pos = (178,250);
},
{
name = top;
pos = (178,620);
},
{
name = topright;
pos = (335,975);
}
);
layerId = "B523A5AF-871D-4AB2-9BF1-E01A824009A4";
shapes = (
{
closed = 1;
nodes = (
(319,49,o),
(281,23,o),
(241,23,cs),
(193,23,o),
(161,53,o),
(162,131,cs),
(164,471,l),
(164,471,l),
(164,481,l),
(164,620,l),
(159,620,l),
(29,481,l),
(29,471,l),
(94,471,l),
(94,147,ls),
(94,34,o),
(144,-10,o),
(220,-10,cs),
(269,-10,o),
(319,28,o),
(346,84,c),
(337,88,l)
);
},
{
closed = 1;
nodes = (
(160,500,l),
(160,463,l),
(312,463,l),
(312,500,l)
);
}
);
width = 355;
},
{
anchors = (
{
name = bottom;
pos = (206,0);
},
{
name = center;
pos = (206,250);
},
{
name = top;
pos = (206,620);
},
{
name = topright;
pos = (380,975);
}
);
layerId = "D3C24151-4D63-4841-9665-5260E3226900";
shapes = (
{
closed = 1;
nodes = (
(366,67,o),
(326,37,o),
(278,37,cs),
(232,37,o),
(201,69,o),
(202,151,cs),
(205,447,l),
(205,447,l),
(205,457,l),
(205,620,l),
(198,620,l),
(40,457,l),
(40,447,l),
(105,447,l),
(105,173,ls),
(105,41,o),
(162,-10,o),
(248,-10,cs),
(314,-10,o),
(371,38,o),
(390,109,c),
(378,112,l)
);
},
{
closed = 1;
nodes = (
(199,500,l),
(199,447,l),
(353,447,l),
(353,500,l)
);
}
);
width = 434;
},
{
anchors = (
{
name = bottom;
pos = (249,0);
},
{
name = center;
pos = (210,250);
},
{
name = top;
pos = (201,620);
},
{
name = topright;
pos = (385,975);
}
);
layerId = "8EEC74F5-9CFA-47B4-A8F8-9A6461F2D63F";
shapes = (
{
closed = 1;
nodes = (
(373,76,o),
(333,44,o),
(280,44,cs),
(235,44,o),
(205,77,o),
(206,161,cs),
(209,439,l),
(209,439,l),
(209,449,l),
(209,620,l),
(201,620,l),
(29,449,l),
(29,439,l),
(94,439,l),
(94,186,ls),
(94,45,o),
(154,-10,o),
(245,-10,cs),
(322,-10,o),
(383,43,o),
(396,122,c),
(381,125,l)
);
},
{
closed = 1;
nodes = (
(202,500,l),
(202,439,l),
(356,439,l),
(356,500,l)
);
}
);
width = 405;
}
);
note = t;
unicode = 116;
},
